<svg width="120" height="48" viewBox="0 0 120 48" fill="none" xmlns="http://www.w3.org/2000/svg">
<path d="M22.0108 24.4913C21.9758 22.3437 22.9033 20.672 24.7916 19.4754C23.7265 17.9268 22.156 17.0565 20.079 16.8621C19.3402 16.7928 18.3958 16.9673 17.2467 17.3904C16.0107 17.8486 15.3149 18.0764 15.1608 18.0764C14.8345 18.0764 14.208 17.8837 13.2801 17.4956C12.3539 17.1085 11.5636 16.9149 10.9113 16.9149C9.81288 16.9326 8.7908 17.2363 7.84686 17.8255C6.90247 18.4156 6.14768 19.221 5.58158 20.2409C4.85964 21.508 4.5 23.0221 4.5 24.7812C4.5 26.3649 4.76551 27.9482 5.29742 29.5333C5.79514 31.0469 6.43139 32.3758 7.20306 33.5186C7.88904 34.5572 8.49199 35.3137 9.00525 35.7897C9.74451 36.5285 10.4989 36.881 11.2723 36.8451C11.7696 36.8269 12.4214 36.6422 13.2286 36.2892C13.9834 35.9566 14.739 35.7888 15.4947 35.7888C16.1985 35.7888 16.9271 35.9553 17.6836 36.2892C18.5241 36.6422 19.2114 36.818 19.7433 36.818C20.5332 36.7834 21.2711 36.4402 21.9585 35.7897C22.1978 35.5775 22.4602 35.2875 22.743 34.9181C23.0698 34.4879 23.3832 34.0474 23.6834 33.5981C23.9334 33.211 24.17 32.8145 24.3916 32.4104C24.6295 31.9753 24.8404 31.5255 25.0225 31.0638C25.1073 30.8702 25.1845 30.6726 25.2538 30.4702C25.3222 30.2677 25.391 30.0617 25.4594 29.8503C24.824 29.5693 24.249 29.1719 23.734 28.6613C22.6023 27.5367 22.0268 26.1461 22.01 24.4917L22.0108 24.4913ZM40.6836 29.1972H40.5589L35.3295 17.2466H31.2229V36.5285H34.802V24.0406H34.968L39.3383 33.9569H41.8482L46.2048 24.0406H46.3717V36.5285H49.9921V17.2466H45.9135L40.6841 29.1972H40.6836ZM18.7657 14.7242C19.6759 13.58 20.131 12.3484 20.131 11.0279V10.7642C20.131 10.6754 20.1221 10.5879 20.1052 10.5C19.4698 10.5351 18.7963 10.738 18.0832 11.1069C17.3711 11.4772 16.7832 11.9443 16.3192 12.5064C15.3926 13.616 14.9286 14.8032 14.9286 16.0704V16.3204C14.9286 16.4003 14.9375 16.4833 14.9544 16.5721C16.3796 16.7124 17.6503 16.0962 18.7657 14.7242ZM91.8225 17.2466H95.8451V36.5285H91.8225V17.2466ZM107.995 20.3115C110.381 20.3115 111.643 22.1478 111.643 24.1259H115.5V23.7161C115.5 19.9869 112.656 16.8798 107.967 16.8798C102.945 16.8798 99.949 20.1849 99.949 25.8215V27.9971C99.949 33.6319 102.917 36.8961 107.953 36.8961C112.989 36.8961 115.5 33.7446 115.5 30.2424V29.8188H111.643C111.643 31.8115 110.408 33.464 108.023 33.464C105.638 33.464 104.027 31.7262 104.027 28.0104V25.8366C104.027 22.1336 105.595 20.3115 107.995 20.3115H107.995ZM65.3775 29.4228C65.3775 32.0086 63.8657 33.4347 61.6461 33.4347C59.4266 33.4347 57.901 32.0224 57.901 29.4228V17.2466H53.9055V29.988C53.9055 34.0998 56.8181 36.8961 61.6457 36.8961C66.4733 36.8961 69.3863 34.0994 69.3863 29.988V17.2466H65.3779V29.4228H65.3775ZM82.6956 25.2985L79.8247 24.6493C78.1327 24.295 77.2447 23.5469 77.2447 22.4302C77.2447 20.9477 78.451 20.0149 80.3944 20.0149C82.586 20.0149 83.6818 21.2723 83.7785 22.6283H87.5241C87.4824 19.2237 84.639 16.8505 80.4077 16.8505C76.3993 16.8505 73.2363 18.9559 73.2363 22.7415C73.2363 26.0186 75.4562 27.5433 78.1193 28.1241L80.9627 28.7874C82.8772 29.2252 83.8478 29.8614 83.8478 31.1743C83.8478 32.6728 82.6543 33.69 80.4219 33.69C78.0221 33.69 76.7594 32.4184 76.6488 30.991H72.7918C72.8482 33.7176 74.6513 36.8961 80.2279 36.8961C84.9161 36.8961 87.8163 34.5656 87.8163 30.7783C87.8149 27.2751 85.4702 25.905 82.6956 25.2985Z" fill="white"/>
</svg>
