<svg width="120" height="48" viewBox="0 0 120 48" fill="none" xmlns="http://www.w3.org/2000/svg">
<path d="M109.627 18.8154C101.545 18.8154 101.553 26.8421 101.553 26.8421C101.553 26.8421 100.998 34.8285 109.628 34.8285C109.628 34.8285 116.82 35.2368 116.82 29.2732H113.121C113.121 29.2732 113.244 31.519 109.751 31.519C109.751 31.519 106.053 31.7641 106.053 27.8843H116.943C116.943 27.8843 118.132 18.8154 109.627 18.8154ZM112.914 25.096H106.011C106.011 25.096 106.462 21.8762 109.709 21.8762C112.957 21.8762 112.914 25.096 112.914 25.096H112.914Z" fill="white"/>
<path d="M16.677 23.0378C16.677 23.0378 19.8837 22.801 19.8837 19.063C19.8837 15.3251 17.2603 13.5 13.9372 13.5C13.9372 13.5 13.9366 13.5 13.936 13.5H7.81871H3V34.3911H7.6396V34.3923H13.936C13.936 34.3923 20.6121 34.6012 20.6121 28.2251C20.6121 28.2251 20.9034 23.0378 16.677 23.0378ZM13.1503 17.213H13.9372C13.9372 17.213 15.4238 17.213 15.4238 19.3865C15.4238 21.5599 14.5491 21.8745 13.5587 21.8745C13.5515 21.8745 13.5443 21.8757 13.5372 21.8757H7.81931V17.213H13.1509H13.1503ZM13.5342 30.6793H13.456C13.3688 30.6793 13.2948 30.6769 13.2374 30.6769C13.2279 30.6769 13.2195 30.6781 13.2106 30.6793H7.81871V25.0955H13.936V25.0931L13.9372 25.0943C13.9372 25.0943 16.1522 25.0658 16.1522 27.9634C16.1522 30.4947 14.3718 30.6745 13.5336 30.6793H13.5342Z" fill="white"/>
<path d="M29.5156 18.8154C21.4335 18.8154 21.4413 26.8421 21.4413 26.8421C21.4413 26.8421 20.8866 34.8285 29.5156 34.8285C29.5156 34.8285 36.707 35.2368 36.707 29.2732H33.0083C33.0083 29.2732 33.1313 31.519 29.6386 31.519C29.6386 31.519 25.94 31.7641 25.94 27.8843H36.8294C36.8294 27.8843 38.0217 18.8154 29.5156 18.8154ZM32.8024 25.096H25.8994C25.8994 25.096 26.3513 21.8762 29.598 21.8762C32.8447 21.8762 32.8029 25.096 32.8029 25.096H32.8024Z" fill="white"/>
<path d="M33.6665 14.7305H24.9951V17.3034H33.6665V14.7305Z" fill="white"/>
<path d="M52.5684 23.9637V23.7589H52.5649C52.4843 21.275 50.9511 18.8155 47.4321 18.8155C44.7508 18.8155 43.3119 20.4999 42.7471 21.3706V13.5H38.4741V34.3811H42.7471V25.9229C42.7471 24.0853 43.1985 22.1647 45.6643 22.1647C48.3235 22.1647 48.3235 23.7583 48.3235 23.7583V23.7571H48.3247V24.6266L48.3778 24.6391V34.3811H52.569V23.9672C52.569 23.9672 52.569 23.966 52.569 23.9655C52.569 23.9649 52.569 23.9643 52.569 23.9637H52.5684Z" fill="white"/>
<path d="M96.4584 28.4687C96.4584 28.4687 96.567 31.5633 93.6732 31.5633C90.7793 31.5633 90.0145 28.48 90.0145 26.7113C90.0145 24.9427 90.6146 21.9549 93.7275 21.9549C96.8405 21.9549 96.7306 24.6145 96.7306 24.6145H100.608C100.608 24.6145 100.881 18.8164 93.7825 18.8164C86.6842 18.8164 85.9194 24.5314 85.9194 26.8253C85.9194 29.1192 87.1207 34.9102 93.6738 34.9102C100.226 34.909 100.881 29.6623 100.881 28.4682H96.4578L96.4584 28.4687Z" fill="white"/>
<path d="M84.3441 23.9636V23.7588H84.3405C84.2599 21.275 82.7255 18.8154 79.2077 18.8154C76.5246 18.8154 75.0858 20.5016 74.5215 21.3723V19.0392H70.2485V34.3815H74.5215V26.0901C74.5221 26.0439 74.5227 25.9887 74.5227 25.9234C74.5227 24.0858 74.9741 22.1652 77.4399 22.1652C80.0991 22.1652 80.0991 23.7588 80.0991 23.7588V24.6271L80.1534 24.6402V34.3821H84.3447V23.9683C84.3447 23.9683 84.3447 23.9671 84.3447 23.9665C84.3447 23.966 84.3447 23.9654 84.3447 23.9648L84.3441 23.9636Z" fill="white"/>
<path d="M68.0245 31.4945V22.5478C68.0245 22.5478 68.5302 18.8164 61.7669 18.8164C55.0037 18.8164 54.5702 22.1858 54.5338 24.199H59.0546C59.0546 24.199 58.8743 21.5371 61.7311 21.5371C61.7311 21.5371 64.1545 21.3454 64.1545 23.7598C64.1545 23.7598 64.1545 25.3469 61.9484 25.4911C59.7424 25.6353 54.1362 25.6003 54.1362 30.1294C54.1362 30.1294 53.9911 34.9108 59.1453 34.9108C59.1453 34.9108 62.672 34.9826 64.1545 32.8251V34.3813H68.8192C68.8192 34.3813 68.0245 33.9754 68.0245 31.4951V31.4945ZM60.6815 31.9622C60.6815 31.9622 58.1501 32.0714 58.1501 29.9134C58.1501 29.9134 57.9333 28.2592 61.478 27.7203C62.8882 27.6123 63.5389 27.5156 64.1181 26.8633V29.6617C64.1181 29.6617 63.7563 31.9628 60.6821 31.9628L60.6815 31.9622Z" fill="white"/>
</svg>
