<svg width="120" height="48" viewBox="0 0 120 48" fill="none" xmlns="http://www.w3.org/2000/svg">
<path d="M115.528 18.841V30.4526H111.655V28.3402C111.327 29.136 110.83 29.742 110.161 30.1554C109.493 30.5675 108.666 30.7758 107.687 30.7758C106.811 30.7758 106.047 30.5591 105.393 30.124C104.742 29.6888 104.237 29.0911 103.882 28.3328C103.53 27.5745 103.352 26.7185 103.352 25.7593C103.341 24.7714 103.529 23.8834 103.914 23.0983C104.299 22.3131 104.843 21.7006 105.542 21.2599C106.243 20.8206 107.043 20.5993 107.94 20.5993C109.785 20.5993 111.023 21.4164 111.655 23.0511V18.8415H115.529L115.528 18.841ZM111.076 27.1722C111.472 26.7801 111.668 26.2704 111.668 25.6486C111.668 25.0269 111.477 24.557 111.092 24.1806C110.708 23.8057 110.181 23.6163 109.521 23.6163C108.86 23.6163 108.346 23.8075 107.955 24.1908C107.565 24.5728 107.371 25.0681 107.371 25.6815C107.371 26.2949 107.565 26.7944 107.955 27.181C108.346 27.5689 108.862 27.7611 109.505 27.7611C110.157 27.7597 110.681 27.5629 111.076 27.1722ZM102.659 21.1946V24.6788C102.256 24.4089 101.737 24.2751 101.094 24.2751C100.251 24.2751 99.6015 24.5353 99.1492 25.0565C98.6955 25.5778 98.47 26.388 98.47 27.4852V30.4522H94.5965V21.0178H98.3909V24.0168C98.6006 22.921 98.9422 22.1122 99.4121 21.5895C99.8788 21.0683 100.483 20.8081 101.22 20.8081C101.779 20.8081 102.257 20.9372 102.659 21.1946H102.659ZM83.9006 30.0976C82.9886 29.6467 82.2937 29.0291 81.8137 28.2435C81.3354 27.4578 81.0942 26.5819 81.0942 25.6139C81.0942 24.6459 81.3327 23.783 81.8137 23.0247C82.2947 22.2664 82.9854 21.6719 83.8946 21.2409C84.7992 20.8099 85.8807 20.596 87.1348 20.596C88.3889 20.596 89.4699 20.8099 90.3763 21.2409C91.2828 21.6719 91.9735 22.2622 92.4471 23.0159C92.9225 23.7686 93.1596 24.6329 93.1596 25.6125C93.1596 26.5921 92.9225 27.4551 92.4471 28.2407C91.973 29.0263 91.2795 29.6439 90.3675 30.0962C89.4541 30.5471 88.3769 30.7725 87.1334 30.7725C85.8899 30.7725 84.8112 30.5499 83.9006 30.0976ZM88.7046 27.2366C89.0893 26.8444 89.2833 26.3259 89.2833 25.6811C89.2833 25.0362 89.0907 24.5218 88.7046 24.1413C88.3213 23.7594 87.7968 23.5682 87.1334 23.5682C86.47 23.5682 85.9283 23.7594 85.5436 24.1413C85.1589 24.5232 84.9677 25.0362 84.9677 25.6811C84.9677 26.3259 85.1589 26.8444 85.5436 27.2366C85.9269 27.6273 86.457 27.8254 87.1334 27.8254C87.7968 27.824 88.3213 27.6273 88.7046 27.2366ZM72.6668 30.0976C71.7603 29.6467 71.077 29.0332 70.6201 28.2592C70.1632 27.4852 69.9335 26.6134 69.9335 25.6468C69.9335 24.6802 70.1706 23.8126 70.6446 23.0501C71.1201 22.2877 71.8149 21.6872 72.733 21.252C73.6491 20.8169 74.7449 20.6002 76.0204 20.6002C77.6018 20.6002 78.9142 20.9391 79.9568 21.6168V24.5681C79.5892 24.3098 79.1596 24.1001 78.6698 23.939C78.18 23.7779 77.6559 23.6964 77.0958 23.6964C76.1148 23.6964 75.3495 23.8788 74.7963 24.245C74.2431 24.6112 73.9649 25.088 73.9649 25.6811C73.9649 26.2741 74.2334 26.7352 74.7718 27.1088C75.3088 27.4805 76.0875 27.6676 77.1115 27.6676C77.637 27.6676 78.1569 27.5884 78.6698 27.4347C79.1795 27.2768 79.6207 27.0856 79.9883 26.8602V29.7152C78.8309 30.4249 77.4865 30.7795 75.9569 30.7795C74.6699 30.7753 73.5728 30.5499 72.6668 30.0971V30.0976ZM61.4732 30.4364C60.6186 30.211 59.8487 29.8837 59.164 29.4527V26.7755C59.6825 27.1833 60.3746 27.5194 61.2449 27.7838C62.1139 28.0467 62.9541 28.1786 63.7671 28.1786C64.1476 28.1786 64.4333 28.1268 64.6272 28.0263C64.8226 27.9245 64.9203 27.8023 64.9203 27.6615C64.9203 27.5009 64.867 27.3671 64.761 27.2592C64.6546 27.15 64.4495 27.0611 64.1448 26.9847L62.2477 26.5495C61.1621 26.2912 60.3908 25.9334 59.9325 25.4755C59.4742 25.0186 59.2459 24.42 59.2459 23.6788C59.2459 23.0543 59.4441 22.5126 59.8464 22.0488C60.2473 21.5863 60.8158 21.2289 61.5542 20.9775C62.294 20.7247 63.1555 20.5984 64.1481 20.5984C65.0328 20.5984 65.8443 20.6947 66.5823 20.8886C67.3207 21.0826 67.9308 21.328 68.4165 21.6298V24.163C67.9197 23.8598 67.3494 23.6233 66.7003 23.4436C66.0513 23.2654 65.386 23.1793 64.6981 23.1793C63.7069 23.1793 63.2129 23.3515 63.2129 23.695C63.2129 23.8557 63.2889 23.9765 63.4426 24.057C63.5963 24.1376 63.8777 24.2209 64.287 24.3084L65.8684 24.5987C66.9012 24.7797 67.6706 25.1001 68.1762 25.5565C68.6831 26.0134 68.9359 26.6884 68.9359 27.5814C68.9359 28.561 68.5178 29.3379 67.6794 29.9138C66.842 30.4897 65.6531 30.7767 64.1134 30.7767C63.2069 30.7753 62.3269 30.6619 61.4736 30.4364H61.4732ZM53.5725 23.2413C54.7558 23.7612 56.2238 23.7844 57.4344 23.2413V30.5026H53.5725V23.2413ZM55.5058 22.0219C56.5715 22.0219 57.4358 21.2294 57.4358 20.2525C57.4358 19.2757 56.571 18.4832 55.5058 18.4832C54.4406 18.4832 53.5739 19.2757 53.5739 20.2525C53.5739 21.2294 54.4387 22.0219 55.5058 22.0219ZM39.2281 19.1623H45.3937C46.8802 19.1623 48.1352 19.3993 49.1653 19.872C50.1935 20.3447 50.9634 21.0039 51.4745 21.8469C51.9842 22.69 52.2416 23.6566 52.2416 24.7436C52.2416 25.8306 51.9744 26.7727 51.4416 27.6375C50.9087 28.5036 50.0986 29.1869 49.0074 29.6925C47.9172 30.1966 46.5658 30.4508 44.9515 30.4508H39.2281V19.1628V19.1623ZM44.8881 27.581C45.8876 27.581 46.6589 27.3254 47.1959 26.8171C47.7329 26.3042 48.0014 25.6093 48.0014 24.7274C48.0014 23.9089 47.7616 23.2566 47.2834 22.7687C46.8052 22.2807 46.0797 22.0335 45.1103 22.0335H43.1817V27.5814H44.8877L44.8881 27.581ZM33.0941 31.9785C30.6067 33.8368 28.1952 34.9627 25.8226 35.6997C25.2351 34.8969 24.7166 34.0396 24.2671 33.1405C25.1194 32.8169 25.9406 32.4179 26.7216 31.947C26.5193 31.7947 26.3179 31.6355 26.1212 31.473C21.4524 33.6789 16.3192 33.6789 11.5944 31.473C11.3981 31.6364 11.1976 31.7947 10.9926 31.947C11.768 32.4123 12.5883 32.8132 13.4443 33.1377C12.9948 34.0396 12.4721 34.8942 11.8874 35.6983C9.51761 34.9599 7.10797 33.834 4.62195 31.9785C4.11363 26.5407 5.13073 21.0229 8.87921 15.3629C10.7389 14.4926 12.7281 13.8592 14.8091 13.5C15.066 13.9597 15.3706 14.5801 15.5762 15.0726C17.7446 14.7407 19.9334 14.7407 22.1426 15.0726C22.3482 14.5801 22.6468 13.9597 22.9009 13.5C24.9791 13.8592 26.967 14.4893 28.8253 15.3583C32.0751 20.2067 33.6908 25.6746 33.095 31.979L33.0941 31.9785ZM16.6683 25.701C16.6942 24.0881 15.5308 22.7654 14.0874 22.7654C12.6439 22.7654 11.505 24.0894 11.505 25.701C11.505 27.3125 12.6684 28.6337 14.0874 28.6337C15.5063 28.6337 16.6711 27.3111 16.6683 25.701ZM26.2087 25.701C26.2346 24.0881 25.0712 22.7654 23.6278 22.7654C22.1843 22.7654 21.0454 24.0894 21.0454 25.701C21.0454 27.3125 22.2088 28.6337 23.6278 28.6337C25.0467 28.6337 26.2087 27.3111 26.2087 25.701Z" fill="white"/>
</svg>
