<svg width="120" height="48" viewBox="0 0 120 48" fill="none" xmlns="http://www.w3.org/2000/svg">
<g clip-path="url(#clip0_15_296)">
<path d="M38.6689 13.5825C37.0111 14.3044 35.1884 16.3414 34.6128 18.8999C33.8839 22.1409 36.9174 23.5113 37.1663 23.0626C37.4593 22.5344 36.6228 22.3559 36.4504 20.6742C36.2278 18.5024 37.1994 16.0753 38.4219 15.0104C38.6491 14.8127 38.6384 15.0879 38.6384 15.5973C38.6384 16.5082 38.5901 24.6843 38.5901 26.3909C38.5901 28.6997 38.4984 29.4291 38.3334 30.1493C38.1665 30.8793 37.8982 31.3728 38.1014 31.5628C38.3286 31.7754 39.2989 31.2697 39.8606 30.4548C40.534 29.4776 40.77 28.3039 40.8121 27.0292C40.8633 25.4928 40.8611 23.0549 40.8633 21.6639C40.8653 20.3885 40.8841 16.6537 40.8419 14.4085C40.8316 13.8577 39.3624 13.28 38.6689 13.5818V13.5825ZM115.136 25.7124C114.896 25.7124 114.786 25.9701 114.695 26.404C114.38 27.9122 114.049 28.2527 113.622 28.2527C113.145 28.2527 112.717 27.5059 112.607 26.0112C112.52 24.8359 112.534 22.6718 112.645 20.5192C112.667 20.0769 112.55 19.6393 111.409 19.2085C110.918 19.0229 110.204 18.7504 109.848 19.642C108.844 22.1615 108.451 24.1621 108.358 24.9743C108.354 25.0164 108.304 25.0249 108.295 24.9268C108.236 24.276 108.105 23.0933 108.088 20.6085C108.085 20.1238 107.986 19.7111 107.471 19.3732C107.137 19.1539 106.123 18.7662 105.758 19.2277C105.441 19.605 105.075 20.6203 104.694 21.8236C104.384 22.8015 104.169 23.4631 104.169 23.4631C104.169 23.4631 104.173 20.8241 104.177 19.8229C104.178 19.4453 103.929 19.3193 103.854 19.2968C103.516 19.1947 102.849 19.0242 102.567 19.0242C102.217 19.0242 102.132 19.227 102.132 19.5225C102.132 19.5612 102.077 22.9972 102.077 25.3998C102.077 25.5042 102.077 25.6181 102.077 25.739C101.884 26.8433 101.258 28.3423 100.578 28.3423C99.8966 28.3423 99.5744 27.7158 99.5744 24.8514C99.5744 23.1805 99.6227 22.4539 99.6464 21.2455C99.6603 20.5496 99.6869 20.0146 99.6853 19.8937C99.6801 19.5218 99.0614 19.3341 98.7733 19.2647C98.4838 19.195 98.2327 19.1677 98.0363 19.1795C97.7585 19.1957 97.5618 19.3853 97.5618 19.6457C97.5618 19.7855 97.5634 20.051 97.5634 20.051C97.2056 19.4665 96.6297 19.0596 96.2469 18.9417C95.2153 18.6234 94.139 18.9056 93.3271 20.0864C92.6818 21.0245 92.2929 22.0874 92.1396 23.6144C92.0278 24.7304 92.0641 25.8626 92.2631 26.8197C92.0226 27.8997 91.5763 28.3423 91.0879 28.3423C90.3785 28.3423 89.8641 27.139 89.9241 25.0575C89.9636 23.6885 90.2271 22.7278 90.5152 21.3378C90.6381 20.7453 90.5382 20.435 90.288 20.1379C90.0586 19.865 89.5695 19.7259 88.8659 19.8974C88.3648 20.0193 87.6486 20.151 86.9936 20.2518C86.9936 20.2518 87.0331 20.0877 87.0655 19.7987C87.236 18.2828 85.6508 18.4057 85.1452 18.8898C84.8435 19.1788 84.638 19.5198 84.5599 20.1329C84.4361 21.1057 85.1994 21.5645 85.1994 21.5645C84.9488 22.7564 84.335 24.3131 83.7014 25.4385C83.362 26.0415 83.1021 26.4882 82.767 26.9635C82.7657 26.787 82.7647 26.6105 82.7644 26.4336C82.7566 23.9284 82.7887 21.9563 82.803 21.2459C82.8169 20.5499 82.8438 20.0294 82.8422 19.9082C82.8386 19.636 82.6857 19.5332 82.3677 19.4032C82.0867 19.288 81.7542 19.2085 81.4094 19.1809C80.9744 19.1458 80.7119 19.3853 80.719 19.6693C80.7203 19.7229 80.7203 20.0517 80.7203 20.0517C80.3625 19.4672 79.7866 19.0603 79.4038 18.9424C78.3722 18.624 77.2959 18.9063 76.484 20.087C75.8387 21.0252 75.4165 22.342 75.2965 23.6033C75.185 24.7789 75.2055 25.7778 75.3575 26.6193C75.1935 27.4618 74.7219 28.343 74.1884 28.343C73.5069 28.343 73.1189 27.7164 73.1189 24.852C73.1189 23.1812 73.1672 22.4546 73.1909 21.2462C73.2048 20.5502 73.2314 20.0153 73.2298 19.8944C73.2246 19.5225 72.6059 19.3348 72.3177 19.2654C72.0163 19.193 71.7564 19.1664 71.5564 19.1815C71.2926 19.2021 71.1076 19.447 71.1076 19.6299V20.0517C70.7498 19.4672 70.1738 19.0603 69.7911 18.9424C68.7595 18.624 67.689 18.9107 66.8713 20.087C66.3378 20.8541 65.9061 21.7043 65.6838 23.5864C65.6196 24.1305 65.5911 24.6398 65.595 25.1158C65.3824 26.4677 64.4431 28.026 63.6744 28.026C63.2248 28.026 62.7964 27.1195 62.7964 25.1876C62.7964 22.6139 62.9497 18.9501 62.9756 18.5967C62.9756 18.5967 63.9466 18.5796 64.1346 18.5772C64.6191 18.5718 65.0576 18.5836 65.7026 18.5492C66.026 18.5321 66.3378 17.3254 66.004 17.1758C65.8526 17.1081 64.7831 17.0488 64.3592 17.0397C64.0027 17.0313 63.01 16.9548 63.01 16.9548C63.01 16.9548 63.0991 14.5227 63.1198 14.266C63.1373 14.0517 62.8709 13.9416 62.7179 13.8745C62.3462 13.7111 62.0137 13.633 61.6196 13.5484C61.0751 13.4315 60.8278 13.5457 60.7798 14.0238C60.7072 14.7487 60.6696 16.8723 60.6696 16.8723C60.27 16.8723 58.9049 16.7911 58.5053 16.7911C58.1339 16.7911 57.733 18.4512 58.2467 18.4718C58.8375 18.4957 59.8669 18.5162 60.5494 18.5375C60.5494 18.5375 60.5189 22.2619 60.5189 23.4119C60.5189 23.5342 60.5193 23.6521 60.5202 23.7663C60.1446 25.8013 58.8213 26.9005 58.8213 26.9005C59.1055 25.5544 58.5251 24.5431 57.4795 23.6875C57.0942 23.3722 56.3339 22.7753 55.4831 22.1207C55.4831 22.1207 55.9757 21.6161 56.4129 20.6004C56.7224 19.8812 56.7361 19.0579 55.9757 18.8763C54.7202 18.5762 53.6847 19.5346 53.3758 20.558C53.1366 21.351 53.264 21.9391 53.733 22.5502C53.7673 22.595 53.8043 22.6405 53.8425 22.6863C53.5589 23.2543 53.1697 24.0186 52.8397 24.6115C51.9242 26.2578 51.2329 27.5598 50.7101 27.5598C50.2923 27.5598 50.2982 26.2379 50.2982 25.0003C50.2982 23.9334 50.374 22.3292 50.4346 20.6681C50.4547 20.1187 50.1902 19.8061 49.7472 19.5225C49.4782 19.3503 48.9036 19.0118 48.571 19.0118C48.0732 19.0118 46.6365 19.0822 45.2792 23.1633C45.1081 23.6777 44.772 24.6149 44.772 24.6149L44.8008 19.7071C44.8008 19.5918 44.7418 19.4807 44.6067 19.4045C44.3779 19.2755 43.7669 19.0114 43.2237 19.0114C42.9651 19.0114 42.8358 19.1364 42.8358 19.386L42.7885 27.0646C42.7885 27.648 42.8031 28.3285 42.8588 28.6263C42.9139 28.9244 43.0037 29.1666 43.1145 29.3112C43.2254 29.455 43.3534 29.5648 43.5647 29.6103C43.7614 29.6524 44.8381 29.7963 44.8941 29.3684C44.9612 28.8557 44.9638 28.3016 45.5291 26.2339C46.4093 23.0148 47.5569 21.4443 48.0966 20.8864C48.1909 20.7891 48.2985 20.783 48.2933 20.9427C48.2703 21.6484 48.1893 23.4119 48.1348 24.91C47.9886 28.9194 48.6903 29.6625 49.6931 29.6625C50.4602 29.6625 51.5417 28.8702 52.701 26.8645C53.4238 25.6147 54.1254 24.3892 54.6297 23.5056C54.9811 23.8438 55.3752 24.2076 55.7693 24.5964C56.6849 25.4995 56.9856 26.3578 56.786 27.1724C56.6333 27.7949 56.059 28.4363 55.0362 27.8128C54.738 27.6309 54.6106 27.4904 54.3112 27.2852C54.1501 27.1751 53.9044 27.1421 53.7569 27.2576C53.3739 27.5578 53.1551 27.9394 53.03 28.4117C52.9085 28.8716 53.3515 29.1144 53.8104 29.327C54.2058 29.5099 55.0556 29.6757 55.5975 29.6945C57.709 29.768 59.4008 28.6347 60.5782 25.7117C60.7892 28.2362 61.686 29.6645 63.2449 29.6645C64.2869 29.6645 65.3318 28.2645 65.7888 26.8871C65.92 27.4486 66.1142 27.9367 66.3647 28.3494C67.5658 30.3272 69.8958 29.9017 71.0661 28.2221C71.4278 27.703 71.4829 27.5163 71.4829 27.5163C71.6537 29.1023 72.8823 29.6565 73.5859 29.6565C74.3738 29.6565 75.1873 29.2694 75.7577 27.9351C75.8232 28.0776 75.8964 28.2157 75.9771 28.3494C77.1782 30.3272 79.5082 29.9017 80.6785 28.2221C80.7336 28.1432 80.7816 28.0718 80.8234 28.0075L80.8577 29.0494L79.7804 30.0765C77.9742 31.7969 76.602 33.1023 76.5012 34.6219C76.3729 36.5596 77.8841 37.2798 79.0289 37.3741C80.2426 37.4741 81.2839 36.7768 81.923 35.8006C82.4854 34.9416 82.8535 33.0922 82.8266 31.2657C82.8159 30.5343 82.7981 29.6042 82.7842 28.6074C83.4181 27.8421 84.1328 26.8749 84.79 25.7427C85.5069 24.5088 86.275 22.8521 86.6682 21.5625C86.6682 21.5625 87.3355 21.5686 88.0479 21.5201C88.2757 21.5046 88.3409 21.5528 88.299 21.7266C88.2482 21.9361 87.399 25.3402 88.1739 27.6073C88.7042 29.1596 89.8998 29.6588 90.6089 29.6588C91.4386 29.6588 92.2323 29.0076 92.6578 28.0402C92.709 28.148 92.7629 28.2524 92.8212 28.3487C94.0223 30.3265 96.3441 29.8987 97.5226 28.2214C97.7883 27.8431 97.9394 27.5157 97.9394 27.5157C98.1922 29.1569 99.4202 29.6642 100.124 29.6642C100.827 29.6642 101.552 29.3519 102.116 27.9644C102.14 28.5754 102.177 29.0747 102.235 29.2323C102.271 29.3287 102.479 29.4496 102.631 29.5079C103.301 29.7659 103.984 29.644 104.238 29.5911C104.413 29.5544 104.549 29.4082 104.568 29.0309C104.617 28.0402 104.587 26.376 104.876 25.1391C105.361 23.0633 105.813 22.2578 106.028 21.8593C106.148 21.636 106.284 21.5992 106.288 21.8354C106.299 22.3137 106.321 23.7181 106.509 25.6053C106.648 26.9932 106.832 27.8134 106.973 28.0732C107.377 28.8156 107.877 28.8507 108.283 28.8507C108.542 28.8507 109.083 28.7766 109.035 28.3039C109.011 28.0735 109.052 26.6502 109.53 24.6055C109.843 23.2698 110.363 22.0634 110.551 21.6222C110.62 21.4594 110.652 21.5878 110.651 21.6127C110.612 22.5324 110.523 25.5406 110.884 27.1862C111.372 29.4153 112.786 29.6645 113.278 29.6645C114.33 29.6645 115.19 28.8331 115.48 26.6452C115.55 26.118 115.447 25.7117 115.137 25.7117L115.136 25.7124ZM71.0852 24.3599C71.0249 25.5177 70.8074 26.4855 70.4587 27.1886C69.8277 28.4609 68.5793 28.8645 68.0289 27.0259C67.6319 25.7003 67.7671 23.8923 67.9324 22.9157C68.1774 21.4665 68.7909 20.4391 69.7486 20.5364C70.7326 20.6365 71.2106 21.9506 71.0852 24.3599ZM80.6973 24.3767C80.6412 25.4702 80.3684 26.5684 80.0708 27.1889C79.4567 28.47 78.1729 28.8705 77.6411 27.0262C77.2774 25.766 77.3643 24.1349 77.5445 23.1074C77.7782 21.7737 78.344 20.5368 79.3607 20.5368C80.3492 20.5368 80.8367 21.6639 80.6973 24.3767ZM80.9482 31.836C80.9349 33.8306 80.6328 35.5793 79.9853 36.0873C79.0668 36.8075 77.8323 36.2672 78.0877 34.8119C78.3139 33.524 79.3837 32.2086 80.9508 30.6017C80.9508 30.6017 80.954 30.9682 80.9482 31.8363V31.836ZM97.5414 24.3885C97.4879 25.5888 97.2322 26.5273 96.9149 27.1889C96.3007 28.47 95.026 28.8678 94.4851 27.0262C94.1902 26.0223 94.1766 24.3454 94.3885 22.9447C94.6044 21.5177 95.2069 20.4397 96.2048 20.5371C97.1891 20.6331 97.6496 21.9513 97.5414 24.3888V24.3885Z" fill="white"/>
</g>
<path d="M12.572 22.6061C12.572 20.3778 14.3778 18.5702 16.6071 18.5702C18.8363 18.5702 20.643 20.3769 20.643 22.6061C20.643 24.8354 18.8363 26.6421 16.6071 26.6421C14.3778 26.6421 12.572 24.8354 12.572 22.6061ZM10.3901 22.6061C10.3901 26.0393 13.173 28.8222 16.6061 28.8222C20.0393 28.8222 22.8222 26.0393 22.8222 22.6061C22.8222 19.173 20.0393 16.3901 16.6061 16.3901C13.173 16.3901 10.3901 19.173 10.3901 22.6061ZM21.6165 16.1433C21.6165 16.9456 22.2667 17.5967 23.0699 17.5967C23.8731 17.5967 24.5233 16.9456 24.5233 16.1433C24.5233 15.341 23.8731 14.6908 23.0699 14.6908C22.2667 14.6908 21.6165 15.341 21.6165 16.1433ZM11.7151 32.4603C10.5349 32.4065 9.89285 32.2098 9.46667 32.0441C8.90116 31.8237 8.49865 31.5624 8.07429 31.1389C7.65084 30.7155 7.38766 30.313 7.16911 29.7474C7.00246 29.3213 6.80667 28.6793 6.75294 27.4991C6.69466 26.2232 6.68282 25.8399 6.68282 22.6071C6.68282 19.3743 6.69557 18.9918 6.75294 17.7151C6.80667 16.5349 7.00428 15.8947 7.16911 15.4667C7.38948 14.9012 7.65084 14.4987 8.07429 14.0743C8.49774 13.6508 8.90025 13.3877 9.46667 13.1691C9.89285 13.0025 10.5349 12.8067 11.7151 12.7529C12.9909 12.6947 13.3743 12.6828 16.6061 12.6828C19.838 12.6828 20.2214 12.6956 21.4981 12.7529C22.6783 12.8067 23.3185 13.0043 23.7465 13.1691C24.312 13.3886 24.7146 13.6508 25.1389 14.0743C25.5624 14.4977 25.8246 14.9012 26.0441 15.4667C26.2107 15.8929 26.4065 16.5349 26.4603 17.7151C26.5185 18.9918 26.5304 19.3743 26.5304 22.6071C26.5304 25.8399 26.5185 26.2223 26.4603 27.4991C26.4065 28.6793 26.2089 29.3213 26.0441 29.7474C25.8237 30.313 25.5624 30.7155 25.1389 31.1389C24.7155 31.5624 24.312 31.8246 23.7465 32.0441C23.3204 32.2107 22.6783 32.4065 21.4981 32.4603C20.2223 32.5185 19.8389 32.5304 16.6061 32.5304C13.3733 32.5304 12.9909 32.5185 11.7151 32.4603ZM11.6149 10.5738C10.3263 10.632 9.44573 10.8369 8.67623 11.1356C7.88032 11.4443 7.20553 11.8596 6.53165 12.5317C5.85869 13.2046 5.44434 13.8794 5.13563 14.6762C4.83603 15.4466 4.63204 16.3263 4.57376 17.6149C4.51366 18.9053 4.5 19.3187 4.5 22.6061C4.5 25.8936 4.51366 26.3061 4.57376 27.5974C4.63204 28.886 4.83694 29.7666 5.13563 30.5361C5.44434 31.332 5.85869 32.0077 6.53165 32.6806C7.20462 33.3536 7.87941 33.767 8.67623 34.0767C9.44664 34.3763 10.3263 34.5803 11.6149 34.6385C12.9071 34.6968 13.3187 34.7123 16.6061 34.7123C19.8936 34.7123 20.3061 34.6986 21.5974 34.6385C22.886 34.5803 23.7666 34.3754 24.5361 34.0767C25.332 33.767 26.0068 33.3527 26.6806 32.6806C27.3536 32.0077 27.767 31.332 28.0767 30.5361C28.3763 29.7666 28.5812 28.886 28.6385 27.5974C28.6968 26.3052 28.7105 25.8936 28.7105 22.6061C28.7105 19.3187 28.6968 18.9062 28.6385 17.6149C28.5803 16.3263 28.3754 15.4457 28.0767 14.6762C27.767 13.8803 27.3527 13.2055 26.6806 12.5317C26.0077 11.8587 25.332 11.4443 24.537 11.1356C23.7666 10.836 22.886 10.6311 21.5983 10.5738C20.3079 10.5155 19.8945 10.5 16.6071 10.5C13.3196 10.5 12.9071 10.5137 11.6149 10.5738Z" fill="white"/>
<defs>
<clipPath id="clip0_15_296">
<rect width="81" height="23.8846" fill="white" transform="translate(34.5 13.5)"/>
</clipPath>
</defs>
</svg>
