<svg width="120" height="48" viewBox="0 0 120 48" fill="none" xmlns="http://www.w3.org/2000/svg">
<path d="M13.421 35.9584C15.6693 35.9584 17.3511 34.2979 17.3511 34.2979C17.4986 34.1742 17.6666 34.0551 17.6666 34.0551C19.0124 33.1684 21.1943 33.8078 21.1943 33.8078C21.9869 33.9961 22.0099 33.3952 22.0099 33.3952L22.0712 32.7149C22.1294 32.0473 23.152 32.0544 23.152 32.0544C24.4984 32.0012 25.0656 31.4483 25.2993 31.0582C25.5497 30.6841 25.0764 30.5784 25.0764 30.5784C21.8266 29.668 20.2502 26.5744 20.2502 26.5744C19.5163 25.2816 20.5223 24.7595 20.5223 24.7595C20.7944 24.5667 22.1262 24.1272 22.1262 24.1272C23.2254 23.6852 22.8601 22.917 22.8601 22.917C22.4526 22.0919 21.5009 22.6422 21.5009 22.6422C21.0512 22.8818 20.7127 22.8619 20.7127 22.8619C19.9609 22.876 19.8708 22.7146 19.8708 22.7146L19.8964 19.1354C19.8964 15.8618 17.0177 13.2083 13.467 13.2083H13.4057C9.85438 13.2083 6.97629 15.8618 6.97629 19.1354L7.00184 22.7146C7.00184 22.7146 6.91178 22.876 6.16001 22.8619C6.16001 22.8619 5.82148 22.8818 5.37182 22.6422C5.37182 22.6422 4.42076 22.0919 4.01262 22.917C4.01262 22.917 3.64727 23.6852 4.74651 24.1272C4.74651 24.1272 6.07889 24.5673 6.35034 24.7595C6.35034 24.7595 7.35633 25.2822 6.62244 26.5744C6.62244 26.5744 5.04607 29.668 1.79625 30.5784C1.79625 30.5784 1.32232 30.6841 1.57333 31.0582C1.80711 31.4483 2.37429 32.0018 3.72008 32.0544C3.72008 32.0544 4.74268 32.0473 4.8008 32.7149L4.86212 33.3952C4.86212 33.3952 4.88511 33.9961 5.67777 33.8078C5.67777 33.8078 7.85965 33.1684 9.20544 34.0551C9.20544 34.0551 9.37342 34.1736 9.5216 34.2979C9.5216 34.2979 11.204 35.9584 13.4517 35.9584H13.4216H13.421Z" fill="white"/>
<path d="M32.3504 26.6668C33.2306 27.1094 35.2151 27.7821 36.6107 27.7821C38.1136 27.7821 38.9082 27.1709 38.9082 26.2439C38.9082 25.317 38.2216 24.8531 36.4823 24.242C34.0776 23.42 32.5101 22.1132 32.5101 20.0484C32.5101 17.6249 34.5713 15.7703 37.9853 15.7703C39.6166 15.7703 40.8193 16.1072 41.6784 16.4865L41.7045 19.3277C41.1252 19.0535 39.3381 18.4045 37.9214 18.4045C36.5047 18.4045 35.8174 19.0368 35.8174 19.7742C35.8174 20.6801 36.6337 21.0805 38.5013 21.7762C41.0562 22.7038 42.259 24.0101 42.259 26.012C42.259 28.3933 40.3907 30.4375 36.4191 30.4375C34.7655 30.4375 33.1335 29.9948 32.3179 29.5522L32.3511 26.6668H32.3504ZM70.3449 20.0644V21.6621C70.951 20.5366 71.8254 19.8837 73.7116 19.8837C75.9599 19.8837 77.7285 21.6282 77.7285 24.9159C77.7285 28.6668 75.4911 30.4369 73.2006 30.4369C71.9609 30.4369 70.9945 29.9308 70.5327 29.2568L70.3002 28.9551V34.7624H67.2975V20.0868L70.3455 20.0644H70.3449ZM70.288 25.8544C70.288 26.1171 70.3098 26.358 70.3538 26.554C70.5716 27.4515 71.3355 28.1293 72.2956 28.1293C73.7352 28.1293 74.5867 26.9262 74.5867 25.11C74.5867 23.404 73.8234 22.1131 72.3396 22.1131C71.4013 22.1131 70.5723 22.8134 70.3545 23.798C70.3104 23.9729 70.2887 24.192 70.2887 24.3887V25.8544H70.288ZM87.4857 29.9686C86.9185 30.2216 85.8467 30.4535 84.6287 30.4535C81.3092 30.4535 79.1867 28.4874 79.1867 25.242C79.1867 22.2285 81.246 19.8895 85.07 19.8895C85.9106 19.8895 86.8348 20.0369 87.5074 20.2899L87.4908 22.7435C86.8846 22.3835 86.0575 22.2285 85.2169 22.2285C83.3167 22.2285 82.2852 23.4296 82.3069 25.1158C82.3069 27.0121 83.3614 28.0031 85.2801 28.0031C86.0364 28.0031 86.9855 27.6373 87.4684 27.4259L87.4863 29.9686H87.4857ZM95.5559 19.885C98.1012 19.885 99.1768 21.0728 99.1487 24.1785V30.2056H96.0267V24.5367C96.0267 23.1881 95.4933 22.2605 94.2951 22.2605C93.4545 22.2605 92.8516 22.8082 92.6204 23.3771C92.536 23.5879 92.515 23.8621 92.515 24.094V30.205H89.5213V15.2437H92.5431V21.5808C93.5165 19.7825 95.5553 19.8857 95.5553 19.8857L95.5559 19.885ZM116.21 17.0983V20.1099H118.5V22.4303H116.21V26.217C116.21 27.563 116.433 28.0294 117.47 28.0294C117.911 28.0294 118.1 28.0082 118.415 27.9455L118.436 30.1428C118.016 30.3113 117.26 30.4375 116.356 30.4375C115.327 30.4375 114.56 30.0583 114.056 29.5317C113.468 28.9205 113.174 27.9301 113.174 26.4759V22.4309H111.62V20.1105H113.174V17.9625L116.21 17.0976V17.0983ZM50.3081 19.6691C48.8046 19.6691 47.7999 20.4091 47.2768 21.0318V19.8613H44.1106V22.4937C44.1061 22.7192 44.1036 22.9498 44.1036 23.1888V30.2063H44.1106V30.2165L44.1157 30.2063H47.3668V24.2638C47.3668 23.9691 47.4103 23.6737 47.4958 23.463C47.7105 22.8729 48.2476 22.2618 49.1489 22.2618C50.3299 22.2618 50.8019 23.1676 50.8019 24.4957V30.2063H54.0658V24.0953C54.0658 21.0606 52.7845 19.6698 50.3081 19.6698V19.6691ZM64.7586 30.2165V24.1158C64.7586 21.6923 63.6824 19.6691 60.2582 19.6691C58.5783 19.6691 57.276 20.0766 56.5101 20.4501V22.9018C57.2057 22.4854 58.6658 21.9703 59.6903 21.9703C61.2661 21.9703 61.6027 23.0472 61.6027 23.5949V23.7423C57.9677 23.7211 55.5303 24.6001 55.5303 27.2766C55.5303 28.9205 56.7701 30.4375 58.8498 30.4375C60.0685 30.4375 61.1192 29.9948 61.7911 29.1729H61.8543L61.8313 30.2056H64.2093L64.758 30.2165H64.7586ZM61.5656 26.5739C61.5656 26.7629 61.5439 26.9506 61.5011 27.1178C61.2852 27.7661 60.6146 28.2895 59.7932 28.2895C59.0586 28.2895 58.4966 27.8923 58.4966 27.0761C58.4966 25.8423 59.8366 25.4444 61.5663 25.4662V26.5739H61.5656ZM110.07 30.2165V24.1158C110.07 21.6923 108.993 19.6691 105.569 19.6691C103.889 19.6691 102.587 20.0766 101.821 20.4501V22.9018C102.517 22.4854 103.977 21.9703 105.001 21.9703C106.577 21.9703 106.914 23.0472 106.914 23.5949V23.7423C103.279 23.7211 100.841 24.6001 100.841 27.2766C100.841 28.9205 102.081 30.4375 104.161 30.4375C105.379 30.4375 106.43 29.9948 107.102 29.1729H107.165L107.142 30.2056H109.52L110.069 30.2165H110.07ZM106.877 26.5739C106.877 26.7629 106.855 26.9506 106.812 27.1178C106.596 27.7661 105.926 28.2895 105.104 28.2895C104.37 28.2895 103.808 27.8923 103.808 27.0761C103.808 25.8423 105.148 25.4444 106.877 25.4662V26.5739H106.877Z" fill="white"/>
</svg>
