<svg width="120" height="48" viewBox="0 0 120 48" fill="none" xmlns="http://www.w3.org/2000/svg">
<path d="M24.5663 19.4123C26.6889 20.9336 29.2906 21.8303 32.0984 21.8303V16.4078C31.5677 16.4078 31.0371 16.3516 30.5154 16.2415V20.5089C27.7054 20.5089 25.1059 19.6123 22.9833 18.0909V29.1561C22.9833 34.6909 18.5098 39.1786 12.9929 39.1786C10.933 39.1786 9.02085 38.5538 7.43115 37.4842C9.24475 39.3449 11.7748 40.4999 14.5758 40.4999C20.095 40.4999 24.5686 36.0123 24.5686 30.4774V19.4123H24.5663ZM26.5187 13.9426C25.4328 12.7539 24.7208 11.2168 24.5663 9.51792V8.82129H23.0662C23.4446 10.9808 24.7298 12.8258 26.5165 13.9426H26.5187ZM10.9195 33.237C10.3128 32.4392 9.98587 31.464 9.98811 30.4617C9.98811 27.9291 12.0346 25.8775 14.5579 25.8775C15.0281 25.8775 15.4961 25.9494 15.9439 26.0932V20.5494C15.42 20.4775 14.8915 20.446 14.3631 20.4572V24.7718C13.9153 24.628 13.4474 24.5561 12.9749 24.5561C10.4516 24.5561 8.40512 26.6078 8.40512 29.1404C8.40512 30.9314 9.42835 32.4797 10.9195 33.237Z" fill="white"/>
<path d="M22.9832 18.0932C25.1058 19.6145 27.7075 20.5112 30.5153 20.5112V16.2438C28.948 15.9089 27.5598 15.0865 26.5164 13.9426C24.7296 12.8235 23.4422 10.9786 23.0661 8.82129H19.1276V30.4797C19.1187 33.0055 17.0767 35.0482 14.5578 35.0482C13.0733 35.0482 11.7546 34.3381 10.9194 33.2392C9.42823 32.4842 8.405 30.9336 8.405 29.1449C8.405 26.6123 10.4515 24.5606 12.9748 24.5606C13.4585 24.5606 13.9242 24.637 14.363 24.7763V20.4617C8.94237 20.5741 4.58301 25.0168 4.58301 30.4819C4.58301 33.21 5.66893 35.6819 7.43103 37.4887C9.02073 38.5583 10.9351 39.1831 12.9927 39.1831C18.5119 39.1831 22.9832 34.6954 22.9832 29.1606V18.0954V18.0932Z" fill="white"/>
<path d="M30.5152 16.2416V15.0865C29.1024 15.0865 27.7142 14.691 26.5164 13.9404C27.5777 15.1067 28.977 15.9112 30.5152 16.2416ZM23.066 8.8191C23.0302 8.61236 23.0033 8.40562 22.9832 8.19663V7.5H17.5469V29.1584C17.5379 31.682 15.4959 33.7269 12.977 33.7269C12.2382 33.7269 11.5396 33.5517 10.9216 33.2371C11.7568 34.3359 13.0756 35.046 14.56 35.046C17.0789 35.046 19.1209 33.0011 19.1299 30.4775V8.8191H23.0683H23.066ZM14.363 20.4573V19.2281C13.9085 19.1652 13.4517 19.1337 12.9927 19.1337C7.47355 19.1337 3 23.6213 3 29.1562C3 32.6258 4.75763 35.6842 7.42877 37.4842C5.66667 35.6775 4.58074 33.2033 4.58074 30.4775C4.58074 25.0123 8.9401 20.5697 14.3608 20.4573H14.363Z" fill="white"/>
<path d="M93.5164 34.6439C97.4638 34.6439 100.666 31.4573 100.666 27.527C100.666 23.5967 97.4638 20.4102 93.5164 20.4102H92.4395C96.3868 20.4102 99.5886 23.5967 99.5886 27.527C99.5886 31.4573 96.3868 34.6439 92.4395 34.6439H93.5164Z" fill="white"/>
<path d="M92.3414 20.408H91.2644C87.317 20.408 84.1152 23.5945 84.1152 27.5248C84.1152 31.4551 87.317 34.6417 91.2644 34.6417H92.3414C88.3917 34.6417 85.1922 31.4551 85.1922 27.5248C85.1922 23.5945 88.394 20.408 92.3414 20.408Z" fill="white"/>
<path d="M37.9893 17.1922V20.7989H42.1986V34.545H46.4102V20.8956H49.8381L51.0136 17.1899H37.9893V17.1922ZM72.4611 17.1922V20.7989H76.6705V34.545H80.882V20.8956H84.31L85.4855 17.1899H72.4611V17.1922ZM51.7973 19.2394C51.7973 18.109 52.7175 17.1922 53.8527 17.1922C54.9878 17.1922 55.9103 18.109 55.9103 19.2394C55.9103 20.3697 54.9901 21.2866 53.8527 21.2866C52.7175 21.2866 51.7973 20.3697 51.7973 19.2394ZM51.7973 22.7495H55.9081V34.5472H51.7973V22.7495ZM57.6724 17.1922V34.5472H61.7855V30.0618L63.0595 28.8911L67.074 34.6439H71.4804L65.7015 26.2596L70.8916 21.1899H65.8963L61.7833 25.2843V17.1922H57.6702H57.6724ZM102.036 17.1922V34.5472H106.149V30.0618L107.421 28.8911L111.438 34.6439H115.844L110.065 26.2596L115.255 21.1899H110.26L106.147 25.2843V17.1922H102.034H102.036Z" fill="white"/>
<path d="M92.4396 34.6439C96.387 34.6439 99.5888 31.4573 99.5888 27.527C99.5888 23.5967 96.387 20.4102 92.4396 20.4102H92.3411C88.3937 20.4102 85.1919 23.5967 85.1919 27.527C85.1919 31.4573 88.3937 34.6439 92.3411 34.6439H92.4396ZM88.9131 27.527C88.9131 25.6146 90.4715 24.0663 92.3903 24.0663C94.3092 24.0663 95.8675 25.6146 95.8675 27.527C95.8675 29.4394 94.3114 30.9877 92.3903 30.9877C90.4692 30.9877 88.9131 29.4371 88.9131 27.527Z" fill="white"/>
</svg>
