<svg width="120" height="48" viewBox="0 0 120 48" fill="none" xmlns="http://www.w3.org/2000/svg">
<path d="M110.631 12.8159H105.762V6H95.0724L90.1563 12.8159H81.4202L78.4993 15.7368V12.8159H71.6834V6H50.2626V12.8159H20.1275L15.2104 6H4.5V29.3686L18.1313 42.9999H31.7626V39.1053L35.6572 42.9999H61.9466V39.1053L65.8412 42.9999H78.4989V39.1053L82.3934 42.9999H106.736L115.499 34.2367V17.6841L110.63 12.8154L110.631 12.8159ZM21.0527 22.5527H14.2368V24.4999H21.0527V32.2895H10.3422L6.44771 28.3949V7.94727H14.2372V14.7632H21.0531V22.5527H21.0527ZM50.263 32.2895H26.8945L22.9999 28.3949V14.7632H30.7895V24.4999H32.7367V14.7632H40.5262V24.4999H42.4735V14.7632H50.263V32.2895ZM59.9998 32.2895H52.2103V14.7632H59.9998V32.2895ZM59.9998 12.8159H52.2103V7.94727H59.9998V12.8159ZM76.5525 22.5527H69.7366V24.4999H76.5525V32.2895H65.8421L61.9475 28.3949V7.94727H69.7371V14.7632H76.5529V22.5527H76.5525ZM94.0788 22.5527H86.2893V24.4999H94.0788V32.2895H82.3947L78.5002 28.3949V18.6581L82.3947 14.7636H94.0788V22.5531V22.5527ZM113.552 32.2895H105.763V22.5527H103.816V32.2895H96.0261V7.94727H103.816V14.7632H109.658L113.552 18.6577V32.289V32.2895Z" fill="white"/>
</svg>
