<svg width="120" height="48" viewBox="0 0 120 48" fill="none" xmlns="http://www.w3.org/2000/svg">
<path d="M13.4775 35.194C24.2503 35.194 30.1416 26.2714 30.1416 18.5342C30.1416 18.2807 30.1363 18.0285 30.125 17.7775C31.2712 16.9482 32.2604 15.9218 33.0465 14.7455C31.9973 15.2117 30.868 15.5257 29.6831 15.6674C30.8924 14.9425 31.8207 13.7957 32.2583 12.4288C31.1086 13.1107 29.851 13.5913 28.539 13.85C27.4706 12.7119 25.9494 12 24.2643 12C21.03 12 18.407 14.6224 18.407 17.8545C18.407 18.3142 18.4583 18.7608 18.5588 19.1896C13.6911 18.9448 9.37462 16.6146 6.48621 13.072C5.96595 13.9657 5.69234 14.9812 5.69321 16.0149C5.69321 18.0463 6.7272 19.8398 8.29973 20.8887C7.3697 20.8605 6.46011 20.6091 5.6471 20.1564C5.64623 20.1812 5.64623 20.2051 5.64623 20.2312C5.64623 23.0667 7.66506 25.4346 10.3451 25.9709C9.84181 26.1079 9.32242 26.1774 8.80085 26.177C8.43154 26.177 8.06266 26.1413 7.7003 26.0713C8.44589 28.398 10.6083 30.091 13.1713 30.138C11.1668 31.7088 8.64164 32.6443 5.89722 32.6443C5.42525 32.6443 4.95849 32.6173 4.5 32.5634C7.09217 34.2242 10.1698 35.1936 13.478 35.1936" fill="white"/>
<path d="M39.4351 17.4814H42.9405V20.4861H45.6042V23.2063H42.9405V28.3625C42.9405 28.9014 43.0749 29.2753 43.3444 29.4837C43.6138 29.6928 44.025 29.7967 44.5794 29.7967C44.7997 29.7967 45.01 29.7911 45.211 29.7799C45.4119 29.7687 45.5656 29.7594 45.672 29.7513V32.3577C45.5351 32.3807 45.2794 32.4106 44.9036 32.4485C44.5278 32.4865 44.1277 32.5052 43.7027 32.5052C42.6705 32.5052 41.8343 32.3894 41.1928 32.158C40.5513 31.9265 40.0846 31.5532 39.7928 31.0368C39.5004 30.5209 39.3548 29.8415 39.3548 28.9997V23.2063H37.5V20.4861H39.4351V17.4814Z" fill="white"/>
<path d="M62.2788 32.4602H58.4659L56.3828 24.2421H56.2689L54.22 32.4602H50.3729L47.2202 20.3042H50.9646L52.4897 28.8974H52.6377L54.6412 20.3042H58.0329L60.0818 28.8974H60.2299L61.7779 20.3042H65.386L62.2788 32.4602Z" fill="white"/>
<path d="M67.8896 15.5009C68.284 15.1668 68.8073 15 69.46 15C70.1127 15 70.6266 15.1668 71.0248 15.5009C71.4231 15.835 71.6222 16.2786 71.6222 16.8324C71.6222 17.3861 71.4249 17.8167 71.0304 18.1471C70.636 18.4775 70.1121 18.6424 69.46 18.6424C68.8079 18.6424 68.2934 18.4775 67.8952 18.1471C67.497 17.8173 67.2979 17.3787 67.2979 16.8324C67.2979 16.2861 67.4951 15.8344 67.8896 15.5009ZM67.6506 20.3043H71.2812V32.4603H67.6506V20.3043Z" fill="white"/>
<path d="M75.6183 17.4814H79.1238V20.4861H81.7874V23.2063H79.1238V28.3625C79.1238 28.9014 79.2582 29.2753 79.5276 29.4837C79.797 29.6928 80.2089 29.7967 80.7627 29.7967C80.9829 29.7967 81.1932 29.7911 81.3942 29.7799C81.5952 29.7687 81.7489 29.7594 81.8552 29.7513V32.3577C81.7184 32.3807 81.4626 32.4106 81.0868 32.4485C80.711 32.4865 80.3109 32.5052 79.886 32.5052C78.8537 32.5052 78.0175 32.3894 77.376 32.158C76.7345 31.9265 76.2679 31.5532 75.9761 31.0368C75.6836 30.5209 75.538 29.8415 75.538 28.9997V23.2063H73.6826V20.4861H75.6177V17.4814H75.6183Z" fill="white"/>
<path d="M85.4982 17.4814H89.0037V20.4861H91.6673V23.2063H89.0037V28.3625C89.0037 28.9014 89.1381 29.2753 89.4075 29.4837C89.6769 29.6928 90.0882 29.7967 90.6425 29.7967C90.8628 29.7967 91.0731 29.7911 91.2741 29.7799C91.4751 29.7687 91.6287 29.7594 91.7351 29.7513V32.3577C91.5989 32.3807 91.3425 32.4106 90.9667 32.4485C90.5909 32.4865 90.1908 32.5052 89.7659 32.5052C88.7336 32.5052 87.8974 32.3894 87.2559 32.158C86.6144 31.9265 86.1478 31.5532 85.8559 31.0368C85.5635 30.5209 85.4179 29.8415 85.4179 28.9997V23.2063H83.5625V20.4861H85.4975V17.4814H85.4982Z" fill="white"/>
<path d="M96.5326 32.0447C95.6634 31.616 94.9883 30.9745 94.5067 30.1208C94.0245 29.2671 93.7837 28.2106 93.7837 26.9507V25.7896C93.7837 24.5222 94.0357 23.4657 94.5409 22.6195C95.0455 21.7733 95.7225 21.1399 96.5724 20.7187C97.4223 20.2975 98.3631 20.0872 99.3953 20.0872C100.495 20.0872 101.463 20.3149 102.298 20.7703C103.132 21.2258 103.785 21.8797 104.255 22.7334C104.726 23.587 104.961 24.6056 104.961 25.7896V27.133H97.3122V27.6905C97.3122 28.3886 97.5225 28.9479 97.9437 29.3692C98.365 29.7904 98.8976 30.0007 99.5428 30.0007C99.9068 30.0007 100.235 29.946 100.527 29.8358C100.819 29.7257 101.057 29.572 101.238 29.3748C101.421 29.1775 101.526 28.9535 101.557 28.7034H104.881C104.858 29.1135 104.742 29.5496 104.533 30.0125C104.324 30.4755 104.008 30.9098 103.583 31.3161C103.158 31.7224 102.614 32.0521 101.95 32.3066C101.286 32.5605 100.487 32.688 99.554 32.688C98.4079 32.688 97.4012 32.4733 96.532 32.0453L96.5326 32.0447ZM101.49 25.0959V25.0162C101.49 24.5533 101.404 24.1477 101.233 23.7986C101.063 23.4495 100.821 23.1764 100.51 22.9792C100.199 22.7819 99.8346 22.683 99.4177 22.683C99.0009 22.683 98.6344 22.7819 98.3195 22.9792C98.0047 23.1764 97.7577 23.4495 97.5797 23.7986C97.4012 24.1477 97.3122 24.554 97.3122 25.0162V25.0959H101.49Z" fill="white"/>
<path d="M107.727 20.3043H111.357V22.2281H111.528C111.604 21.9475 111.755 21.6457 111.983 21.3234C112.211 21.0011 112.526 20.7224 112.928 20.4866C113.33 20.2514 113.823 20.1338 114.407 20.1338C114.665 20.1338 114.881 20.1413 115.056 20.1568C115.23 20.1724 115.379 20.1985 115.5 20.2365V23.3207C115.37 23.2753 115.185 23.2392 114.942 23.2124C114.7 23.1857 114.442 23.1726 114.168 23.1726C113.546 23.1726 113.034 23.2846 112.632 23.5086C112.229 23.7326 111.933 24.0474 111.744 24.4531C111.554 24.8594 111.459 25.3317 111.459 25.8699V32.4602H107.726V20.3043H107.727Z" fill="white"/>
</svg>
