<svg width="40" height="40" viewBox="0 0 40 40" fill="none" xmlns="http://www.w3.org/2000/svg">
<g clip-path="url(#clip0_373_816)">
<path d="M39.6066 19.7377L33.2332 4.48302L27.0835 7.05247C27.1606 6.32716 27.1606 5.30093 26.7671 4.56018C25.8875 2.91667 23.835 2.29167 22.1915 3.1713C20.548 4.05093 19.923 6.10339 20.8026 7.74691C21.1112 8.32562 21.5742 8.7963 22.1452 9.11265L15.5711 11.8519C15.4245 11.3889 15.2007 10.9491 14.9153 10.5556C15.0001 10.5093 15.0696 10.4552 15.139 10.3858C15.3011 10.2238 15.4014 10.0077 15.4014 9.77623L15.3705 7.22994H15.8952C16.0186 7.22994 16.1344 7.17593 16.2193 7.09105C16.3119 7.00617 16.3582 6.88272 16.3582 6.75926L16.2656 0L15.3396 0.0154321L15.4245 6.30401L3.05569 6.39661L2.97081 0L2.04488 0.0154321L2.12976 6.875C2.13748 7.12963 2.33809 7.32253 2.59272 7.33025H3.13285C3.13285 7.35339 3.16371 9.87654 3.16371 9.87654C3.17143 10.1543 3.31032 10.409 3.53408 10.571L3.19457 11.1111C3.0634 11.3194 2.88593 11.8364 2.88593 11.8364H2.87822L1.52791 16.875L1.88285 17.9707L1.3813 18.1944C0.91834 18.4028 0.54797 18.7809 0.370501 19.2593C0.193031 19.7377 0.208464 20.2623 0.416797 20.7253L7.27636 36.0494L13.7038 33.1713C13.9353 33.071 14.0974 32.8549 14.1205 32.6003C14.1436 32.3457 14.0279 32.0988 13.8196 31.9599C12.994 31.3812 12.423 30.7562 12.2532 30.2469C11.8211 28.966 12.5078 27.5694 13.7964 27.1373C15.0773 26.7052 16.4739 27.392 16.906 28.6806C17.1143 29.2901 17.068 29.9614 16.7825 30.5401C16.6591 30.787 16.7054 31.0802 16.8983 31.2731C17.0835 31.4738 17.3767 31.5355 17.6236 31.4198L22.9631 29.0278C23.2177 28.9198 23.4338 28.7346 23.5881 28.5031L24.3983 28.1713C24.4909 28.9352 24.7764 29.6605 25.2316 30.2855C25.1467 30.3318 25.0773 30.3935 25.0078 30.463C24.8381 30.625 24.7455 30.8488 24.7455 31.0802L24.7841 33.6188H24.2594C24.1359 33.6188 24.0202 33.6728 23.9353 33.7577C23.8427 33.8426 23.7964 33.966 23.8041 34.0895L23.889 39.9151H24.8149L24.7301 34.5525L37.0989 34.4522L37.1838 39.9228H38.1097L38.0248 33.9892C38.0171 33.7346 37.8165 33.534 37.5619 33.5262H37.0217C37.0217 33.5108 37.0295 33.4877 37.0295 33.4722L36.9909 30.9877C36.9909 30.7099 36.852 30.4475 36.6205 30.2932C36.798 30.0077 36.9369 29.7917 36.96 29.7454C37.0912 29.5448 37.1915 29.321 37.2532 29.0818L37.2686 29.0278H37.2764L38.6267 23.9815L38.1328 22.4228L38.5804 22.2377C39.5526 21.8364 40.0156 20.733 39.6143 19.7608C39.6143 19.7531 39.6066 19.7454 39.6066 19.7377ZM7.28408 15.5556L7.20692 15.6867C6.68223 16.6127 5.73315 17.0216 5.72544 17.0216L5.38593 17.1605C5.38593 17.1605 5.91834 20.3781 6.06495 21.3117C6.14982 21.8673 6.04951 22.4383 5.77173 22.9244C5.57112 23.2099 5.24704 23.3796 4.89982 23.3796C4.66062 23.3719 4.56032 23.2485 4.52174 23.179L3.01711 18.4799L2.73161 17.5926L2.49241 16.8519L3.79643 11.9985C3.83501 11.8596 3.89673 11.7284 3.9739 11.6049C3.9739 11.6049 4.21309 11.2191 4.48315 10.8025L13.8659 10.7253C14.2671 11.1497 14.5603 11.6667 14.7224 12.2299L7.28408 15.5556ZM14.3057 9.8071H14.2903V9.79167L4.28254 9.86883C4.21309 9.87654 4.15136 9.85339 4.09735 9.81481V9.72222L4.06649 7.39198C4.1205 7.36111 4.18223 7.33796 4.24396 7.33796L14.2671 7.2608C14.3365 7.25309 14.3983 7.27623 14.4523 7.31482L14.4909 9.75309C14.4369 9.78395 14.3674 9.8071 14.3057 9.8071ZM22.585 28.179L17.8551 30.3009C18.3103 28.4877 17.2146 26.6512 15.4014 26.196C13.5881 25.7407 11.7517 26.8364 11.2964 28.6497C11.1344 29.2747 11.1653 29.9383 11.3659 30.5478C11.6282 31.3117 12.3304 31.9907 12.9708 32.4846L7.73161 34.8302L1.25013 20.3472C1.14211 20.108 1.13439 19.838 1.2347 19.591C1.32729 19.3441 1.51248 19.1512 1.75167 19.0432L2.16062 18.858L3.67297 23.5725C3.90445 24.0123 4.35198 24.2978 4.85353 24.3056C4.85353 24.3056 6.05723 24.3287 6.55106 23.4105V23.3951C6.93686 22.716 7.08346 21.929 6.96001 21.1574C6.84427 20.4167 6.52791 18.4799 6.39673 17.7006C7.01402 17.3611 7.53871 16.8673 7.92451 16.2809L15.7563 12.7701C15.7563 12.7701 15.9724 12.6466 16.1421 12.6852C16.2424 12.7238 16.335 12.8395 16.3813 12.9398L18.8041 18.4799C18.9045 18.7346 19.1591 18.8889 19.4291 18.8735C19.6992 18.858 19.9307 18.6728 20.0156 18.4182C20.2239 17.716 20.7332 17.1528 21.4122 16.875C22.6159 16.3349 24.0356 16.8673 24.5757 18.071C25.0773 19.1821 24.6683 20.4861 23.619 21.1111C22.9477 21.4892 21.7748 21.3966 21.3041 21.3426C21.0572 21.3117 20.8103 21.4198 20.656 21.6204C20.656 21.6281 20.4322 21.8827 20.5788 22.3225L22.8705 27.4306C22.9554 27.6235 22.9245 27.8549 22.7933 28.017C22.747 28.0864 22.6699 28.1481 22.585 28.179ZM36.0649 31.1188L36.1035 33.4491C36.0495 33.4877 35.9878 33.5108 35.9183 33.5031L25.8952 33.5802C25.8257 33.588 25.764 33.5648 25.71 33.5262L25.6714 31.1265L36.0649 31.1188ZM36.3582 28.8426C36.3196 28.9815 36.2578 29.1127 36.1807 29.2361V29.2515C36.1807 29.2515 35.9492 29.6296 35.6791 30.0463L35.5865 30.1929H26.3659L26.2887 30.1157C25.6946 29.483 25.3396 28.6574 25.2933 27.7855L31.9754 25C31.8288 25.2623 31.6899 25.5401 31.5588 25.8179L32.3998 26.2114C32.5696 25.8488 32.7548 25.4938 32.9477 25.1543C33.1406 24.8148 33.4029 24.5216 33.7038 24.2747C33.9276 24.0895 34.1668 23.9429 34.4291 23.8194L34.7686 23.6806L34.7146 23.3179C34.7069 23.3102 34.6838 23.1404 34.6375 22.8858C34.4986 22.0525 34.2054 20.2469 34.0896 19.537C34.0048 18.9815 34.1051 18.4105 34.3828 17.9244C34.5835 17.6389 34.9075 17.4614 35.2548 17.4614C35.494 17.4691 35.5943 17.5926 35.6328 17.6698L36.9909 21.8981L37.2764 22.7855L37.6622 23.9969L36.3582 28.8426ZM38.7578 20.8488C38.6575 21.088 38.4646 21.2809 38.2254 21.3812L37.8474 21.5432L36.4739 17.2685C36.2424 16.8287 35.7949 16.5509 35.3011 16.5355C34.1128 16.5664 33.5958 17.4383 33.5958 17.4383C33.21 18.1173 33.0634 18.9043 33.1869 19.6759C33.3026 20.4244 33.619 22.3534 33.7501 23.1327C33.5727 23.233 33.4029 23.3488 33.2409 23.4722L23.8273 27.4074C23.8041 27.284 21.6591 22.4537 21.6591 22.4537C22.423 22.5077 23.3026 22.4691 23.9585 22.1219L24.2517 21.9444C24.6066 21.7052 24.9153 21.4043 25.1544 21.0494L25.2548 20.8951C25.4322 20.6019 25.5634 20.2855 25.6483 19.9537C25.656 19.9383 25.656 19.9228 25.656 19.9074H25.6637C25.7486 19.6065 25.7872 19.2978 25.7872 18.9815C25.7872 18.642 25.7332 18.2948 25.6328 17.9707C25.0773 16.1883 23.1791 15.2006 21.3967 15.7562C20.5403 16.0262 19.8227 16.6281 19.406 17.4306L18.8582 16.2037C18.6807 15.7639 17.5001 13.1713 17.2378 12.5694C17.1761 12.4537 17.1066 12.338 17.0217 12.2377L23.1251 9.72222C23.3798 9.6142 23.5341 9.35957 23.5186 9.08951C23.5109 8.81944 23.3257 8.58796 23.0711 8.5108C21.7748 8.11728 21.0418 6.75154 21.4353 5.44753C21.4739 5.32407 21.5202 5.20833 21.5742 5.09259C21.8751 4.45988 22.4307 3.98148 23.1097 3.7963C24.2208 3.47994 25.4014 3.97377 25.9492 4.99228C26.3119 5.6713 26.1884 6.83642 26.119 7.3071C26.0881 7.56173 26.1884 7.80864 26.389 7.96296C26.5896 8.11728 26.852 8.15586 27.0835 8.05556L32.7316 5.69444L38.7501 20.0926C38.8582 20.3318 38.8582 20.6096 38.7578 20.8488Z" fill="url(#paint0_linear_373_816)"/>
<path d="M10.6084 36.259L9.78564 36.6836L10.8543 38.7543L11.6771 38.3296L10.6084 36.259Z" fill="url(#paint1_linear_373_816)"/>
<path d="M4.17534 36.2946L3.10669 38.3652L3.92947 38.7899L4.99812 36.7192L4.17534 36.2946Z" fill="url(#paint2_linear_373_816)"/>
<path d="M6.93926 37.6216L6.88232 39.9512L7.80797 39.9738L7.86491 37.6442L6.93926 37.6216Z" fill="url(#paint3_linear_373_816)"/>
<path d="M30.1846 1.30779L29.3618 1.73242L30.4305 3.80308L31.2532 3.37845L30.1846 1.30779Z" fill="url(#paint4_linear_373_816)"/>
<path d="M37.1119 1.33755L36.0432 3.4082L36.866 3.83283L37.9346 1.76218L37.1119 1.33755Z" fill="url(#paint5_linear_373_816)"/>
<path d="M33.1795 0.100139L33.1226 2.42969L34.0482 2.45231L34.1051 0.122761L33.1795 0.100139Z" fill="url(#paint6_linear_373_816)"/>
</g>
<defs>
<linearGradient id="paint0_linear_373_816" x1="20.0034" y1="0" x2="20.0034" y2="39.9228" gradientUnits="userSpaceOnUse">
<stop stop-color="#FFF422"/>
<stop offset="1" stop-color="#AF99FF"/>
</linearGradient>
<linearGradient id="paint1_linear_373_816" x1="10.197" y1="36.4713" x2="11.2657" y2="38.5419" gradientUnits="userSpaceOnUse">
<stop stop-color="#FFF422"/>
<stop offset="1" stop-color="#AF99FF"/>
</linearGradient>
<linearGradient id="paint2_linear_373_816" x1="3.64102" y1="37.3299" x2="4.46379" y2="37.7545" gradientUnits="userSpaceOnUse">
<stop stop-color="#FFF422"/>
<stop offset="1" stop-color="#AF99FF"/>
</linearGradient>
<linearGradient id="paint3_linear_373_816" x1="6.91079" y1="38.7864" x2="7.83644" y2="38.809" gradientUnits="userSpaceOnUse">
<stop stop-color="#FFF422"/>
<stop offset="1" stop-color="#AF99FF"/>
</linearGradient>
<linearGradient id="paint4_linear_373_816" x1="29.7732" y1="1.52011" x2="30.8419" y2="3.59076" gradientUnits="userSpaceOnUse">
<stop stop-color="#FFF422"/>
<stop offset="1" stop-color="#AF99FF"/>
</linearGradient>
<linearGradient id="paint5_linear_373_816" x1="36.5775" y1="2.37288" x2="37.4003" y2="2.7975" gradientUnits="userSpaceOnUse">
<stop stop-color="#FFF422"/>
<stop offset="1" stop-color="#AF99FF"/>
</linearGradient>
<linearGradient id="paint6_linear_373_816" x1="33.151" y1="1.26491" x2="34.0767" y2="1.28754" gradientUnits="userSpaceOnUse">
<stop stop-color="#FFF422"/>
<stop offset="1" stop-color="#AF99FF"/>
</linearGradient>
<clipPath id="clip0_373_816">
<rect width="40" height="40" fill="white"/>
</clipPath>
</defs>
</svg>
