<svg width="40" height="40" viewBox="0 0 40 40" fill="none" xmlns="http://www.w3.org/2000/svg">
<g clip-path="url(#clip0_373_834)">
<path fill-rule="evenodd" clip-rule="evenodd" d="M20.0001 9.0955C26.023 9.0955 30.9044 13.9769 30.9044 19.9998C30.9044 26.0227 26.023 30.9041 20.0001 30.9041C13.9772 30.9041 9.09574 26.0227 9.09574 19.9998C9.09574 13.9769 13.9772 9.0955 20.0001 9.0955ZM27.5124 26.0569C28.8492 24.401 29.6495 22.294 29.6495 19.9998C29.6495 14.67 25.3299 10.3504 20.0001 10.3504C14.6702 10.3504 10.3506 14.67 10.3506 19.9998C10.3506 22.294 11.151 24.401 12.4877 26.0569C13.1811 23.5851 15.0608 21.6092 17.4732 20.7832C16.4253 20.0059 15.7433 18.7604 15.7433 17.3626C15.7433 15.0206 17.6581 13.1058 20.0001 13.1058C22.342 13.1058 24.2568 15.0206 24.2568 17.3626C24.2568 18.7604 23.5748 20.0059 22.5269 20.7832C24.9393 21.6092 26.819 23.5851 27.5124 26.0569ZM13.5305 27.1597C15.2419 28.707 17.5108 29.6492 20.0001 29.6492C22.4893 29.6492 24.7582 28.707 26.4696 27.1597C25.9847 24.022 23.272 21.6193 20.0001 21.6193C16.7281 21.6193 14.0154 24.022 13.5305 27.1597ZM20.0001 20.3644C21.6516 20.3644 23.0019 19.0142 23.0019 17.3626C23.0019 15.711 21.6516 14.3607 20.0001 14.3607C18.3485 14.3607 16.9982 15.711 16.9982 17.3626C16.9982 19.0142 18.3485 20.3644 20.0001 20.3644ZM38.1855 20.6273H34.5822L35.0841 21.2227C35.3072 21.4875 35.2734 21.8837 35.0085 22.1069C34.7437 22.33 34.3476 22.2962 34.1244 22.0314L32.7532 20.4041C32.5562 20.1706 32.5562 19.8291 32.7532 19.5955L34.1244 17.9682C34.3476 17.7034 34.7437 17.6696 35.0085 17.8927C35.2734 18.116 35.3072 18.5121 35.0841 18.7769L34.5822 19.3724H38.8236C39.1699 19.3724 39.451 19.6535 39.451 19.9998C39.451 29.4479 32.6999 37.3314 23.7628 39.0863C23.423 39.1531 23.093 38.9313 23.0263 38.5916C22.9595 38.2517 23.1812 37.9217 23.521 37.8549C31.6826 36.2524 37.8949 29.1854 38.1855 20.6273ZM19.3726 5.41761V1.17628C19.3726 0.830005 19.6538 0.548828 20.0001 0.548828C29.4481 0.548828 37.3317 7.29997 39.0866 16.2371C39.1533 16.5768 38.9316 16.9069 38.5918 16.9736C38.252 17.0404 37.9219 16.8186 37.8552 16.4789C36.2526 8.31722 29.1856 2.10498 20.6275 1.8144V5.41761L21.223 4.91581C21.4877 4.69267 21.8839 4.72648 22.1071 4.99134C22.3302 5.25612 22.2964 5.65228 22.0317 5.87542L20.4044 7.24671C20.1708 7.44365 19.8293 7.44365 19.5957 7.24671L17.9684 5.87542C17.7037 5.65228 17.6699 5.25612 17.893 4.99134C18.1162 4.72648 18.5124 4.69267 18.7772 4.91581L19.3726 5.41761ZM1.81464 19.3724H5.41786L4.91605 18.7769C4.69292 18.5121 4.72672 18.116 4.99158 17.8927C5.25637 17.6696 5.65252 17.7034 5.87566 17.9682L7.24695 19.5955C7.4439 19.8291 7.4439 20.1706 7.24695 20.4041L5.87566 22.0314C5.65252 22.2962 5.25637 22.33 4.99158 22.1069C4.72672 21.8837 4.69292 21.4875 4.91605 21.2227L5.41786 20.6273H1.17652C0.830249 20.6273 0.549072 20.3461 0.549072 19.9998C0.549072 10.5517 7.30021 2.6682 16.2373 0.913299C16.5771 0.846554 16.9071 1.06828 16.9739 1.40804C17.0406 1.74789 16.8189 2.07793 16.479 2.14467C8.31746 3.74726 2.10523 10.8142 1.81464 19.3724ZM19.3726 38.1852V34.582L18.7772 35.0838C18.5124 35.3069 18.1162 35.2731 17.893 35.0083C17.6699 34.7435 17.7037 34.3473 17.9684 34.1242L19.5957 32.7529C19.8293 32.556 20.1708 32.556 20.4044 32.7529L22.0317 34.1242C22.2964 34.3473 22.3302 34.7435 22.1071 35.0083C21.8839 35.2731 21.4877 35.3069 21.223 35.0838L20.6275 34.582V38.8233C20.6275 39.1696 20.3463 39.4508 20.0001 39.4508C10.552 39.4508 2.66844 32.6997 0.913543 23.7626C0.846798 23.4228 1.06852 23.0928 1.40829 23.026C1.74813 22.9593 2.07817 23.181 2.14492 23.5208C3.7475 31.6824 10.8145 37.8946 19.3726 38.1852Z" fill="url(#paint0_linear_373_834)"/>
</g>
<defs>
<linearGradient id="paint0_linear_373_834" x1="20.0001" y1="0.548828" x2="20.0001" y2="39.4508" gradientUnits="userSpaceOnUse">
<stop stop-color="#FFF422"/>
<stop offset="1" stop-color="#AF99FF"/>
</linearGradient>
<clipPath id="clip0_373_834">
<rect width="40" height="40" fill="white"/>
</clipPath>
</defs>
</svg>
