<svg width="40" height="40" viewBox="0 0 40 40" fill="none" xmlns="http://www.w3.org/2000/svg">
<path d="M4.44844 15.7707C4.29141 15.5645 4.33125 15.2707 4.5375 15.1137L16.9133 5.69336C17.0766 5.56914 17.3016 5.56523 17.4688 5.68398L24.1648 10.4418L32.3195 2.28711H29.5555C29.2969 2.28711 29.0867 2.07695 29.0867 1.81836C29.0867 1.55977 29.2969 1.34961 29.5555 1.34961H33.4508C33.7094 1.34961 33.9195 1.55977 33.9195 1.81836V5.71367C33.9195 5.97227 33.7094 6.18242 33.4508 6.18242C33.1922 6.18242 32.982 5.97227 32.982 5.71367V2.94961L24.5477 11.3848C24.3859 11.5465 24.1312 11.5676 23.9445 11.4355L17.207 6.64805L5.10547 15.8598C5.02109 15.9246 4.92109 15.9559 4.82188 15.9559C4.68047 15.9551 4.54062 15.8918 4.44844 15.7707ZM34.875 31.4871C34.875 33.2574 33.4344 34.698 31.6641 34.698C29.8937 34.698 28.4531 33.2574 28.4531 31.4871C28.4531 29.7168 29.8937 28.2762 31.6641 28.2762C33.4344 28.277 34.875 29.7168 34.875 31.4871ZM33.9375 31.4871C33.9375 30.234 32.918 29.2137 31.6641 29.2137C30.4109 29.2137 29.3906 30.2332 29.3906 31.4871C29.3906 32.741 30.4102 33.7605 31.6641 33.7605C32.9172 33.7605 33.9375 32.741 33.9375 31.4871ZM38.8281 30.7176V32.2574C38.8281 32.7684 38.4125 33.184 37.9016 33.184H36.7992C36.7156 33.4355 36.6133 33.6832 36.4938 33.9199L37.2734 34.6996C37.4484 34.8746 37.5445 35.1066 37.5445 35.3543C37.5445 35.602 37.4484 35.8348 37.2734 36.009L36.1852 37.0973C35.8242 37.4582 35.2367 37.4582 34.8758 37.0973L34.0961 36.3176C33.8586 36.4371 33.6109 36.5402 33.3602 36.623V37.7254C33.3602 38.2363 32.9445 38.652 32.4344 38.652H30.8945C30.3836 38.652 29.9688 38.2363 29.9688 37.7254V36.623C29.7156 36.5395 29.4688 36.4371 29.2328 36.3176L28.4531 37.0973C28.2781 37.2723 28.0461 37.3684 27.7984 37.3684C27.5508 37.3684 27.318 37.2723 27.1437 37.0973L26.0383 35.9918C24.593 37.6215 22.4844 38.6512 20.1391 38.6512C17.7242 38.6512 15.5594 37.559 14.1117 35.8434L12.8578 37.0973C12.4969 37.4582 11.9094 37.4582 11.5477 37.0973L10.768 36.3176C10.5305 36.4371 10.2828 36.5402 10.032 36.623V37.7254C10.032 38.2363 9.61641 38.652 9.10625 38.652H7.56641C7.05547 38.652 6.64062 38.2363 6.64062 37.7254V36.623C6.38828 36.5395 6.14062 36.4371 5.90469 36.3176L5.125 37.0973C4.76406 37.4582 4.17656 37.4582 3.81484 37.0973L2.72656 36.009C2.36563 35.648 2.36563 35.0605 2.72656 34.6996L3.50625 33.9199C3.38672 33.6816 3.28359 33.4348 3.20078 33.184H2.09844C1.5875 33.184 1.17188 32.7684 1.17188 32.2574V30.7176C1.17188 30.2066 1.5875 29.791 2.09844 29.791H3.20078C3.28438 29.5387 3.38672 29.2918 3.50625 29.0551L2.72656 28.2754C2.55156 28.1012 2.45547 27.8684 2.45547 27.6207C2.45547 27.373 2.55156 27.1402 2.72656 26.966L3.81484 25.8777C4.17578 25.5168 4.76328 25.5168 5.12422 25.8777L5.90391 26.6574C6.14297 26.5371 6.38984 26.4348 6.63984 26.352V25.2496V20.4715C6.63984 20.2129 6.85 20.0027 7.10859 20.0027H11.568C11.8266 20.0027 12.0367 20.2129 12.0367 20.4715V25.6215C12.0906 25.6121 12.1461 25.6059 12.2023 25.6059C12.45 25.6059 12.6828 25.702 12.857 25.877L13.4984 26.5184C13.7492 26.1285 14.0328 25.7621 14.3461 25.4223V13.1465C14.3461 12.8879 14.5563 12.6777 14.8148 12.6777H19.2742C19.5328 12.6777 19.743 12.8879 19.743 13.1465V22.8926C19.8734 22.8863 20.0055 22.8824 20.1375 22.8824C20.8859 22.8824 21.6109 22.9871 22.2977 23.1832V16.8074C22.2977 16.5488 22.5078 16.3387 22.7664 16.3387H27.2258C27.4844 16.3387 27.6945 16.5488 27.6945 16.8074V25.6121C27.7281 25.6082 27.7617 25.6059 27.7961 25.6059C28.0438 25.6059 28.2766 25.702 28.4508 25.877L29.2305 26.6566C29.4695 26.5363 29.7164 26.434 29.9664 26.3512V25.2488C29.9664 24.9887 30.075 24.7535 30.2484 24.5848V9.70586C30.2484 9.44727 30.4586 9.23711 30.7172 9.23711H35.1766C35.4352 9.23711 35.6453 9.44727 35.6453 9.70586V25.6152C35.8422 25.6402 36.0328 25.727 36.1836 25.8777L37.2719 26.966C37.4469 27.1402 37.543 27.373 37.543 27.6207C37.543 27.8684 37.4469 28.1012 37.2719 28.2754L36.4922 29.0551C36.6117 29.2934 36.7148 29.5402 36.7977 29.791H37.9C38.4125 29.7918 38.8281 30.2066 38.8281 30.7176ZM31.1875 10.1746V24.3238H32.4336C32.9445 24.3238 33.3594 24.7395 33.3594 25.2496V26.352C33.6109 26.4355 33.8586 26.5379 34.0953 26.6574L34.7094 26.0441V10.1746H31.1875ZM23.2359 23.5168C24.6328 24.116 25.8234 25.1074 26.668 26.352L26.7586 26.2613V17.2762H23.2367V23.5168H23.2359ZM15.2844 13.6152V24.5582C16.2914 23.7691 17.4937 23.2199 18.8062 22.9957V13.6152H15.2844ZM7.57734 20.9402V24.323H9.10547C9.61641 24.323 10.0312 24.7387 10.0312 25.2488V26.3512C10.2828 26.4348 10.5305 26.5371 10.7672 26.6566L11.0992 26.3246V20.9395H7.57734V20.9402ZM13.5445 35.0848C12.7289 33.8434 12.2539 32.3598 12.2539 30.7676C12.2539 29.552 12.5305 28.3996 13.0242 27.3707L12.2023 26.5488L11.425 27.3262C11.1406 27.6098 10.7094 27.6793 10.3516 27.4973C10.1516 27.3965 9.94297 27.3098 9.73125 27.2402C9.35 27.1152 9.09375 26.7613 9.09375 26.3605V25.2613H7.57734V26.3605C7.57734 26.7613 7.32109 27.1152 6.94062 27.2402C6.72891 27.3098 6.52031 27.3965 6.32031 27.4973C5.9625 27.6785 5.53125 27.6098 5.24688 27.3262L4.46953 26.5488L3.39687 27.6215L4.17422 28.3988C4.45781 28.6824 4.52734 29.1137 4.34531 29.4723C4.24453 29.6715 4.15781 29.8809 4.08828 30.0926C3.96328 30.4738 3.60938 30.7301 3.20859 30.7301H2.10938V32.2473H3.20859C3.60938 32.2473 3.96328 32.5035 4.08828 32.8848C4.15781 33.0965 4.24453 33.3051 4.34531 33.5051C4.52656 33.8629 4.45781 34.2949 4.17422 34.5785L3.39687 35.3559L4.46953 36.4285L5.24688 35.6512C5.53047 35.3676 5.9625 35.298 6.32031 35.4801C6.51953 35.5809 6.72812 35.6676 6.94062 35.7371C7.32187 35.8621 7.57734 36.216 7.57734 36.6168V37.716H9.09453V36.6168C9.09453 36.216 9.35078 35.8621 9.73203 35.7371C9.94375 35.6676 10.1523 35.5809 10.3523 35.4801C10.7102 35.2988 11.1422 35.3676 11.4258 35.6512L12.2031 36.4285L13.5445 35.0848ZM27.0859 30.7668C27.0859 26.9363 23.9695 23.8199 20.1391 23.8199C16.3086 23.8199 13.1922 26.9363 13.1922 30.7668C13.1922 34.5973 16.3086 37.7137 20.1391 37.7137C23.9695 37.7137 27.0859 34.5973 27.0859 30.7668ZM37.8906 30.7293H36.7914C36.3906 30.7293 36.0367 30.473 35.9117 30.0926C35.8422 29.8809 35.7555 29.6723 35.6547 29.4723C35.4734 29.1145 35.5422 28.6824 35.8258 28.3988L36.6031 27.6215L35.5305 26.5488L34.7531 27.3262C34.4688 27.6098 34.0375 27.6793 33.6797 27.4973C33.4797 27.3965 33.2711 27.3098 33.0594 27.2402C32.6781 27.1152 32.4219 26.7613 32.4219 26.3605V25.2613H30.9055V26.3605C30.9055 26.7613 30.6492 27.1152 30.2687 27.2402C30.057 27.3098 29.8484 27.3965 29.6484 27.4973C29.2906 27.6785 28.8594 27.6098 28.575 27.3262L27.7977 26.5488L27.1617 27.1848C27.7125 28.2605 28.0234 29.4777 28.0234 30.7676C28.0234 32.4316 27.5047 33.977 26.6211 35.2504L27.7977 36.427L28.575 35.6496C28.8586 35.366 29.2898 35.2965 29.6484 35.4785C29.8477 35.5793 30.0562 35.666 30.2687 35.7355C30.65 35.8605 30.9055 36.2145 30.9055 36.6152V37.7145H32.4219V36.6152C32.4219 36.2145 32.6781 35.8605 33.0594 35.7355C33.2711 35.666 33.4797 35.5793 33.6797 35.4785C34.0383 35.2965 34.4695 35.366 34.7531 35.6496L35.5305 36.427L36.6031 35.3543L35.8258 34.577C35.5422 34.2934 35.4734 33.8621 35.6547 33.5035C35.7562 33.3035 35.8422 33.0949 35.9117 32.8832C36.0367 32.502 36.3906 32.2457 36.7914 32.2457H37.8906V30.7293ZM11.5469 31.4871C11.5469 33.2574 10.1062 34.698 8.33594 34.698C6.56562 34.698 5.125 33.2574 5.125 31.4871C5.125 29.7168 6.56562 28.2762 8.33594 28.2762C10.1062 28.277 11.5469 29.7168 11.5469 31.4871ZM10.6094 31.4871C10.6094 30.234 9.58984 29.2137 8.33594 29.2137C7.08203 29.2137 6.0625 30.2332 6.0625 31.4871C6.0625 32.741 7.08203 33.7605 8.33594 33.7605C9.58984 33.7605 10.6094 32.741 10.6094 31.4871ZM24.007 27.7387C24.6453 28.377 24.6453 29.4168 24.007 30.0551L20.2672 33.7949C19.9477 34.1145 19.5281 34.2738 19.1086 34.2738C18.6891 34.2738 18.2695 34.1145 17.9508 33.7949L16.2703 32.1145C15.632 31.4762 15.632 30.4371 16.2703 29.798C16.5789 29.4895 16.9898 29.3199 17.4289 29.3199C17.868 29.3199 18.2789 29.4895 18.5875 29.798L19.1102 30.3207L21.6922 27.7387C22.3289 27.1004 23.3688 27.1004 24.007 27.7387ZM23.5477 28.8973C23.5477 28.709 23.475 28.5332 23.3438 28.402C23.0703 28.1285 22.6258 28.1285 22.3531 28.402L19.4398 31.3152C19.257 31.498 18.9602 31.498 18.7773 31.3152L17.9234 30.4613C17.7922 30.3301 17.6164 30.2574 17.4281 30.2574C17.2398 30.2574 17.0641 30.3301 16.9328 30.4613C16.6594 30.7348 16.6594 31.1793 16.9328 31.452L18.6133 33.1324C18.8867 33.4051 19.3305 33.4059 19.6039 33.1324L23.3438 29.3926C23.4758 29.2605 23.5477 29.0848 23.5477 28.8973Z" fill="url(#paint0_linear_373_829)"/>
<defs>
<linearGradient id="paint0_linear_373_829" x1="20" y1="1.34961" x2="20" y2="38.652" gradientUnits="userSpaceOnUse">
<stop stop-color="#FFF422"/>
<stop offset="1" stop-color="#AF99FF"/>
</linearGradient>
</defs>
</svg>
