<svg width="40" height="40" viewBox="0 0 40 40" fill="none" xmlns="http://www.w3.org/2000/svg">
<path d="M19.9761 6.42359C12.9825 6.42359 7.2927 12.1134 7.2927 19.107C7.2927 21.3444 7.88341 23.5441 9.00083 25.4684C10.0847 27.3348 11.6379 28.9054 13.4922 30.0103C14.0358 30.3342 14.335 30.8609 14.335 31.4933V34.4145C14.335 35.4654 15.0286 36.3573 15.9819 36.6569V36.711C15.9819 38.4384 17.3872 39.8438 19.1146 39.8438H20.8376C22.565 39.8438 23.9704 38.4385 23.9704 36.711V36.6569C24.9237 36.3573 25.6172 35.4653 25.6172 34.4145V31.4933C25.6172 30.8608 25.9165 30.3341 26.4601 30.0103C28.3145 28.9054 29.8676 27.3348 30.9515 25.4684C32.069 23.5441 32.6597 21.3444 32.6597 19.107C32.6597 12.1133 26.9699 6.42359 19.9761 6.42359ZM20.8377 38.4375H19.1147C18.1807 38.4375 17.418 37.6917 17.3897 36.7644H22.5629C22.5344 37.6917 21.7718 38.4375 20.8377 38.4375ZM23.2673 35.3581H16.6851C16.1647 35.3581 15.7414 34.9348 15.7414 34.4144V33.9142H24.2109V34.4144C24.2109 34.9348 23.7876 35.3581 23.2673 35.3581ZM25.7404 28.8022C24.7685 29.3813 24.211 30.3621 24.211 31.4932V32.5079H15.7414V31.4932C15.7414 30.3621 15.184 29.3813 14.2121 28.8022C10.8115 26.7759 8.69903 23.061 8.69903 19.1069C8.69903 12.8887 13.7579 7.82977 19.9762 7.82977C26.1946 7.82977 31.2536 12.8887 31.2536 19.1069C31.2535 23.061 29.141 26.7759 25.7404 28.8022ZM3.64661 9.58422C3.84067 9.24797 4.27052 9.13266 4.60708 9.32688L7.29778 10.8803C7.63411 11.0745 7.74927 11.5045 7.55513 11.8408C7.42489 12.0663 7.18856 12.1924 6.94552 12.1924C6.8263 12.1924 6.70544 12.162 6.59466 12.0981L3.90396 10.5447C3.56763 10.3505 3.45239 9.92047 3.64661 9.58422ZM4.93052 19.7152H1.82349C1.43513 19.7152 1.12036 19.4004 1.12036 19.012C1.12036 18.6237 1.43513 18.3089 1.82349 18.3089H4.93052C5.31888 18.3089 5.63364 18.6237 5.63364 19.012C5.63364 19.4004 5.31888 19.7152 4.93052 19.7152ZM7.55513 26.1834C7.74927 26.5197 7.63411 26.9497 7.29778 27.1438L4.60708 28.6973C4.49638 28.7612 4.37544 28.7916 4.25622 28.7916C4.01317 28.7916 3.77685 28.6656 3.64661 28.44C3.45247 28.1037 3.56763 27.6737 3.90396 27.4795L6.59466 25.926C6.93114 25.7319 7.36106 25.8471 7.55513 26.1834ZM27.7886 17.1002H27.0336C26.879 16.5545 26.6622 16.0313 26.3852 15.536L26.9193 15.002C27.194 14.7273 27.194 14.2822 26.9194 14.0076L25.0758 12.1638C24.944 12.032 24.7651 11.9579 24.5786 11.9579C24.3922 11.9579 24.2133 12.032 24.0815 12.1638L23.5472 12.698C23.0515 12.4209 22.5285 12.2041 21.983 12.0495V11.2946C21.983 10.9062 21.6683 10.5915 21.2799 10.5915H18.6726C18.2843 10.5915 17.9695 10.9062 17.9695 11.2946V12.0495C17.4238 12.2041 16.9006 12.4209 16.4051 12.698L15.8711 12.1639C15.5964 11.8893 15.1513 11.8893 14.8766 12.1639L13.0329 14.0077C12.7583 14.2823 12.7583 14.7274 13.0329 15.002L13.567 15.5361C13.2897 16.0318 13.0729 16.5549 12.9185 17.1004H12.1638C11.7754 17.1004 11.4607 17.4152 11.4607 17.8035V20.4109C11.4607 20.7993 11.7754 21.1141 12.1638 21.1141H12.9186C13.0731 21.6597 13.2899 22.1828 13.567 22.6784L13.0329 23.2124C12.7583 23.4871 12.7583 23.9323 13.0329 24.2069L14.8766 26.0506C15.0085 26.1825 15.1874 26.2566 15.3738 26.2566C15.5602 26.2566 15.7392 26.1825 15.871 26.0505L16.405 25.5165C16.9008 25.7937 17.424 26.0105 17.9694 26.1649V26.9198C17.9694 27.3081 18.2842 27.6229 18.6725 27.6229H21.2798C21.6682 27.6229 21.9829 27.3081 21.9829 26.9198V26.1648C22.5285 26.0103 23.0517 25.7935 23.5472 25.5164L24.0815 26.0505C24.3561 26.3251 24.8011 26.3252 25.0758 26.0505L26.9194 24.2068C27.194 23.9323 27.194 23.4871 26.9194 23.2124L26.3853 22.6783C26.6624 22.1826 26.8792 21.6595 27.0337 21.1141H27.7886C28.177 21.1141 28.4918 20.7993 28.4918 20.4109V17.8035C28.4918 17.4151 28.177 17.1002 27.7886 17.1002ZM27.0855 19.7077H26.4804C26.145 19.7077 25.8564 19.9445 25.7908 20.2733C25.6393 21.0334 25.3436 21.7468 24.9119 22.3938C24.7258 22.6726 24.7625 23.0441 24.9996 23.2811L25.4279 23.7095L24.5786 24.5588L24.1502 24.1305C23.9131 23.8934 23.5415 23.8566 23.2628 24.0429C22.6162 24.4744 21.9028 24.7702 21.1424 24.9217C20.8136 24.9873 20.5768 25.2759 20.5768 25.6112V26.2164H19.3758V25.6112C19.3758 25.2759 19.1389 24.9872 18.81 24.9217C18.0499 24.7703 17.3365 24.4746 16.6896 24.0429C16.4108 23.8566 16.0392 23.8934 15.8021 24.1305L15.3739 24.5588L14.5245 23.7095L14.9528 23.2811C15.1898 23.044 15.2265 22.6725 15.0404 22.3937C14.6089 21.7472 14.3131 21.0338 14.1615 20.2733C14.096 19.9445 13.8073 19.7077 13.472 19.7077H12.867V18.5065H13.472C13.8074 18.5065 14.0961 18.2696 14.1615 17.9407C14.3129 17.1807 14.6086 16.4673 15.0404 15.8205C15.2265 15.5416 15.1898 15.1701 14.9528 14.933L14.5245 14.5047L15.3739 13.6553L15.8021 14.0836C16.0393 14.3207 16.4107 14.3573 16.6896 14.1712C17.336 13.7398 18.0494 13.4441 18.8102 13.2923C19.139 13.2267 19.3758 12.9381 19.3758 12.6028V11.9977H20.5768V12.6028C20.5768 12.9381 20.8136 13.2268 21.1424 13.2923C21.9025 13.4438 22.6159 13.7396 23.2628 14.1712C23.5418 14.3574 23.9132 14.3207 24.1502 14.0836L24.5786 13.6552L25.4279 14.5046L24.9995 14.933C24.7623 15.1702 24.7257 15.5417 24.9119 15.8206C25.3433 16.4666 25.639 17.18 25.7908 17.9409C25.8565 18.2697 26.1451 18.5065 26.4804 18.5065H27.0855V19.7077ZM19.976 14.3415C17.3483 14.3415 15.2105 16.4794 15.2105 19.1071C15.2105 21.7348 17.3483 23.8727 19.976 23.8727C22.6038 23.8727 24.7416 21.7348 24.7416 19.1071C24.7416 16.4794 22.6038 14.3415 19.976 14.3415ZM19.976 22.4664C18.1237 22.4664 16.6168 20.9595 16.6168 19.1071C16.6168 17.2548 18.1237 15.7477 19.976 15.7477C21.8283 15.7477 23.3354 17.2548 23.3354 19.1071C23.3354 20.9595 21.8283 22.4664 19.976 22.4664ZM32.3974 11.8408C32.2033 11.5045 32.3184 11.0745 32.6547 10.8803L35.3453 9.32688C35.6817 9.13266 36.1117 9.24805 36.3058 9.58422C36.4999 9.92055 36.3847 10.3505 36.0484 10.5447L33.3579 12.0981C33.2472 12.162 33.1262 12.1925 33.007 12.1925C32.7639 12.1924 32.5276 12.0663 32.3974 11.8408ZM38.8795 19.0248C38.8795 19.4132 38.5647 19.728 38.1764 19.728H35.0693C34.681 19.728 34.3662 19.4132 34.3662 19.0248C34.3662 18.6365 34.681 18.3217 35.0693 18.3217H38.1764C38.5647 18.3217 38.8795 18.6365 38.8795 19.0248ZM36.3058 28.44C36.1755 28.6656 35.9392 28.7916 35.6961 28.7916C35.5769 28.7916 35.456 28.7612 35.3453 28.6973L32.6547 27.1438C32.3184 26.9497 32.2033 26.5197 32.3974 26.1834C32.5915 25.847 33.0215 25.7318 33.3579 25.926L36.0484 27.4795C36.3847 27.6737 36.4999 28.1038 36.3058 28.44ZM19.273 3.96633V0.859375C19.273 0.471016 19.5878 0.15625 19.9761 0.15625C20.3645 0.15625 20.6793 0.471016 20.6793 0.859375V3.96633C20.6793 4.35469 20.3645 4.66945 19.9761 4.66945C19.5878 4.66945 19.273 4.35461 19.273 3.96633ZM10.2909 3.64297C10.0968 3.30664 10.2119 2.87664 10.5483 2.6825C10.8844 2.48828 11.3145 2.60359 11.5087 2.93977L13.0624 5.63039C13.2565 5.96672 13.1414 6.39672 12.805 6.59086C12.6943 6.65477 12.5734 6.68523 12.4542 6.68523C12.2112 6.68523 11.9748 6.55914 11.8446 6.33359L10.2909 3.64297ZM26.8903 5.63055L28.4436 2.93992C28.6378 2.60367 29.0675 2.48836 29.4041 2.6825C29.7404 2.87664 29.8556 3.30664 29.6615 3.64297L28.1081 6.33359C27.9779 6.55914 27.7415 6.68531 27.4985 6.68531C27.3793 6.68531 27.2584 6.65492 27.1476 6.59102C26.8114 6.3968 26.6961 5.9668 26.8903 5.63055Z" fill="url(#paint0_linear_373_805)"/>
<defs>
<linearGradient id="paint0_linear_373_805" x1="19.9999" y1="0.15625" x2="19.9999" y2="39.8438" gradientUnits="userSpaceOnUse">
<stop stop-color="#FFF422"/>
<stop offset="1" stop-color="#AF99FF"/>
</linearGradient>
</defs>
</svg>
