<svg width="40" height="40" viewBox="0 0 40 40" fill="none" xmlns="http://www.w3.org/2000/svg">
<path d="M18.6846 36.0325C18.3626 36.0325 18.1013 35.7713 18.1013 35.4493V10.5032C18.1013 10.1812 18.3626 9.91992 18.6846 9.91992C19.0066 9.91992 19.2678 10.1812 19.2678 10.5032V35.4493C19.2678 35.7713 19.0066 36.0325 18.6846 36.0325Z" fill="url(#paint0_linear_373_841)"/>
<path d="M21.3152 36.0325C20.9932 36.0325 20.7319 35.7713 20.7319 35.4493V10.5032C20.7319 10.1812 20.9932 9.91992 21.3152 9.91992C21.6372 9.91992 21.8984 10.1812 21.8984 10.5032V35.4493C21.8984 35.7713 21.6374 36.0325 21.3152 36.0325Z" fill="url(#paint1_linear_373_841)"/>
<path d="M21.315 7.05782C20.993 7.05782 20.7318 6.79657 20.7318 6.47457V3.2344C20.7318 2.83075 20.4034 2.50243 19.9998 2.50243C19.5961 2.50243 19.2678 2.83075 19.2678 3.2344V6.47457C19.2678 6.79657 19.0066 7.05782 18.6846 7.05782C18.3626 7.05782 18.1013 6.79657 18.1013 6.47457V3.2344C18.1013 2.18748 18.9529 1.33594 19.9998 1.33594C21.0467 1.33594 21.8982 2.18748 21.8982 3.2344V6.47457C21.8982 6.79682 21.6372 7.05782 21.315 7.05782Z" fill="url(#paint2_linear_373_841)"/>
<path d="M35.0998 10.1942H22.1316C21.8096 10.1942 21.5483 9.93298 21.5483 9.61098C21.5483 9.28898 21.8096 9.02773 22.1316 9.02773H35.0998C35.3965 9.02773 35.6378 8.78642 35.6378 8.48969C35.6378 8.19296 35.3965 7.95165 35.0998 7.95165H22.1316C21.8096 7.95165 21.5483 7.6904 21.5483 7.3684C21.5483 7.0464 21.8096 6.78516 22.1316 6.78516H35.0998C36.0396 6.78516 36.8043 7.54969 36.8043 8.48969C36.8043 9.42969 36.0398 10.1942 35.0998 10.1942Z" fill="url(#paint3_linear_373_841)"/>
<path d="M17.8678 10.1942H4.8996C3.95961 10.1942 3.19507 9.42969 3.19507 8.48969C3.19507 7.54969 3.95961 6.78516 4.8996 6.78516H17.8678C18.1898 6.78516 18.4511 7.0464 18.4511 7.3684C18.4511 7.6904 18.1898 7.95165 17.8678 7.95165H4.8996C4.60288 7.95165 4.36156 8.19296 4.36156 8.48969C4.36156 8.78642 4.60288 9.02773 4.8996 9.02773H17.8678C18.1898 9.02773 18.4511 9.28898 18.4511 9.61098C18.4511 9.93298 18.1898 10.1942 17.8678 10.1942Z" fill="url(#paint4_linear_373_841)"/>
<path d="M19.9957 11.4783C18.3476 11.4783 17.0066 10.1373 17.0066 8.48913C17.0066 6.84098 18.3476 5.5 19.9957 5.5C21.6439 5.5 22.9849 6.84098 22.9849 8.48913C22.9849 10.1373 21.6439 11.4783 19.9957 11.4783ZM19.9957 6.66649C18.9906 6.66649 18.1731 7.48425 18.1731 8.48913C18.1731 9.49401 18.9908 10.3118 19.9957 10.3118C21.0006 10.3118 21.8184 9.49401 21.8184 8.48913C21.8184 7.48425 21.0009 6.66649 19.9957 6.66649Z" fill="url(#paint5_linear_373_841)"/>
<path d="M7.08931 31.6384C5.57531 31.6384 4.1517 31.0488 3.0812 29.9781C2.01046 28.9076 1.4209 27.484 1.4209 25.97C1.4209 25.648 1.68214 25.3867 2.00414 25.3867H12.1745C12.4965 25.3867 12.7577 25.648 12.7577 25.97C12.7577 27.484 12.1682 28.9076 11.0974 29.9781C10.0269 31.0488 8.60332 31.6384 7.08931 31.6384ZM2.62481 26.5532C2.91158 28.761 4.80445 30.4719 7.08907 30.4719C9.37369 30.4719 11.2666 28.761 11.5533 26.5532H2.62481Z" fill="url(#paint6_linear_373_841)"/>
<path d="M2.0041 26.5536C1.9295 26.5536 1.85392 26.5393 1.78077 26.5089C1.48332 26.3854 1.34212 26.044 1.46557 25.7465L6.08002 14.6294C6.20347 14.3319 6.54467 14.1908 6.84237 14.3142C7.13982 14.4377 7.28102 14.7791 7.15756 15.0766L2.54312 26.1937C2.4498 26.4183 2.23279 26.5536 2.0041 26.5536Z" fill="url(#paint7_linear_373_841)"/>
<path d="M12.1762 26.5536C11.9475 26.5536 11.7305 26.4183 11.6372 26.194L7.02274 15.0766C6.89928 14.7791 7.04023 14.4377 7.33793 14.3142C7.63539 14.1908 7.97683 14.3317 8.10028 14.6294L12.7147 25.7466C12.8382 26.044 12.6972 26.3855 12.3995 26.5089C12.3264 26.5393 12.2506 26.5536 12.1762 26.5536Z" fill="url(#paint8_linear_373_841)"/>
<path d="M32.9011 31.6403C31.3871 31.6403 29.9635 31.0508 28.893 29.98C27.8225 28.9093 27.2327 27.4859 27.2327 25.9719C27.2327 25.6499 27.4939 25.3887 27.8159 25.3887H37.9863C38.3083 25.3887 38.5695 25.6499 38.5695 25.9719C38.5695 27.4859 37.9799 28.9095 36.9092 29.98C35.8387 31.0508 34.4151 31.6403 32.9011 31.6403ZM28.4368 26.5552C28.7236 28.763 30.6165 30.4738 32.9011 30.4738C35.1859 30.4738 37.0786 28.763 37.3653 26.5552H28.4368Z" fill="url(#paint9_linear_373_841)"/>
<path d="M27.8159 26.5553C27.7413 26.5553 27.6657 26.5409 27.5925 26.5106C27.2951 26.3871 27.1539 26.0459 27.2773 25.7482L31.8947 14.6235C32.0182 14.3261 32.3596 14.1849 32.6571 14.3083C32.9545 14.4318 33.0957 14.773 32.9722 15.0707L28.3549 26.1954C28.2616 26.4199 28.0446 26.5553 27.8159 26.5553Z" fill="url(#paint10_linear_373_841)"/>
<path d="M37.9909 26.5553C37.7622 26.5553 37.5452 26.42 37.4519 26.1954L32.8345 15.0707C32.7111 14.7733 32.852 14.4318 33.1497 14.3084C33.4472 14.1849 33.7886 14.3259 33.9121 14.6236L38.5294 25.7483C38.6529 26.0457 38.5119 26.3871 38.2142 26.5106C38.1411 26.541 38.0652 26.5553 37.9909 26.5553Z" fill="url(#paint11_linear_373_841)"/>
<path d="M26.1925 38.6641H13.7986C13.4766 38.6641 13.2153 38.4029 13.2153 38.0809C13.2153 36.3088 14.6569 34.8672 16.429 34.8672H23.5621C25.3342 34.8672 26.7758 36.3088 26.7758 38.0809C26.7758 38.4029 26.5148 38.6641 26.1925 38.6641ZM14.4664 37.4976H25.5247C25.273 36.6519 24.4885 36.0337 23.5621 36.0337H16.429C15.5026 36.0337 14.7182 36.6519 14.4664 37.4976Z" fill="url(#paint12_linear_373_841)"/>
<path d="M7.09716 15.5391C6.1924 15.5391 5.45654 14.8029 5.45654 13.8984C5.45654 12.9939 6.19265 12.2578 7.09716 12.2578C8.00168 12.2578 8.73778 12.9939 8.73778 13.8984C8.73778 14.8029 8.00168 15.5391 7.09716 15.5391ZM7.09716 13.4243C6.83567 13.4243 6.62303 13.6369 6.62303 13.8984C6.62303 14.1599 6.83567 14.3726 7.09716 14.3726C7.35865 14.3726 7.57129 14.1599 7.57129 13.8984C7.57129 13.6369 7.35841 13.4243 7.09716 13.4243Z" fill="url(#paint13_linear_373_841)"/>
<path d="M7.09716 15.5391C6.1924 15.5391 5.45654 14.8029 5.45654 13.8984C5.45654 12.9939 6.19265 12.2578 7.09716 12.2578C8.00168 12.2578 8.73778 12.9939 8.73778 13.8984C8.73778 14.8029 8.00168 15.5391 7.09716 15.5391ZM7.09716 13.4243C6.83567 13.4243 6.62303 13.6369 6.62303 13.8984C6.62303 14.1599 6.83567 14.3726 7.09716 14.3726C7.35865 14.3726 7.57129 14.1599 7.57129 13.8984C7.57129 13.6369 7.35841 13.4243 7.09716 13.4243Z" fill="url(#paint14_linear_373_841)"/>
<path d="M32.9004 15.5391C31.9956 15.5391 31.2598 14.8029 31.2598 13.8984C31.2598 12.9939 31.9959 12.2578 32.9004 12.2578C33.8049 12.2578 34.541 12.9939 34.541 13.8984C34.541 14.8029 33.8051 15.5391 32.9004 15.5391ZM32.9004 13.4243C32.6389 13.4243 32.4263 13.6369 32.4263 13.8984C32.4263 14.1599 32.6389 14.3726 32.9004 14.3726C33.1619 14.3726 33.3745 14.1599 33.3745 13.8984C33.3745 13.6369 33.1619 13.4243 32.9004 13.4243Z" fill="url(#paint15_linear_373_841)"/>
<path d="M7.09228 13.4233C6.77028 13.4233 6.50903 13.1621 6.50903 12.8401V9.61059C6.50903 9.28859 6.77028 9.02734 7.09228 9.02734C7.41428 9.02734 7.67552 9.28859 7.67552 9.61059V12.8398C7.67552 13.1621 7.41428 13.4233 7.09228 13.4233Z" fill="url(#paint16_linear_373_841)"/>
<path d="M32.9014 13.4233C32.5794 13.4233 32.3181 13.1621 32.3181 12.8401V9.61059C32.3181 9.28859 32.5794 9.02734 32.9014 9.02734C33.2234 9.02734 33.4846 9.28859 33.4846 9.61059V12.8398C33.4846 13.1621 33.2236 13.4233 32.9014 13.4233Z" fill="url(#paint17_linear_373_841)"/>
<defs>
<linearGradient id="paint0_linear_373_841" x1="18.6846" y1="9.91992" x2="18.6846" y2="36.0325" gradientUnits="userSpaceOnUse">
<stop stop-color="#FFF422"/>
<stop offset="1" stop-color="#AF99FF"/>
</linearGradient>
<linearGradient id="paint1_linear_373_841" x1="21.3152" y1="9.91992" x2="21.3152" y2="36.0325" gradientUnits="userSpaceOnUse">
<stop stop-color="#FFF422"/>
<stop offset="1" stop-color="#AF99FF"/>
</linearGradient>
<linearGradient id="paint2_linear_373_841" x1="19.9998" y1="1.33594" x2="19.9998" y2="7.05782" gradientUnits="userSpaceOnUse">
<stop stop-color="#FFF422"/>
<stop offset="1" stop-color="#AF99FF"/>
</linearGradient>
<linearGradient id="paint3_linear_373_841" x1="29.1763" y1="6.78516" x2="29.1763" y2="10.1942" gradientUnits="userSpaceOnUse">
<stop stop-color="#FFF422"/>
<stop offset="1" stop-color="#AF99FF"/>
</linearGradient>
<linearGradient id="paint4_linear_373_841" x1="10.8231" y1="6.78516" x2="10.8231" y2="10.1942" gradientUnits="userSpaceOnUse">
<stop stop-color="#FFF422"/>
<stop offset="1" stop-color="#AF99FF"/>
</linearGradient>
<linearGradient id="paint5_linear_373_841" x1="19.9957" y1="5.5" x2="19.9957" y2="11.4783" gradientUnits="userSpaceOnUse">
<stop stop-color="#FFF422"/>
<stop offset="1" stop-color="#AF99FF"/>
</linearGradient>
<linearGradient id="paint6_linear_373_841" x1="7.08931" y1="25.3867" x2="7.08931" y2="31.6384" gradientUnits="userSpaceOnUse">
<stop stop-color="#FFF422"/>
<stop offset="1" stop-color="#AF99FF"/>
</linearGradient>
<linearGradient id="paint7_linear_373_841" x1="4.31157" y1="14.2695" x2="4.31157" y2="26.5536" gradientUnits="userSpaceOnUse">
<stop stop-color="#FFF422"/>
<stop offset="1" stop-color="#AF99FF"/>
</linearGradient>
<linearGradient id="paint8_linear_373_841" x1="9.86873" y1="14.2695" x2="9.86873" y2="26.5536" gradientUnits="userSpaceOnUse">
<stop stop-color="#FFF422"/>
<stop offset="1" stop-color="#AF99FF"/>
</linearGradient>
<linearGradient id="paint9_linear_373_841" x1="32.9011" y1="25.3887" x2="32.9011" y2="31.6403" gradientUnits="userSpaceOnUse">
<stop stop-color="#FFF422"/>
<stop offset="1" stop-color="#AF99FF"/>
</linearGradient>
<linearGradient id="paint10_linear_373_841" x1="30.1248" y1="14.2637" x2="30.1248" y2="26.5553" gradientUnits="userSpaceOnUse">
<stop stop-color="#FFF422"/>
<stop offset="1" stop-color="#AF99FF"/>
</linearGradient>
<linearGradient id="paint11_linear_373_841" x1="35.682" y1="14.2637" x2="35.682" y2="26.5553" gradientUnits="userSpaceOnUse">
<stop stop-color="#FFF422"/>
<stop offset="1" stop-color="#AF99FF"/>
</linearGradient>
<linearGradient id="paint12_linear_373_841" x1="19.9956" y1="34.8672" x2="19.9956" y2="38.6641" gradientUnits="userSpaceOnUse">
<stop stop-color="#FFF422"/>
<stop offset="1" stop-color="#AF99FF"/>
</linearGradient>
<linearGradient id="paint13_linear_373_841" x1="7.09716" y1="12.2578" x2="7.09716" y2="15.5391" gradientUnits="userSpaceOnUse">
<stop stop-color="#FFF422"/>
<stop offset="1" stop-color="#AF99FF"/>
</linearGradient>
<linearGradient id="paint14_linear_373_841" x1="7.09716" y1="12.2578" x2="7.09716" y2="15.5391" gradientUnits="userSpaceOnUse">
<stop stop-color="#FFF422"/>
<stop offset="1" stop-color="#AF99FF"/>
</linearGradient>
<linearGradient id="paint15_linear_373_841" x1="32.9004" y1="12.2578" x2="32.9004" y2="15.5391" gradientUnits="userSpaceOnUse">
<stop stop-color="#FFF422"/>
<stop offset="1" stop-color="#AF99FF"/>
</linearGradient>
<linearGradient id="paint16_linear_373_841" x1="7.09228" y1="9.02734" x2="7.09228" y2="13.4233" gradientUnits="userSpaceOnUse">
<stop stop-color="#FFF422"/>
<stop offset="1" stop-color="#AF99FF"/>
</linearGradient>
<linearGradient id="paint17_linear_373_841" x1="32.9014" y1="9.02734" x2="32.9014" y2="13.4233" gradientUnits="userSpaceOnUse">
<stop stop-color="#FFF422"/>
<stop offset="1" stop-color="#AF99FF"/>
</linearGradient>
</defs>
</svg>
