<svg width="664" height="360" viewBox="0 0 664 360" fill="none" xmlns="http://www.w3.org/2000/svg">
<foreignObject x="-24" y="-24" width="712" height="408"><div xmlns="http://www.w3.org/1999/xhtml" style="backdrop-filter:blur(12px);clip-path:url(#bgblur_0_9_5357_clip_path);height:100%;width:100%"></div></foreignObject><path data-figma-bg-blur-radius="24" d="M0 12C0 5.37259 5.37258 0 12 0H652C658.627 0 664 5.37258 664 12V348C664 354.627 658.627 360 652 360H12C5.3726 360 0 354.627 0 348V12Z" fill="url(#paint0_linear_9_5357)" fill-opacity="0.12"/>
<defs>
<clipPath id="bgblur_0_9_5357_clip_path" transform="translate(24 24)"><path d="M0 12C0 5.37259 5.37258 0 12 0H652C658.627 0 664 5.37258 664 12V348C664 354.627 658.627 360 652 360H12C5.3726 360 0 354.627 0 348V12Z"/>
</clipPath><linearGradient id="paint0_linear_9_5357" x1="332" y1="0" x2="332" y2="360" gradientUnits="userSpaceOnUse">
<stop stop-color="white"/>
<stop offset="1" stop-color="#AF99FF"/>
</linearGradient>
</defs>
</svg>
