<svg width="132" height="56" viewBox="0 0 132 56" fill="none" xmlns="http://www.w3.org/2000/svg">
<path d="M11.4445 0.648438H39.7053C58.4438 0.648438 67.4286 12.3046 67.4286 24.6595C67.4286 45.1765 52.2215 55.3558 32.0269 55.3558H0L11.4445 0.648438ZM25.495 41.5998H31.4077C40.0081 41.5998 43.4646 32.8181 43.4646 24.4254C43.4646 17.7436 41.6989 14.401 35.4017 14.401H31.1015L25.495 41.5998Z" fill="white"/>
<path d="M132 24.1359C132 41.9746 120.396 55.5 97.3331 55.5C76.1077 55.5 69.1301 44.1296 69.1301 32.2359C69.1301 16.7793 78.7511 0.5 103.137 0.5C124.066 0.503442 132 12.3937 132 24.1359ZM91.9715 33.279C91.9715 37.8127 93.22 42.1984 98.2142 42.1984C106.808 42.1984 109.305 28.5973 109.305 21.4645C109.305 16.559 107.543 13.213 102.841 13.213C94.836 13.213 91.9715 26.6661 91.9715 33.279Z" fill="white"/>
</svg>
