<svg width="1384" height="400" viewBox="0 0 1384 400" fill="none" xmlns="http://www.w3.org/2000/svg">
<mask id="mask0_9_5363" style="mask-type:alpha" maskUnits="userSpaceOnUse" x="0" y="0" width="1384" height="400">
<rect width="1384" height="400" fill="#E8E0FF"/>
</mask>
<g mask="url(#mask0_9_5363)">
<circle cx="692" cy="-292" r="691.5" transform="rotate(180 692 -292)" stroke="url(#paint0_linear_9_5363)"/>
<circle cx="692" cy="-292" r="627.5" transform="rotate(180 692 -292)" stroke="url(#paint1_linear_9_5363)"/>
<circle cx="692" cy="-292" r="563.5" transform="rotate(180 692 -292)" stroke="url(#paint2_linear_9_5363)"/>
<circle cx="692" cy="-292" r="499.5" transform="rotate(180 692 -292)" stroke="url(#paint3_linear_9_5363)"/>
</g>
<foreignObject x="129" y="17" width="104" height="104"><div xmlns="http://www.w3.org/1999/xhtml" style="backdrop-filter:blur(12px);clip-path:url(#bgblur_0_9_5363_clip_path);height:100%;width:100%"></div></foreignObject><g data-figma-bg-blur-radius="24">
<rect x="153" y="41" width="56" height="56" rx="16" fill="url(#paint4_linear_9_5363)" fill-opacity="0.12"/>
<path d="M175.815 84.5554C178.677 84.5554 181 82.2325 181 79.3702V74.1851H175.815C172.952 74.1851 170.629 76.508 170.629 79.3702C170.629 82.2325 172.952 84.5554 175.815 84.5554Z" fill="#0ACF83"/>
<path d="M170.629 68.9996C170.629 66.1374 172.952 63.8145 175.815 63.8145H181V74.1848H175.815C172.952 74.1848 170.629 71.8618 170.629 68.9996Z" fill="#A259FF"/>
<path d="M170.629 58.6295C170.629 55.7673 172.952 53.4443 175.815 53.4443H181V63.8147H175.815C172.952 63.8147 170.629 61.4917 170.629 58.6295Z" fill="#F24E1E"/>
<path d="M181 53.4443H186.185C189.047 53.4443 191.37 55.7673 191.37 58.6295C191.37 61.4917 189.047 63.8147 186.185 63.8147H181V53.4443Z" fill="#FF7262"/>
<path d="M191.37 68.9996C191.37 71.8618 189.047 74.1848 186.185 74.1848C183.323 74.1848 181 71.8618 181 68.9996C181 66.1374 183.323 63.8145 186.185 63.8145C189.047 63.8145 191.37 66.1374 191.37 68.9996Z" fill="#1ABCFE"/>
</g>
<foreignObject x="439" y="106" width="104" height="104"><div xmlns="http://www.w3.org/1999/xhtml" style="backdrop-filter:blur(12px);clip-path:url(#bgblur_1_9_5363_clip_path);height:100%;width:100%"></div></foreignObject><g data-figma-bg-blur-radius="24">
<rect x="463" y="130" width="56" height="56" rx="16" fill="url(#paint5_linear_9_5363)" fill-opacity="0.12"/>
<path d="M476.741 144.13H505.259V171.871H476.741V144.13Z" fill="url(#paint6_radial_9_5363)"/>
<path d="M476.741 144.13H505.259V171.871H476.741V144.13ZM475.444 173.167H506.555V142.833H475.444V173.167ZM497.455 157.456C498.116 157.456 498.35 157.456 498.415 157.43C498.415 157.339 498.441 157.274 498.441 157.209C498.441 156.509 498.104 155.213 496.755 155.213C495.511 155.213 494.98 156.302 494.85 157.456H497.455ZM494.824 159.232C494.85 160.982 495.68 162.161 497.65 162.161C498.415 162.161 499.076 162.058 499.763 161.759C499.854 161.721 499.918 161.734 499.918 161.85V163.471C499.918 163.6 499.88 163.665 499.789 163.73C499.102 164.067 498.246 164.222 497.183 164.222C493.761 164.222 492.478 161.695 492.478 158.882C492.478 155.822 494.059 153.321 496.846 153.321C499.672 153.321 500.657 155.693 500.657 157.624C500.657 158.247 500.619 158.752 500.554 158.998C500.528 159.102 500.489 159.141 500.385 159.167C500.126 159.206 499.361 159.258 498.22 159.258H494.824V159.232ZM487.876 157.909C487.513 156.471 486.631 153.333 486.307 151.817H486.281C486.009 153.333 485.296 155.9 484.765 157.909H487.876ZM484.233 160.009L483.209 163.885C483.183 163.989 483.144 164.028 483.015 164.028H481.109C480.98 164.028 480.954 163.989 480.98 163.834L484.661 150.961C484.726 150.728 484.765 150.546 484.791 149.898C484.791 149.808 484.829 149.769 484.894 149.769H487.616C487.707 149.769 487.746 149.795 487.772 149.898L491.894 163.859C491.92 163.963 491.894 164.028 491.791 164.028H489.652C489.548 164.028 489.483 163.989 489.457 163.898L488.394 160.01H484.233V160.009Z" fill="#D8A1FF"/>
</g>
<foreignObject x="640" y="157" width="104" height="104"><div xmlns="http://www.w3.org/1999/xhtml" style="backdrop-filter:blur(12px);clip-path:url(#bgblur_2_9_5363_clip_path);height:100%;width:100%"></div></foreignObject><g data-figma-bg-blur-radius="24">
<rect x="664" y="181" width="56" height="56" rx="16" fill="url(#paint7_linear_9_5363)" fill-opacity="0.12"/>
<path d="M677.741 195.13H706.259V222.871H677.741V195.13Z" fill="url(#paint8_radial_9_5363)"/>
<path d="M677.741 195.13H706.259V222.871H677.741V195.13ZM676.444 224.167H707.556V193.833H676.444V224.167ZM696.122 206.433C695.928 206.343 695.668 206.304 695.357 206.304C693.685 206.304 692.518 207.587 692.518 209.726C692.518 212.163 693.711 213.148 695.202 213.148C695.526 213.148 695.863 213.109 696.122 212.993V206.433ZM695.435 204.321C695.707 204.321 695.863 204.321 696.122 204.346V200.898C696.122 200.808 696.187 200.769 696.252 200.769H698.352C698.455 200.769 698.481 200.808 698.481 200.872V212.993C698.481 213.356 698.481 213.809 698.546 214.302C698.546 214.393 698.52 214.406 698.429 214.458C697.315 214.989 696.135 215.222 695.033 215.222C692.168 215.222 690.12 213.447 690.12 209.83C690.107 206.732 692.155 204.321 695.435 204.321ZM687.826 214.859C687.826 214.989 687.8 215.028 687.657 215.028H685.661C685.531 215.028 685.492 214.963 685.492 214.859V200.937C685.492 200.808 685.557 200.769 685.661 200.769H687.67C687.774 200.769 687.826 200.808 687.826 200.924V214.859Z" fill="#FF408C"/>
</g>
<foreignObject x="849" y="106" width="104" height="104"><div xmlns="http://www.w3.org/1999/xhtml" style="backdrop-filter:blur(12px);clip-path:url(#bgblur_3_9_5363_clip_path);height:100%;width:100%"></div></foreignObject><g data-figma-bg-blur-radius="24">
<rect x="873" y="130" width="56" height="56" rx="16" fill="url(#paint9_linear_9_5363)" fill-opacity="0.12"/>
<path d="M885.444 142.769H916.555V173.232H885.444V142.769Z" fill="url(#paint10_linear_9_5363)"/>
<path d="M896.793 158.277H899.551L898.172 152.929L896.793 158.277ZM887.798 145.154V170.861H914.241V145.154H887.798ZM901.064 164.14L900.055 160.665H896.322L895.313 164.14H892.758L896.356 151.853V150.508H899.786L903.889 164.14H901.064ZM907.858 164.14H905.1V153.77H907.858V164.14ZM906.496 152.526C905.706 152.526 905.066 151.893 905.066 151.113C905.066 150.333 905.706 149.701 906.496 149.701C907.285 149.701 907.925 150.333 907.925 151.113C907.925 151.893 907.285 152.526 906.496 152.526Z" fill="url(#paint11_linear_9_5363)"/>
</g>
<foreignObject x="993" y="2" width="104" height="104"><div xmlns="http://www.w3.org/1999/xhtml" style="backdrop-filter:blur(12px);clip-path:url(#bgblur_4_9_5363_clip_path);height:100%;width:100%"></div></foreignObject><g data-figma-bg-blur-radius="24">
<rect x="1017" y="26" width="56" height="56" rx="16" fill="url(#paint12_linear_9_5363)" fill-opacity="0.12"/>
<path d="M1029.44 38.7036H1060.56V69.2962H1029.44V38.7036Z" fill="url(#paint13_linear_9_5363)"/>
<path d="M1031.92 41.1367H1058.08V66.8637H1031.92V41.1367Z" fill="url(#paint14_linear_9_5363)"/>
<path d="M1036.96 47.3262C1036.96 47.3262 1038.93 47.2744 1040.55 47.2744C1042.19 47.2744 1043.35 47.6594 1044.13 48.3358C1044.88 48.9751 1045.39 50.0648 1045.39 51.3053C1045.39 52.5458 1045.01 53.5608 1044.31 54.2745C1043.4 55.1955 1042.35 55.7407 1040.55 55.8161C1040.05 55.8369 1039.59 55.8419 1039.59 55.8419V59.8743H1036.96L1036.96 47.3262ZM1039.59 53.6078C1039.88 53.6356 1040.06 53.6222 1040.48 53.6171C1041.89 53.6002 1042.76 52.7427 1042.76 51.4459C1042.76 50.2809 1042.04 49.3243 1040.69 49.2748C1040.15 49.2551 1039.59 49.2748 1039.59 49.2748V53.6078Z" fill="url(#paint15_linear_9_5363)"/>
<path d="M1046.39 57.0651C1046.92 57.3902 1048.17 57.8771 1049.02 57.8771C1049.89 57.8771 1050.25 57.5702 1050.25 57.0919C1050.25 56.6128 1049.97 56.1097 1048.89 55.7459C1046.98 55.0947 1046.24 54.3153 1046.26 53.2243C1046.26 51.4623 1047.74 50.1411 1050.03 50.1411C1051.11 50.1411 1051.97 50.4939 1052.54 50.781V52.8957C1052.12 52.6657 1050.92 52.1521 1050.12 52.1521C1049.42 52.1521 1049.02 52.4394 1049.02 52.9177C1049.02 53.3582 1049.38 53.588 1050.52 53.9904C1052.28 54.6031 1053.02 55.5028 1053.04 56.8815C1053.04 58.6243 1051.69 60.0101 1049.02 59.926C1048.11 59.8971 1047.09 59.5349 1046.39 59.1524L1046.39 57.0651Z" fill="url(#paint16_linear_9_5363)"/>
</g>
<foreignObject x="262" y="-5" width="104" height="104"><div xmlns="http://www.w3.org/1999/xhtml" style="backdrop-filter:blur(12px);clip-path:url(#bgblur_5_9_5363_clip_path);height:100%;width:100%"></div></foreignObject><g data-figma-bg-blur-radius="24">
<rect x="286" y="19" width="56" height="56" rx="16" fill="url(#paint17_linear_9_5363)" fill-opacity="0.12"/>
<path d="M299.741 33.1299H328.259V60.8707H299.741V33.1299Z" fill="url(#paint18_radial_9_5363)"/>
<path d="M299.741 33.1298H328.259V60.8706H299.741V33.1298ZM298.444 62.1669H329.556V31.8335H298.444V62.1669ZM316.657 44.602C316.657 44.4464 316.657 44.0706 316.593 43.3446C316.593 43.2409 316.618 43.215 316.696 43.1761C317.487 42.852 319.367 42.2817 321.467 42.2817C321.57 42.2817 321.622 42.3076 321.622 42.4113V44.278C321.622 44.3816 321.583 44.4076 321.467 44.4076C320.65 44.3687 319.444 44.4724 318.991 44.6668V52.8465C318.991 52.9502 318.952 53.002 318.835 53.002H316.8C316.696 53.002 316.644 52.9631 316.644 52.8465V44.602H316.657V44.602ZM307.065 53.002C306.909 53.002 306.87 52.9373 306.87 52.8076V38.8724C306.87 38.7687 306.909 38.7038 307.026 38.7038H309.074C309.178 38.7038 309.204 38.7427 309.204 38.8594V50.8631H314.544C314.648 50.8631 314.687 50.902 314.661 51.0187L314.337 52.8595C314.311 52.9631 314.246 53.015 314.142 53.015H307.065V53.002Z" fill="#AAD1EB"/>
</g>
<foreignObject x="276" y="159" width="104" height="104"><div xmlns="http://www.w3.org/1999/xhtml" style="backdrop-filter:blur(12px);clip-path:url(#bgblur_6_9_5363_clip_path);height:100%;width:100%"></div></foreignObject><g data-figma-bg-blur-radius="24">
<path d="M300 211C300 199.764 300 194.146 302.696 190.111C303.864 188.364 305.364 186.864 307.111 185.696C311.146 183 316.764 183 328 183C339.236 183 344.854 183 348.889 185.696C350.636 186.864 352.136 188.364 353.304 190.111C356 194.146 356 199.764 356 211C356 222.236 356 227.854 353.304 231.889C352.136 233.636 350.636 235.136 348.889 236.304C344.854 239 339.236 239 328 239C316.764 239 311.146 239 307.111 236.304C305.364 235.136 303.864 233.636 302.696 231.889C300 227.854 300 222.236 300 211Z" fill="url(#paint19_linear_9_5363)" fill-opacity="0.12"/>
<path d="M342.975 202.543C342.986 202.584 342.992 202.626 342.992 202.669V209.306C342.992 209.392 342.969 209.475 342.927 209.549C342.884 209.623 342.822 209.684 342.749 209.726L337.178 212.934V219.291C337.178 219.464 337.086 219.623 336.936 219.711L325.307 226.405C325.281 226.42 325.252 226.43 325.223 226.44C325.212 226.443 325.201 226.45 325.19 226.453C325.109 226.475 325.023 226.475 324.942 226.453C324.929 226.45 324.916 226.442 324.904 226.437C324.877 226.428 324.849 226.419 324.824 226.405L313.198 219.711C313.124 219.668 313.063 219.607 313.02 219.533C312.977 219.46 312.955 219.376 312.955 219.291V199.379C312.955 199.335 312.961 199.293 312.972 199.252C312.975 199.238 312.984 199.225 312.988 199.211C312.998 199.186 313.006 199.16 313.019 199.136C313.028 199.121 313.042 199.108 313.053 199.093C313.067 199.074 313.079 199.054 313.096 199.037C313.109 199.023 313.128 199.013 313.143 199.001C313.161 198.986 313.177 198.971 313.197 198.959H313.197L319.011 195.612C319.084 195.57 319.168 195.547 319.253 195.547C319.337 195.547 319.421 195.57 319.494 195.612L325.308 198.959H325.309C325.328 198.971 325.345 198.986 325.362 199C325.378 199.012 325.396 199.023 325.409 199.037C325.426 199.054 325.439 199.074 325.453 199.093C325.463 199.108 325.477 199.121 325.486 199.136C325.5 199.161 325.507 199.186 325.517 199.211C325.522 199.225 325.53 199.238 325.534 199.252C325.545 199.294 325.551 199.336 325.551 199.379V211.816L330.395 209.026V202.669C330.395 202.626 330.401 202.583 330.412 202.543C330.416 202.528 330.424 202.515 330.429 202.502C330.439 202.476 330.447 202.45 330.461 202.427C330.47 202.411 330.483 202.398 330.493 202.384C330.508 202.364 330.52 202.344 330.537 202.327C330.551 202.313 330.568 202.303 330.584 202.291C330.602 202.277 330.618 202.261 330.637 202.249H330.638L336.452 198.902C336.525 198.86 336.609 198.837 336.694 198.837C336.779 198.837 336.862 198.86 336.936 198.902L342.749 202.249C342.77 202.261 342.785 202.277 342.804 202.29C342.819 202.303 342.836 202.313 342.85 202.327C342.867 202.344 342.879 202.364 342.894 202.384C342.905 202.398 342.918 202.411 342.926 202.427C342.94 202.45 342.948 202.476 342.958 202.502C342.963 202.515 342.971 202.528 342.975 202.543ZM342.023 209.026V203.507L339.988 204.678L337.178 206.296V211.816L342.023 209.026H342.023ZM336.209 219.011V213.488L333.445 215.067L325.55 219.572V225.147L336.209 219.011ZM313.924 200.217V219.011L324.581 225.146V219.573L319.014 216.422L319.012 216.42L319.009 216.419C318.991 216.408 318.975 216.393 318.957 216.379C318.942 216.367 318.925 216.357 318.911 216.344L318.91 216.342C318.894 216.327 318.883 216.308 318.87 216.292C318.858 216.275 318.844 216.261 318.834 216.244L318.833 216.243C318.822 216.224 318.816 216.203 318.808 216.182C318.8 216.164 318.79 216.147 318.785 216.128V216.127C318.779 216.104 318.778 216.08 318.775 216.056C318.773 216.038 318.768 216.02 318.768 216.002V203.006L315.958 201.387L313.924 200.217V200.217ZM319.253 196.591L314.409 199.379L319.252 202.167L324.095 199.378L319.252 196.591H319.253ZM321.772 213.991L324.582 212.373V200.217L322.548 201.388L319.737 203.006V215.163L321.772 213.991ZM336.694 199.881L331.851 202.669L336.694 205.457L341.536 202.669L336.694 199.881ZM336.209 206.296L333.399 204.678L331.364 203.507V209.026L334.174 210.644L336.209 211.816V206.296ZM325.065 218.734L332.169 214.679L335.72 212.652L330.88 209.866L325.308 213.074L320.23 215.998L325.065 218.734Z" fill="#FF2D20"/>
</g>
<foreignObject x="1160" y="15" width="104" height="104"><div xmlns="http://www.w3.org/1999/xhtml" style="backdrop-filter:blur(12px);clip-path:url(#bgblur_7_9_5363_clip_path);height:100%;width:100%"></div></foreignObject><g data-figma-bg-blur-radius="24">
<rect x="1184" y="39" width="56" height="56" rx="16" fill="url(#paint20_linear_9_5363)" fill-opacity="0.12"/>
<path d="M1205.9 77.5139C1205.88 77.474 1205.86 77.4328 1205.84 77.3905C1205.72 77.1096 1205.68 76.7997 1205.73 76.4981H1198.38L1209.31 57.7164L1212.89 63.8759L1213.93 62.0784L1210.81 56.6978C1210.66 56.4222 1210.44 56.1877 1210.17 56.0158C1209.9 55.8438 1209.6 55.7398 1209.28 55.7134C1208.96 55.7275 1208.65 55.8284 1208.39 56.0046C1208.13 56.1808 1207.92 56.4253 1207.8 56.7101L1196.72 75.7197C1196.56 75.9881 1196.46 76.2921 1196.45 76.6049C1196.43 76.9178 1196.49 77.2299 1196.63 77.5139C1196.8 77.7761 1197.04 77.9865 1197.33 78.1214C1197.61 78.2563 1197.93 78.3102 1198.25 78.2771H1207.52C1207.21 78.3107 1206.89 78.257 1206.6 78.1221C1206.31 77.9872 1206.07 77.7764 1205.9 77.5139H1205.9Z" fill="#00C492"/>
<path d="M1227.22 75.719L1218.12 60.0685C1217.98 59.79 1217.76 59.5527 1217.49 59.3785C1217.22 59.2043 1216.91 59.0988 1216.59 59.0718C1216.27 59.0852 1215.97 59.1855 1215.71 59.3611C1215.44 59.5368 1215.24 59.7808 1215.11 60.0652L1213.93 62.0777L1214.98 63.8757L1216.6 61.0748L1225.6 76.4975H1222.18C1222.22 76.7524 1222.2 77.014 1222.11 77.2569C1222.09 77.3106 1222.07 77.3625 1222.04 77.4121L1222.01 77.4691C1221.82 77.7255 1221.57 77.9333 1221.29 78.0741C1221 78.2148 1220.68 78.2841 1220.36 78.276H1225.71C1226.04 78.2844 1226.35 78.2152 1226.64 78.0744C1226.93 77.9336 1227.18 77.7257 1227.36 77.4691C1227.51 77.1938 1227.57 76.884 1227.55 76.5746C1227.53 76.2653 1227.41 75.9689 1227.22 75.719Z" fill="#008776"/>
<path d="M1222.01 77.47L1222.04 77.413C1222.07 77.3634 1222.09 77.3115 1222.11 77.2578C1222.2 77.0149 1222.22 76.7533 1222.18 76.4984C1222.13 76.2234 1222.03 75.9597 1221.88 75.72L1214.99 63.8761L1213.93 62.0786L1212.89 63.8761L1206 75.72C1205.86 75.9626 1205.77 76.2259 1205.73 76.4984C1205.67 76.7992 1205.71 77.1093 1205.83 77.3912C1205.85 77.4335 1205.87 77.4747 1205.89 77.5146C1206.06 77.7767 1206.31 77.9871 1206.59 78.1219C1206.88 78.2567 1207.2 78.3105 1207.51 78.2773H1220.35C1220.67 78.2867 1220.99 78.2179 1221.28 78.0771C1221.57 77.9364 1221.82 77.728 1222.01 77.4704L1222.01 77.47ZM1213.93 65.6741L1220.24 76.4979H1207.64L1213.93 65.6741Z" fill="#2D4A5D"/>
</g>
<foreignObject x="1009" y="159" width="104" height="104"><div xmlns="http://www.w3.org/1999/xhtml" style="backdrop-filter:blur(12px);clip-path:url(#bgblur_8_9_5363_clip_path);height:100%;width:100%"></div></foreignObject><g data-figma-bg-blur-radius="24">
<rect x="1033" y="183" width="56" height="56" rx="16" fill="url(#paint21_linear_9_5363)" fill-opacity="0.12"/>
<path d="M1061 201.669C1056.85 201.669 1054.26 203.743 1053.22 207.89C1054.78 205.816 1056.59 205.039 1058.67 205.557C1059.85 205.853 1060.7 206.711 1061.63 207.661C1063.16 209.209 1064.92 211 1068.78 211C1072.93 211 1075.52 208.926 1076.56 204.779C1075 206.853 1073.19 207.631 1071.11 207.112C1069.93 206.817 1069.08 205.958 1068.15 205.008C1066.62 203.461 1064.86 201.669 1061 201.669ZM1053.22 211C1049.07 211 1046.48 213.074 1045.44 217.221C1047 215.147 1048.81 214.369 1050.89 214.888C1052.07 215.184 1052.92 216.042 1053.85 216.992C1055.38 218.54 1057.14 220.331 1061 220.331C1065.15 220.331 1067.74 218.257 1068.78 214.11C1067.22 216.184 1065.41 216.962 1063.33 216.443C1062.15 216.148 1061.3 215.289 1060.37 214.339C1058.84 212.792 1057.08 211 1053.22 211Z" fill="#06B6D4"/>
</g>
<foreignObject x="504" y="262" width="104" height="104"><div xmlns="http://www.w3.org/1999/xhtml" style="backdrop-filter:blur(12px);clip-path:url(#bgblur_9_9_5363_clip_path);height:100%;width:100%"></div></foreignObject><g data-figma-bg-blur-radius="24">
<path d="M528 314C528 302.764 528 297.146 530.696 293.111C531.864 291.364 533.364 289.864 535.111 288.696C539.146 286 544.764 286 556 286C567.236 286 572.854 286 576.889 288.696C578.636 289.864 580.136 291.364 581.304 293.111C584 297.146 584 302.764 584 314C584 325.236 584 330.854 581.304 334.889C580.136 336.636 578.636 338.136 576.889 339.304C572.854 342 567.236 342 556 342C544.764 342 539.146 342 535.111 339.304C533.364 338.136 531.864 336.636 530.696 334.889C528 330.854 528 325.236 528 314Z" fill="url(#paint22_linear_9_5363)" fill-opacity="0.12"/>
<path d="M571.555 298.444H540.444V329.555H571.555V298.444Z" fill="#F7DF1E"/>
<path d="M561.343 322.75C561.97 323.773 562.785 324.525 564.227 324.525C565.438 324.525 566.212 323.92 566.212 323.083C566.212 322.081 565.417 321.726 564.084 321.143L563.353 320.829C561.243 319.93 559.842 318.804 559.842 316.424C559.842 314.232 561.512 312.562 564.123 312.562C565.982 312.562 567.318 313.209 568.281 314.903L566.005 316.365C565.503 315.466 564.963 315.112 564.123 315.112C563.267 315.112 562.724 315.655 562.724 316.365C562.724 317.242 563.267 317.597 564.522 318.14L565.253 318.453C567.736 319.519 569.139 320.604 569.139 323.046C569.139 325.678 567.071 327.12 564.295 327.12C561.579 327.12 559.825 325.826 558.967 324.13L561.343 322.75ZM551.015 323.003C551.475 323.818 551.893 324.507 552.897 324.507C553.857 324.507 554.463 324.131 554.463 322.67V312.729H557.387V322.71C557.387 325.737 555.612 327.115 553.021 327.115C550.681 327.115 549.325 325.903 548.636 324.444L551.015 323.003Z" fill="black"/>
</g>
<foreignObject x="808" y="262" width="104" height="104"><div xmlns="http://www.w3.org/1999/xhtml" style="backdrop-filter:blur(12px);clip-path:url(#bgblur_10_9_5363_clip_path);height:100%;width:100%"></div></foreignObject><g data-figma-bg-blur-radius="24">
<path d="M832 314C832 302.764 832 297.146 834.696 293.111C835.864 291.364 837.364 289.864 839.111 288.696C843.146 286 848.764 286 860 286C871.236 286 876.854 286 880.889 288.696C882.636 289.864 884.136 291.364 885.304 293.111C888 297.146 888 302.764 888 314C888 325.236 888 330.854 885.304 334.889C884.136 336.636 882.636 338.136 880.889 339.304C876.854 342 871.236 342 860 342C848.764 342 843.146 342 839.111 339.304C837.364 338.136 835.864 336.636 834.696 334.889C832 330.854 832 325.236 832 314Z" fill="url(#paint23_linear_9_5363)" fill-opacity="0.12"/>
<path d="M844.444 298.444H875.555V329.555H844.444V298.444Z" fill="#017ACB"/>
<path d="M859.382 309.965H860.875V312.541H856.84V324.004L856.733 324.033C856.587 324.072 854.667 324.072 854.254 324.028L853.923 323.999V312.541H849.889V309.965L851.167 309.95C851.867 309.941 853.666 309.941 855.163 309.95C856.66 309.96 858.556 309.965 859.382 309.965ZM870.772 322.789C870.179 323.416 869.542 323.766 868.482 324.052C868.021 324.179 867.943 324.184 866.903 324.179C865.862 324.174 865.78 324.174 865.274 324.043C863.966 323.707 862.912 323.051 862.192 322.123C861.988 321.86 861.653 321.316 861.653 321.248C861.653 321.228 861.701 321.184 861.764 321.155C861.828 321.126 861.959 321.043 862.066 320.98C862.173 320.917 862.367 320.8 862.498 320.732C862.63 320.664 863.009 320.441 863.339 320.241C863.67 320.042 863.971 319.882 864.005 319.882C864.039 319.882 864.103 319.95 864.151 320.032C864.443 320.523 865.123 321.15 865.605 321.364C865.901 321.491 866.557 321.632 866.873 321.632C867.165 321.632 867.7 321.505 867.987 321.374C868.293 321.233 868.448 321.092 868.633 320.81C868.76 320.611 868.774 320.557 868.769 320.178C868.769 319.828 868.75 319.731 868.653 319.571C868.38 319.123 868.011 318.89 866.514 318.229C864.968 317.543 864.273 317.135 863.709 316.586C863.291 316.177 863.208 316.066 862.946 315.555C862.605 314.899 862.562 314.685 862.557 313.708C862.552 313.023 862.566 312.799 862.639 312.566C862.741 312.216 863.072 311.54 863.223 311.37C863.534 311.005 863.646 310.893 863.864 310.714C864.526 310.169 865.556 309.809 866.543 309.775C866.655 309.775 867.024 309.795 867.369 309.819C868.361 309.902 869.037 310.145 869.688 310.665C870.179 311.054 870.923 311.968 870.85 312.089C870.801 312.162 868.862 313.455 868.735 313.494C868.657 313.518 868.604 313.489 868.497 313.363C867.836 312.571 867.569 312.4 866.927 312.362C866.47 312.332 866.227 312.386 865.921 312.59C865.6 312.804 865.444 313.13 865.444 313.582C865.449 314.243 865.702 314.554 866.635 315.016C867.238 315.312 867.753 315.555 867.792 315.555C867.851 315.555 869.1 316.177 869.426 316.372C870.942 317.262 871.56 318.175 871.72 319.75C871.837 320.937 871.501 322.021 870.772 322.789Z" fill="#1E2235"/>
</g>
<defs>
<clipPath id="bgblur_0_9_5363_clip_path" transform="translate(-129 -17)"><rect x="153" y="41" width="56" height="56" rx="16"/>
</clipPath><clipPath id="bgblur_1_9_5363_clip_path" transform="translate(-439 -106)"><rect x="463" y="130" width="56" height="56" rx="16"/>
</clipPath><clipPath id="bgblur_2_9_5363_clip_path" transform="translate(-640 -157)"><rect x="664" y="181" width="56" height="56" rx="16"/>
</clipPath><clipPath id="bgblur_3_9_5363_clip_path" transform="translate(-849 -106)"><rect x="873" y="130" width="56" height="56" rx="16"/>
</clipPath><clipPath id="bgblur_4_9_5363_clip_path" transform="translate(-993 -2)"><rect x="1017" y="26" width="56" height="56" rx="16"/>
</clipPath><clipPath id="bgblur_5_9_5363_clip_path" transform="translate(-262 5)"><rect x="286" y="19" width="56" height="56" rx="16"/>
</clipPath><clipPath id="bgblur_6_9_5363_clip_path" transform="translate(-276 -159)"><path d="M300 211C300 199.764 300 194.146 302.696 190.111C303.864 188.364 305.364 186.864 307.111 185.696C311.146 183 316.764 183 328 183C339.236 183 344.854 183 348.889 185.696C350.636 186.864 352.136 188.364 353.304 190.111C356 194.146 356 199.764 356 211C356 222.236 356 227.854 353.304 231.889C352.136 233.636 350.636 235.136 348.889 236.304C344.854 239 339.236 239 328 239C316.764 239 311.146 239 307.111 236.304C305.364 235.136 303.864 233.636 302.696 231.889C300 227.854 300 222.236 300 211Z"/>
</clipPath><clipPath id="bgblur_7_9_5363_clip_path" transform="translate(-1160 -15)"><rect x="1184" y="39" width="56" height="56" rx="16"/>
</clipPath><clipPath id="bgblur_8_9_5363_clip_path" transform="translate(-1009 -159)"><rect x="1033" y="183" width="56" height="56" rx="16"/>
</clipPath><clipPath id="bgblur_9_9_5363_clip_path" transform="translate(-504 -262)"><path d="M528 314C528 302.764 528 297.146 530.696 293.111C531.864 291.364 533.364 289.864 535.111 288.696C539.146 286 544.764 286 556 286C567.236 286 572.854 286 576.889 288.696C578.636 289.864 580.136 291.364 581.304 293.111C584 297.146 584 302.764 584 314C584 325.236 584 330.854 581.304 334.889C580.136 336.636 578.636 338.136 576.889 339.304C572.854 342 567.236 342 556 342C544.764 342 539.146 342 535.111 339.304C533.364 338.136 531.864 336.636 530.696 334.889C528 330.854 528 325.236 528 314Z"/>
</clipPath><clipPath id="bgblur_10_9_5363_clip_path" transform="translate(-808 -262)"><path d="M832 314C832 302.764 832 297.146 834.696 293.111C835.864 291.364 837.364 289.864 839.111 288.696C843.146 286 848.764 286 860 286C871.236 286 876.854 286 880.889 288.696C882.636 289.864 884.136 291.364 885.304 293.111C888 297.146 888 302.764 888 314C888 325.236 888 330.854 885.304 334.889C884.136 336.636 882.636 338.136 880.889 339.304C876.854 342 871.236 342 860 342C848.764 342 843.146 342 839.111 339.304C837.364 338.136 835.864 336.636 834.696 334.889C832 330.854 832 325.236 832 314Z"/>
</clipPath><linearGradient id="paint0_linear_9_5363" x1="692" y1="-984" x2="692" y2="400" gradientUnits="userSpaceOnUse">
<stop stop-color="#E8E0FF" stop-opacity="0.2"/>
<stop offset="0.24" stop-color="#E8E0FF" stop-opacity="0"/>
</linearGradient>
<linearGradient id="paint1_linear_9_5363" x1="692" y1="-920" x2="692" y2="336" gradientUnits="userSpaceOnUse">
<stop stop-color="#E8E0FF" stop-opacity="0.2"/>
<stop offset="0.24" stop-color="#E8E0FF" stop-opacity="0"/>
</linearGradient>
<linearGradient id="paint2_linear_9_5363" x1="692" y1="-856" x2="692" y2="272" gradientUnits="userSpaceOnUse">
<stop stop-color="#E8E0FF" stop-opacity="0.2"/>
<stop offset="0.24" stop-color="#E8E0FF" stop-opacity="0"/>
</linearGradient>
<linearGradient id="paint3_linear_9_5363" x1="692" y1="-792" x2="692" y2="208" gradientUnits="userSpaceOnUse">
<stop stop-color="#E8E0FF" stop-opacity="0.2"/>
<stop offset="0.24" stop-color="#E8E0FF" stop-opacity="0"/>
</linearGradient>
<linearGradient id="paint4_linear_9_5363" x1="181" y1="41" x2="181" y2="97" gradientUnits="userSpaceOnUse">
<stop stop-color="white"/>
<stop offset="1" stop-color="#AF99FF"/>
</linearGradient>
<linearGradient id="paint5_linear_9_5363" x1="491" y1="130" x2="491" y2="186" gradientUnits="userSpaceOnUse">
<stop stop-color="white"/>
<stop offset="1" stop-color="#AF99FF"/>
</linearGradient>
<radialGradient id="paint6_radial_9_5363" cx="0" cy="0" r="1" gradientUnits="userSpaceOnUse" gradientTransform="translate(486.133 150.347) scale(21.6741 20.9845)">
<stop stop-color="#442F55" stop-opacity="0.98"/>
<stop offset="1" stop-color="#12002C"/>
</radialGradient>
<linearGradient id="paint7_linear_9_5363" x1="692" y1="181" x2="692" y2="237" gradientUnits="userSpaceOnUse">
<stop stop-color="white"/>
<stop offset="1" stop-color="#AF99FF"/>
</linearGradient>
<radialGradient id="paint8_radial_9_5363" cx="0" cy="0" r="1" gradientUnits="userSpaceOnUse" gradientTransform="translate(687.133 201.347) scale(21.6741 20.9845)">
<stop stop-color="#4B2B36" stop-opacity="0.98"/>
<stop offset="1" stop-color="#250012"/>
</radialGradient>
<linearGradient id="paint9_linear_9_5363" x1="901" y1="130" x2="901" y2="186" gradientUnits="userSpaceOnUse">
<stop stop-color="white"/>
<stop offset="1" stop-color="#AF99FF"/>
</linearGradient>
<linearGradient id="paint10_linear_9_5363" x1="916.393" y1="142.606" x2="885.904" y2="173.096" gradientUnits="userSpaceOnUse">
<stop stop-color="#FFAA2A"/>
<stop offset="1" stop-color="#FFC06C"/>
</linearGradient>
<linearGradient id="paint11_linear_9_5363" x1="901.019" y1="145.111" x2="901.019" y2="170.731" gradientUnits="userSpaceOnUse">
<stop stop-color="#251200"/>
<stop offset="1"/>
</linearGradient>
<linearGradient id="paint12_linear_9_5363" x1="1045" y1="26" x2="1045" y2="82" gradientUnits="userSpaceOnUse">
<stop stop-color="white"/>
<stop offset="1" stop-color="#AF99FF"/>
</linearGradient>
<linearGradient id="paint13_linear_9_5363" x1="1037" y1="37.106" x2="1048.93" y2="62.3061" gradientUnits="userSpaceOnUse">
<stop stop-color="#A0CBFF"/>
<stop offset="0.394" stop-color="#A0CBFE"/>
<stop offset="0.583" stop-color="#8EC2FC"/>
<stop offset="0.784" stop-color="#83BCFB"/>
<stop offset="1" stop-color="#7FBAFB"/>
</linearGradient>
<linearGradient id="paint14_linear_9_5363" x1="1041.24" y1="41.4993" x2="1047.98" y2="63.8995" gradientUnits="userSpaceOnUse">
<stop stop-color="#090058"/>
<stop offset="1" stop-color="#070033"/>
</linearGradient>
<linearGradient id="paint15_linear_9_5363" x1="1033.3" y1="38.447" x2="1045.22" y2="63.6468" gradientUnits="userSpaceOnUse">
<stop stop-color="#A0CBFF"/>
<stop offset="0.394" stop-color="#A0CBFE"/>
<stop offset="0.583" stop-color="#8EC2FC"/>
<stop offset="0.784" stop-color="#83BCFB"/>
<stop offset="1" stop-color="#7FBAFB"/>
</linearGradient>
<linearGradient id="paint16_linear_9_5363" x1="1040.09" y1="35.1567" x2="1052.06" y2="60.4563" gradientUnits="userSpaceOnUse">
<stop stop-color="#A0CBFF"/>
<stop offset="0.394" stop-color="#A0CBFE"/>
<stop offset="0.583" stop-color="#8EC2FC"/>
<stop offset="0.784" stop-color="#83BCFB"/>
<stop offset="1" stop-color="#7FBAFB"/>
</linearGradient>
<linearGradient id="paint17_linear_9_5363" x1="314" y1="19" x2="314" y2="75" gradientUnits="userSpaceOnUse">
<stop stop-color="white"/>
<stop offset="1" stop-color="#AF99FF"/>
</linearGradient>
<radialGradient id="paint18_radial_9_5363" cx="0" cy="0" r="1" gradientUnits="userSpaceOnUse" gradientTransform="translate(309.133 39.3466) scale(21.6741 20.9845)">
<stop stop-color="#39464D" stop-opacity="0.98"/>
<stop offset="1" stop-color="#05151F"/>
</radialGradient>
<linearGradient id="paint19_linear_9_5363" x1="328" y1="183" x2="328" y2="239" gradientUnits="userSpaceOnUse">
<stop stop-color="white"/>
<stop offset="1" stop-color="#AF99FF"/>
</linearGradient>
<linearGradient id="paint20_linear_9_5363" x1="1212" y1="39" x2="1212" y2="95" gradientUnits="userSpaceOnUse">
<stop stop-color="white"/>
<stop offset="1" stop-color="#AF99FF"/>
</linearGradient>
<linearGradient id="paint21_linear_9_5363" x1="1061" y1="183" x2="1061" y2="239" gradientUnits="userSpaceOnUse">
<stop stop-color="white"/>
<stop offset="1" stop-color="#AF99FF"/>
</linearGradient>
<linearGradient id="paint22_linear_9_5363" x1="556" y1="286" x2="556" y2="342" gradientUnits="userSpaceOnUse">
<stop stop-color="white"/>
<stop offset="1" stop-color="#AF99FF"/>
</linearGradient>
<linearGradient id="paint23_linear_9_5363" x1="860" y1="286" x2="860" y2="342" gradientUnits="userSpaceOnUse">
<stop stop-color="white"/>
<stop offset="1" stop-color="#AF99FF"/>
</linearGradient>
</defs>
</svg>
