<svg width="40" height="40" viewBox="0 0 40 40" fill="none" xmlns="http://www.w3.org/2000/svg">
<path d="M38.4911 36.5965C38.2379 33.2219 35.8625 30.4452 32.7422 29.5427C34.1708 28.764 35.1423 27.2482 35.1423 25.5098C35.1423 22.979 33.0834 20.9201 30.5525 20.9201C28.0217 20.9201 25.9627 22.979 25.9627 25.5098C25.9627 27.2493 26.9354 28.7658 28.3653 29.5441C26.8642 29.9783 25.5037 30.8513 24.4763 32.0646C23.7841 31.6334 23.0276 31.2987 22.2265 31.0792C23.8058 30.2675 24.8894 28.6223 24.8894 26.7279C24.8894 24.0313 22.6957 21.8376 19.9991 21.8376C17.3025 21.8376 15.1088 24.0313 15.1088 26.7279C15.1088 28.6224 16.1924 30.2675 17.7717 31.0792C16.9705 31.2986 16.214 31.6334 15.5218 32.0646C14.4945 30.8512 13.134 29.9782 11.6329 29.5441C13.0629 28.7657 14.0354 27.2491 14.0354 25.5098C14.0354 22.9789 11.9765 20.92 9.44566 20.92C6.9148 20.92 4.85582 22.9789 4.85582 25.5098C4.85582 27.2481 5.82738 28.7639 7.2559 29.5427C4.13559 30.4451 1.76027 33.2218 1.50707 36.5966C1.48348 36.9117 1.59269 37.2247 1.80668 37.4553C2.02059 37.6859 2.32465 37.8182 2.64074 37.8182H11.6119C11.5632 38.0939 11.5275 38.3741 11.5062 38.6584C11.4818 38.9844 11.5946 39.308 11.8159 39.5466C12.0371 39.7851 12.3514 39.9219 12.6783 39.9219H27.3197C27.6468 39.9219 27.9611 39.7851 28.1825 39.5465C28.4037 39.3079 28.5164 38.9842 28.492 38.6584C28.4707 38.3741 28.435 38.0939 28.3863 37.8182H37.3575C37.6735 37.8182 37.9775 37.6859 38.1914 37.4553C38.4054 37.2248 38.5146 36.9118 38.4911 36.5965ZM27.2126 25.5098C27.2126 23.6682 28.7109 22.17 30.5525 22.17C32.394 22.17 33.8922 23.6682 33.8922 25.5098C33.8922 27.3513 32.394 28.8496 30.5525 28.8496C28.7109 28.8496 27.2126 27.3514 27.2126 25.5098ZM16.3588 26.7279C16.3588 24.7206 17.9918 23.0876 19.9991 23.0876C22.0064 23.0876 23.6394 24.7205 23.6394 26.7279C23.6394 28.7352 22.0064 30.3682 19.999 30.3682C17.9917 30.3682 16.3588 28.7352 16.3588 26.7279ZM6.10582 25.5098C6.10582 23.6682 7.6041 22.17 9.44566 22.17C11.2872 22.17 12.7854 23.6682 12.7854 25.5098C12.7854 27.3513 11.2872 28.8496 9.44566 28.8496C7.6041 28.8496 6.10582 27.3514 6.10582 25.5098ZM11.9338 36.5682H2.76371C3.08363 33.1458 5.99504 30.4824 9.44551 30.4824C11.3843 30.4824 13.2364 31.3401 14.5088 32.8023C13.3413 33.7908 12.4388 35.0875 11.9338 36.5682ZM12.7591 38.6719C13.0805 34.9409 16.2452 32.03 19.9991 32.03C23.753 32.03 26.9177 34.9407 27.2391 38.6719H12.7591ZM28.0643 36.5682C27.5593 35.0874 26.6568 33.7907 25.4893 32.8023C26.7617 31.34 28.6137 30.4823 30.5525 30.4823C34.0032 30.4823 36.9148 33.1456 37.2343 36.5681H28.0643V36.5682ZM10.1125 11.3642C9.57785 12.1304 9.44949 13.1749 9.76902 14.1584C10.0886 15.142 10.8063 15.9116 11.6892 16.2173C12.0657 16.3477 12.3043 16.676 12.312 17.0743C12.3298 18.0084 12.8399 18.9289 13.6764 19.5368C14.5132 20.1447 15.5466 20.3455 16.44 20.0737C16.8214 19.958 17.2073 20.0833 17.4476 20.401C18.0111 21.1462 18.9649 21.5911 19.9989 21.5911H19.999C21.033 21.5911 21.9869 21.1462 22.5504 20.4011C22.7907 20.0832 23.177 19.958 23.5579 20.0737C24.4517 20.3454 25.4848 20.1447 26.3215 19.5368C27.1581 18.9291 27.6682 18.0085 27.6861 17.0745C27.6937 16.676 27.9323 16.3477 28.3089 16.2173C29.1917 15.9116 29.9094 15.142 30.229 14.1585C30.5486 13.1751 30.4202 12.1305 29.8856 11.3643C29.6576 11.0375 29.6575 10.6316 29.8855 10.3049C30.4201 9.53867 30.5485 8.49414 30.2289 7.51062C29.9094 6.52711 29.1917 5.7575 28.3088 5.4518C27.9323 5.32148 27.6936 4.99305 27.686 4.59477C27.6682 3.66078 27.1581 2.74023 26.3216 2.13234C25.485 1.52445 24.4518 1.32383 23.5579 1.59531C23.1765 1.71109 22.7905 1.58578 22.5503 1.26805C21.9871 0.523047 21.0333 0.078125 19.9993 0.078125C19.9992 0.078125 19.9991 0.078125 19.999 0.078125C18.965 0.078125 18.0112 0.522891 17.4477 1.26805C17.2073 1.58578 16.8213 1.71148 16.4402 1.59547C15.5466 1.32383 14.5132 1.52445 13.6766 2.13227C12.84 2.74008 12.3299 3.66055 12.312 4.59469C12.3043 4.99312 12.0658 5.32156 11.6893 5.45187C10.8064 5.7575 10.0886 6.52711 9.76902 7.51055C9.44941 8.49406 9.57777 9.53867 10.1124 10.3049C10.3404 10.6316 10.3404 11.0375 10.1125 11.3642ZM11.1375 9.58961C10.8258 9.14273 10.7586 8.51 10.9579 7.89688C11.1571 7.28375 11.5834 6.81125 12.0982 6.63305C12.9696 6.33148 13.5441 5.54078 13.5617 4.61867C13.5721 4.07391 13.8897 3.52258 14.4113 3.14359C14.9327 2.76477 15.5552 2.63289 16.0767 2.79148C16.959 3.05953 17.8884 2.75758 18.4447 2.02195C18.7733 1.5875 19.3544 1.32812 19.999 1.32812H19.9992C20.6438 1.32812 21.2248 1.5875 21.5534 2.02211C22.1096 2.75766 23.0394 3.05961 23.9214 2.79148C24.4431 2.63312 25.0655 2.76484 25.587 3.14383C26.1085 3.52273 26.426 4.07414 26.4364 4.61883C26.4541 5.54086 27.0286 6.33156 27.9 6.63312C28.4148 6.81141 28.8411 7.28383 29.0403 7.89703C29.2395 8.51016 29.1722 9.14289 28.8605 9.58969C28.3328 10.346 28.3328 11.3233 28.8606 12.0796C29.1723 12.5265 29.2395 13.1591 29.0403 13.7723C28.8411 14.3855 28.4148 14.8579 27.9 15.0361C27.0286 15.3377 26.454 16.1284 26.4364 17.0505C26.426 17.5952 26.1084 18.1466 25.5868 18.5255C25.0654 18.9045 24.443 19.0362 23.9214 18.8777C23.039 18.6096 22.1096 18.9116 21.5534 19.6472C21.2248 20.0817 20.6437 20.3412 19.999 20.3412C19.3543 20.3412 18.7732 20.0817 18.4446 19.6471C18.0232 19.0897 17.3873 18.7813 16.72 18.7813C16.5068 18.7813 16.2903 18.8128 16.0766 18.8777C15.5553 19.0361 14.9328 18.9045 14.4113 18.5255C13.8898 18.1466 13.5722 17.5952 13.5618 17.0504C13.5441 16.1285 12.9697 15.3378 12.0982 15.0361C11.5834 14.8578 11.1571 14.3854 10.9579 13.7722C10.7587 13.1591 10.8259 12.5263 11.1376 12.0796C11.6653 11.3233 11.6653 10.3459 11.1375 9.58961ZM19.999 17.1432C23.4775 17.1432 26.3076 14.3131 26.3076 10.8346C26.3076 7.35602 23.4775 4.52594 19.999 4.52594C16.5204 4.52594 13.6903 7.35602 13.6903 10.8346C13.6904 14.3131 16.5204 17.1432 19.999 17.1432ZM19.999 5.77594C22.7883 5.77594 25.0576 8.04523 25.0576 10.8346C25.0576 13.6239 22.7883 15.8932 19.999 15.8932C17.2096 15.8932 14.9403 13.6239 14.9403 10.8346C14.9404 8.04523 17.2096 5.77594 19.999 5.77594ZM19.1404 14.1887C19.5633 14.1887 19.9863 14.0277 20.3061 13.706L23.7023 10.2779C24.0115 9.96695 24.1812 9.55406 24.18 9.11547C24.1787 8.67688 24.0068 8.26492 23.6958 7.95578C23.3859 7.64758 22.9749 7.47797 22.5381 7.47797C22.5365 7.47797 22.535 7.47805 22.5333 7.47805C22.0947 7.4793 21.6828 7.65117 21.3736 7.96219C21.3733 7.96242 21.373 7.96273 21.3727 7.96305L19.1207 10.2362L18.6052 9.73359C17.9562 9.10219 16.9145 9.11656 16.2829 9.76578C15.6517 10.4148 15.6661 11.4566 16.3146 12.0873L17.9958 13.7259C18.3132 14.0348 18.7268 14.1887 19.1404 14.1887ZM17.1791 10.6373C17.2559 10.5584 17.3582 10.5187 17.4605 10.5187C17.559 10.5187 17.6575 10.5555 17.7332 10.6291L18.6921 11.564C18.9377 11.8034 19.3307 11.8002 19.5725 11.5563L22.2604 8.84313C22.3342 8.76922 22.4323 8.72828 22.5368 8.72797H22.538C22.6423 8.72797 22.7404 8.76852 22.8144 8.84211C22.8886 8.91594 22.9297 9.01422 22.93 9.11898C22.9302 9.22375 22.8897 9.32227 22.815 9.39734L19.4188 12.8255C19.2682 12.977 19.0208 12.9791 18.8679 12.8304L17.1867 11.1917C17.0318 11.0411 17.0284 10.7923 17.1791 10.6373Z" fill="url(#paint0_linear_1_11023)"/>
<defs>
<linearGradient id="paint0_linear_1_11023" x1="19.9991" y1="0.078125" x2="19.9991" y2="39.9219" gradientUnits="userSpaceOnUse">
<stop stop-color="#FFF422"/>
<stop offset="1" stop-color="#AF99FF"/>
</linearGradient>
</defs>
</svg>
