<svg width="40" height="40" viewBox="0 0 40 40" fill="none" xmlns="http://www.w3.org/2000/svg">
<g clip-path="url(#clip0_1_11044)">
<path d="M12.273 18.255C12.5632 18.255 12.8424 18.1335 13.039 17.9216C13.2357 17.7098 13.336 17.4222 13.3143 17.1326C13.1181 14.518 11.3931 12.3351 9.06212 11.4363C9.97891 10.7273 10.5709 9.6175 10.5709 8.37148C10.5709 6.2357 8.83337 4.49813 6.69759 4.49813C4.5618 4.49813 2.8243 6.2357 2.8243 8.37148C2.8243 9.6175 3.41634 10.7272 4.33313 11.4363C2.00227 12.3351 0.277195 14.518 0.0810233 17.1326V17.1327C0.0593826 17.4222 0.159695 17.7097 0.356336 17.9216C0.552898 18.1335 0.832117 18.255 1.12235 18.255H12.273ZM4.0743 8.37148C4.0743 6.925 5.2511 5.74812 6.69759 5.74812C8.14415 5.74812 9.32094 6.92492 9.32094 8.37148C9.32094 9.8175 8.14493 10.9939 6.69907 10.9948C6.6986 10.9948 6.69805 10.9948 6.69751 10.9948C6.69696 10.9948 6.69649 10.9948 6.69595 10.9948C5.25032 10.994 4.0743 9.8175 4.0743 8.37148ZM6.69602 12.2448H6.69759C6.69759 12.2448 6.6986 12.2448 6.69915 12.2448C9.42579 12.2455 11.7327 14.3188 12.0466 17.0049H1.34876C1.66259 14.3187 3.96946 12.2456 6.69602 12.2448ZM12.8722 10.0438H13.3389V11.7866C13.3389 12.021 13.4701 12.2357 13.6787 12.3427C13.7686 12.3889 13.8664 12.4116 13.9638 12.4116C14.0924 12.4116 14.2202 12.372 14.3284 12.2944L17.4627 10.0438H23.0488C23.8228 10.0438 24.4526 9.41406 24.4526 8.64V2.26328C24.4526 1.48914 23.8228 0.859375 23.0488 0.859375H12.8722C12.0981 0.859375 11.4683 1.48914 11.4683 2.26328V8.64C11.4683 9.41406 12.0981 10.0438 12.8722 10.0438ZM12.7183 2.26328C12.7183 2.17984 12.7888 2.10938 12.8722 2.10938H23.0488C23.1321 2.10938 23.2026 2.17984 23.2026 2.26328V8.64C23.2026 8.72336 23.1322 8.79383 23.0488 8.79383H17.2616C17.1308 8.79383 17.0033 8.83484 16.897 8.91117L14.5889 10.5684V9.41883C14.5889 9.07367 14.3091 8.79383 13.9639 8.79383H12.8722C12.7888 8.79383 12.7183 8.72336 12.7183 8.64V2.26328ZM13.9473 3.36836C13.9473 3.0232 14.2271 2.74336 14.5723 2.74336H21.3485C21.6937 2.74336 21.9735 3.0232 21.9735 3.36836C21.9735 3.71352 21.6937 3.99336 21.3485 3.99336H14.5723C14.2271 3.99336 13.9473 3.71359 13.9473 3.36836ZM13.9473 7.53477C13.9473 7.18961 14.2271 6.90977 14.5723 6.90977H21.3485C21.6937 6.90977 21.9735 7.18961 21.9735 7.53477C21.9735 7.87992 21.6937 8.15977 21.3485 8.15977H14.5723C14.2271 8.15977 13.9473 7.88 13.9473 7.53477ZM13.9473 5.45156C13.9473 5.10641 14.2271 4.82656 14.5723 4.82656H21.3485C21.6937 4.82656 21.9735 5.10641 21.9735 5.45156C21.9735 5.79672 21.6937 6.07656 21.3485 6.07656H14.5723C14.2271 6.07656 13.9473 5.79672 13.9473 5.45156ZM39.9188 38.0183C39.7227 35.4037 37.9976 33.2208 35.6666 32.3219C36.5835 31.6129 37.1756 30.5032 37.1756 29.2571C37.1756 27.1213 35.4381 25.3837 33.3023 25.3837C31.1665 25.3837 29.4289 27.1213 29.4289 29.2571C29.4289 30.5031 30.0209 31.6129 30.9378 32.3219C28.6069 33.2207 26.8818 35.4037 26.6856 38.0184C26.6639 38.3078 26.7642 38.5954 26.9608 38.8073C27.1574 39.0191 27.4367 39.1407 27.727 39.1407H38.8775C39.1677 39.1407 39.447 39.0191 39.6436 38.8073C39.8402 38.5954 39.9406 38.3078 39.9188 38.0184C39.9188 38.0184 39.9188 38.0184 39.9188 38.0183ZM30.6788 29.2571C30.6788 27.8105 31.8556 26.6337 33.3022 26.6337C34.7487 26.6337 35.9255 27.8105 35.9255 29.2571C35.9255 30.7036 34.7487 31.8804 33.3022 31.8804C31.8557 31.8804 30.6788 30.7036 30.6788 29.2571ZM27.9533 37.8906C28.2673 35.2038 30.5749 33.1304 33.3023 33.1304C36.0295 33.1304 38.3372 35.2038 38.6512 37.8906H27.9533ZM28.5316 29.5256V23.1489C28.5316 22.3748 27.9017 21.745 27.1277 21.745H16.9511C16.177 21.745 15.5473 22.3748 15.5473 23.1489V29.5256C15.5473 30.2997 16.177 30.9295 16.9511 30.9295H22.5372L25.6714 33.18C25.7797 33.2577 25.9075 33.2973 26.036 33.2973C26.1334 33.2973 26.2313 33.2745 26.3213 33.2284C26.5298 33.1214 26.6609 32.9067 26.6609 32.6723V30.9295H27.1277C27.9018 30.9295 28.5316 30.2997 28.5316 29.5256ZM26.036 29.6795C25.6909 29.6795 25.411 29.9593 25.411 30.3045V31.4541L23.1029 29.7968C22.9966 29.7205 22.8691 29.6795 22.7384 29.6795H16.9512C16.8678 29.6795 16.7974 29.609 16.7974 29.5255V23.1488C16.7974 23.0655 16.8677 22.9949 16.9512 22.9949H27.1277C27.2111 22.9949 27.2816 23.0654 27.2816 23.1488V29.5255C27.2816 29.6089 27.2112 29.6795 27.1277 29.6795H26.036ZM26.0526 28.4204C26.0526 28.7655 25.7727 29.0454 25.4276 29.0454H18.6513C18.3062 29.0454 18.0263 28.7655 18.0263 28.4204C18.0263 28.0752 18.3062 27.7954 18.6513 27.7954H25.4276C25.7727 27.7954 26.0526 28.0752 26.0526 28.4204ZM26.0526 24.254C26.0526 24.5991 25.7727 24.879 25.4276 24.879H18.6513C18.3062 24.879 18.0263 24.5991 18.0263 24.254C18.0263 23.9088 18.3062 23.629 18.6513 23.629H25.4276C25.7727 23.629 26.0526 23.9088 26.0526 24.254ZM26.0526 26.3372C26.0526 26.6823 25.7727 26.9622 25.4276 26.9622H18.6513C18.3062 26.9622 18.0263 26.6823 18.0263 26.3372C18.0263 25.992 18.3062 25.7122 18.6513 25.7122H25.4276C25.7727 25.7122 26.0526 25.992 26.0526 26.3372ZM26.8831 10.284C29.7788 11.2011 34.4701 13.4735 34.389 18.549C34.0369 18.4598 33.6706 18.5739 33.4303 18.8488C33.1884 19.1255 33.1267 19.5088 33.2691 19.8491L34.8395 23.6039C34.955 23.8802 35.187 24.083 35.4761 24.1605C35.5591 24.1827 35.6431 24.1937 35.7264 24.1937C35.9334 24.1937 36.1359 24.1262 36.3057 23.9968L39.5429 21.5303C39.8365 21.3066 39.9746 20.9438 39.9036 20.5835C39.832 20.2207 39.5661 19.9361 39.2098 19.8407L38.9325 19.7664C39.1638 16.9306 38.0748 14.1248 35.8955 11.9929C33.4891 9.63906 30.1526 8.54688 26.9702 9.07156C26.6851 9.11859 26.4692 9.35508 26.4485 9.64352C26.4278 9.9318 26.6076 10.1967 26.8831 10.284ZM35.0213 12.8864C37.0544 14.8753 38.0064 17.5202 37.6331 20.143C37.5886 20.4559 37.7847 20.7529 38.0902 20.8347L38.3143 20.8948L35.8474 22.7745L34.6509 19.9131L34.805 19.9545C34.9816 20.0017 35.1706 19.9691 35.3214 19.8653C35.4723 19.7613 35.5699 19.5965 35.5884 19.4143C35.8704 16.6584 35.0346 14.2942 33.1044 12.3875C32.2634 11.5568 31.2879 10.8943 30.3151 10.3702C32.0457 10.722 33.6924 11.5863 35.0213 12.8864ZM16.0681 32.7023C13.0337 32.5659 7.91415 31.5852 6.67884 26.6617C7.04212 26.6566 7.36634 26.4516 7.52727 26.1239C7.6893 25.7941 7.6497 25.4079 7.42407 25.116L4.93548 21.8955C4.75235 21.6587 4.47571 21.5228 4.17649 21.5228C3.87719 21.5228 3.60055 21.6587 3.41743 21.8956L0.928836 25.116C0.703211 25.408 0.663601 25.7942 0.825633 26.1239C0.988601 26.4557 1.31891 26.6618 1.68766 26.6618H1.68798H1.97509C2.48555 29.4608 4.26376 31.8891 6.92055 33.3844C8.56009 34.307 10.3782 34.7738 12.1761 34.7738C13.5951 34.7738 15.0016 34.483 16.2977 33.8962C16.561 33.7769 16.7082 33.4926 16.6536 33.2087C16.599 32.9248 16.3568 32.7154 16.0681 32.7023ZM7.53376 32.295C5.05509 30.9001 3.45102 28.5916 3.13282 25.9617C3.09485 25.6478 2.82845 25.4118 2.51235 25.4118H2.28016L4.17657 22.9577L6.0729 25.4118H5.91337C5.73024 25.4118 5.55634 25.4921 5.43751 25.6315C5.31876 25.7709 5.26712 25.9554 5.29634 26.1362C5.73735 28.8713 7.15649 30.9385 9.51438 32.2807C10.5416 32.8654 11.6555 33.2529 12.7309 33.5073C10.9684 33.616 9.15368 33.2066 7.53376 32.295Z" fill="url(#paint0_linear_1_11044)"/>
</g>
<defs>
<linearGradient id="paint0_linear_1_11044" x1="20" y1="0.859375" x2="20" y2="39.1407" gradientUnits="userSpaceOnUse">
<stop stop-color="#FFF422"/>
<stop offset="1" stop-color="#AF99FF"/>
</linearGradient>
<clipPath id="clip0_1_11044">
<rect width="40" height="40" fill="white"/>
</clipPath>
</defs>
</svg>
