<svg width="40" height="40" viewBox="0 0 40 40" fill="none" xmlns="http://www.w3.org/2000/svg">
<g clip-path="url(#clip0_1_11051)">
<path d="M21.881 34.5669C22.5868 34.0097 23.0411 33.1474 23.0411 32.1805C23.0411 30.5043 21.6775 29.1405 20.0012 29.1405C18.325 29.1405 16.9613 30.5043 16.9613 32.1805C16.9613 33.1474 17.4156 34.0097 18.1214 34.5669C16.3649 35.272 15.071 36.9323 14.9223 38.9151V38.9152C14.9028 39.1747 14.9929 39.4326 15.1693 39.6227C15.3457 39.8128 15.5962 39.9218 15.8564 39.9218H24.1461C24.4064 39.9218 24.6568 39.8127 24.8332 39.6226C25.0096 39.4324 25.0996 39.1745 25.0802 38.915C24.9314 36.9322 23.6376 35.2719 21.881 34.5669ZM20.0012 30.3905C20.9882 30.3905 21.7911 31.1935 21.7911 32.1805C21.7911 33.1676 20.9882 33.9705 20.0012 33.9705C19.0142 33.9705 18.2113 33.1675 18.2113 32.1805C18.2113 31.1936 19.0142 30.3905 20.0012 30.3905ZM16.2092 38.6719C16.5115 36.8422 18.1159 35.4537 20.0013 35.4537C21.8867 35.4537 23.491 36.8421 23.7934 38.6719H16.2092ZM10.1167 25.0914C10.2931 24.9013 10.3831 24.6434 10.3636 24.3838C10.2149 22.401 8.92105 20.7406 7.16456 20.0356C7.87034 19.4784 8.32464 18.6162 8.32464 17.6493C8.32464 15.973 6.96089 14.6094 5.28472 14.6094C3.60854 14.6094 2.2448 15.9731 2.2448 17.6493C2.2448 18.6162 2.69909 19.4785 3.40487 20.0356C1.64839 20.7407 0.354561 22.401 0.205733 24.3838V24.3839C0.18628 24.6434 0.276358 24.9013 0.452764 25.0914C0.62917 25.2816 0.879639 25.3905 1.13987 25.3905H9.42956C9.68979 25.3906 9.94019 25.2816 10.1167 25.0914ZM5.28464 15.8594C6.27159 15.8594 7.07456 16.6623 7.07456 17.6493C7.07456 18.6362 6.27159 19.4392 5.28464 19.4392C4.29769 19.4392 3.49472 18.6362 3.49472 17.6493C3.49472 16.6623 4.29769 15.8594 5.28464 15.8594ZM1.49253 24.1406C1.79487 22.3109 3.39925 20.9224 5.28464 20.9224C7.17003 20.9224 8.77433 22.3109 9.07667 24.1406H1.49253ZM39.7967 24.3839C39.6479 22.4011 38.3541 20.7408 36.5976 20.0357C37.3034 19.4785 37.7577 18.6163 37.7577 17.6494C37.7577 15.9731 36.3939 14.6095 34.7177 14.6095C33.0414 14.6095 31.6778 15.9732 31.6778 17.6494C31.6778 18.6163 32.1321 19.4786 32.8378 20.0357C31.0814 20.7408 29.7875 22.4011 29.6387 24.3839C29.6192 24.6434 29.7093 24.9014 29.8857 25.0915C30.0621 25.2816 30.3126 25.3906 30.5728 25.3906H38.8625C39.1228 25.3906 39.3733 25.2816 39.5497 25.0913C39.7262 24.9012 39.8162 24.6432 39.7967 24.3839ZM34.7178 15.8594C35.7047 15.8594 36.5078 16.6623 36.5078 17.6493C36.5078 18.6362 35.7048 19.4392 34.7178 19.4392C33.7307 19.4392 32.9278 18.6362 32.9278 17.6493C32.9278 16.6623 33.7307 15.8594 34.7178 15.8594ZM30.9257 24.1406C31.228 22.3109 32.8324 20.9224 34.7178 20.9224C36.6032 20.9224 38.2075 22.3108 38.5098 24.1406H30.9257ZM14.9223 9.85266C14.9028 10.1122 14.9929 10.3702 15.1693 10.5602C15.3457 10.7504 15.5962 10.8594 15.8564 10.8594H24.1461C24.4064 10.8594 24.6568 10.7503 24.8332 10.5602C25.0096 10.37 25.0996 10.1121 25.0802 9.85258C24.9314 7.86977 23.6376 6.20945 21.8811 5.50437C22.5869 4.94719 23.0412 4.08492 23.0412 3.11805C23.0411 1.44187 21.6775 0.078125 20.0012 0.078125C18.325 0.078125 16.9613 1.44187 16.9613 3.11805C16.9613 4.085 17.4156 4.94727 18.1214 5.50437C16.3649 6.20945 15.071 7.86977 14.9223 9.85266ZM20.0012 1.32812C20.9882 1.32812 21.7911 2.13109 21.7911 3.11805C21.7911 4.105 20.9882 4.90805 20.0012 4.90805C19.0142 4.90805 18.2113 4.10508 18.2113 3.11805C18.2113 2.13102 19.0142 1.32812 20.0012 1.32812ZM20.0012 6.39117C21.8866 6.39117 23.491 7.77961 23.7933 9.60938H16.2092C16.5114 7.77969 18.1158 6.39117 20.0012 6.39117ZM25.4371 5.39055C25.4371 5.04539 25.7169 4.76555 26.0621 4.76555H32.374C34.011 4.76555 35.3428 6.09734 35.3428 7.7343V11.0905L36.0894 10.2377C36.3167 9.97789 36.7115 9.95164 36.9714 10.1791C37.231 10.4064 37.2573 10.8012 37.0299 11.061L35.1881 13.1649C35.0694 13.3005 34.898 13.3782 34.7178 13.3782C34.5377 13.3782 34.3663 13.3005 34.2475 13.1649L32.4057 11.061C32.1784 10.8012 32.2046 10.4065 32.4643 10.1791C32.7242 9.95164 33.1189 9.97797 33.3463 10.2377L34.0928 11.0905V7.7343C34.0928 6.78656 33.3218 6.01555 32.3741 6.01555H26.0621C25.7168 6.01555 25.4371 5.73578 25.4371 5.39055ZM35.2357 27.6232V32.3728C35.2357 34.0098 33.9039 35.3416 32.2669 35.3416H27.3482L28.201 36.0883C28.4607 36.3156 28.487 36.7105 28.2596 36.9702C28.136 37.1114 27.9631 37.1835 27.7892 37.1835C27.6431 37.1835 27.4963 37.1326 27.3778 37.0287L25.2739 35.1869C25.1383 35.0682 25.0606 34.8968 25.0606 34.7166C25.0606 34.5365 25.1384 34.3651 25.2739 34.2463L27.3778 32.4045C27.6376 32.1772 28.0324 32.2034 28.2598 32.4631C28.4871 32.7229 28.4609 33.1177 28.2012 33.3451L27.3484 34.0916H32.267C33.2146 34.0916 33.9857 33.3205 33.9857 32.3728V27.6232C33.9857 27.278 34.2656 26.9982 34.6107 26.9982C34.9559 26.9982 35.2357 27.278 35.2357 27.6232ZM14.5654 34.6095C14.5654 34.9546 14.2856 35.2345 13.9404 35.2345H7.62839C6.83714 35.2345 6.09206 34.9252 5.5305 34.3636C4.96894 33.802 4.65972 33.057 4.65972 32.2657V28.9095L3.91308 29.7623C3.68565 30.022 3.29081 30.0483 3.03112 29.8209C2.77144 29.5936 2.74519 29.1988 2.97253 28.939L4.8144 26.8351C4.93308 26.6995 5.10448 26.6218 5.28464 26.6218C5.46479 26.6218 5.6362 26.6996 5.75495 26.8351L7.59675 28.9391C7.82409 29.1988 7.79784 29.5937 7.53815 29.821C7.41956 29.9248 7.27284 29.9757 7.12675 29.9757C6.95276 29.9757 6.77979 29.9035 6.6562 29.7624L5.90964 28.9096V32.2657C5.90964 32.723 6.08886 33.1543 6.41433 33.4798C6.73979 33.8052 7.17097 33.9845 7.62831 33.9845H13.9403C14.2856 33.9845 14.5654 34.2643 14.5654 34.6095ZM4.76675 12.3766V7.62719C4.76675 6.83594 5.07605 6.09086 5.63769 5.52922C6.19925 4.96766 6.94425 4.65844 7.73542 4.65844H12.6542L11.8014 3.91172C11.5417 3.68438 11.5154 3.28953 11.7428 3.02977C11.97 2.77 12.3649 2.74375 12.6247 2.97117L14.7286 4.81305C14.8642 4.93172 14.9419 5.10313 14.9419 5.28328C14.9419 5.46344 14.8642 5.63484 14.7286 5.75359L12.6246 7.59547C12.506 7.6993 12.3593 7.75016 12.2132 7.75016C12.0392 7.75016 11.8663 7.67797 11.7427 7.53687C11.5153 7.27711 11.5416 6.88234 11.8013 6.65492L12.6541 5.90836H7.7355C7.27815 5.90836 6.84706 6.08758 6.52151 6.41305C6.19597 6.73852 6.01675 7.16969 6.01675 7.62703V12.3765C6.01675 12.7216 5.7369 13.0015 5.39175 13.0015C5.04659 13.0015 4.76675 12.7219 4.76675 12.3766ZM27.7021 21.9101C28.0472 21.9101 28.3271 21.6302 28.3271 21.2851V18.7149C28.3271 18.3698 28.0472 18.0899 27.7021 18.0899H26.9062C26.75 17.5229 26.5251 16.9803 26.234 16.4684L26.7971 15.9053C26.9143 15.7881 26.9802 15.6291 26.9802 15.4634C26.9802 15.2976 26.9143 15.1387 26.7971 15.0214L24.9798 13.204C24.8626 13.0868 24.7036 13.0209 24.5378 13.0209C24.3721 13.0209 24.2131 13.0868 24.0959 13.204L23.5328 13.7671C23.0206 13.4759 22.4782 13.251 21.9113 13.0949V12.2991C21.9113 11.9539 21.6314 11.6741 21.2863 11.6741H18.7161C18.371 11.6741 18.0911 11.9539 18.0911 12.2991V13.0949C17.5241 13.2511 16.9815 13.4759 16.4696 13.7671L15.9065 13.2041C15.6625 12.9599 15.2667 12.96 15.0227 13.2041L13.2053 15.0214C13.0881 15.1386 13.0222 15.2976 13.0222 15.4634C13.0222 15.6291 13.0881 15.7881 13.2053 15.9053L13.7684 16.4684C13.4772 16.9805 13.2524 17.523 13.0962 18.0899H12.3004C11.9553 18.0899 11.6754 18.3698 11.6754 18.7149V21.2851C11.6754 21.6302 11.9553 21.9101 12.3004 21.9101H13.0962C13.2524 22.4772 13.4772 23.0198 13.7684 23.5317L13.2054 24.0948C12.9614 24.3388 12.9614 24.7345 13.2054 24.9786L15.0228 26.796C15.14 26.9132 15.2989 26.9791 15.4647 26.9791C15.6305 26.9791 15.7895 26.9132 15.9067 26.796L16.4697 26.233C16.9819 26.5241 17.5244 26.749 18.0913 26.9052V27.7009C18.0913 28.046 18.3711 28.3259 18.7163 28.3259H21.2864C21.6316 28.3259 21.9114 28.046 21.9114 27.7009V26.9051C22.4785 26.7489 23.0211 26.524 23.533 26.2329L24.096 26.7959C24.3401 27.0399 24.7358 27.0399 24.9799 26.7959L26.7973 24.9785C26.9145 24.8613 26.9803 24.7023 26.9803 24.5366C26.9803 24.3708 26.9145 24.2118 26.7973 24.0946L26.2342 23.5315C26.5253 23.0193 26.7503 22.4768 26.9064 21.9099H27.7021V21.9101ZM25.7995 21.1629C25.6484 21.9208 25.3535 22.6323 24.923 23.2774C24.7576 23.5253 24.7903 23.8555 25.001 24.0662L25.4713 24.5366L24.5378 25.4701L24.0675 24.9998C23.8567 24.789 23.5264 24.7563 23.2785 24.9219C22.6338 25.3522 21.9224 25.647 21.1639 25.7984C20.8717 25.8566 20.6612 26.1132 20.6612 26.4112V27.0758H19.341V26.4112C19.341 26.1132 19.1306 25.8566 18.8382 25.7983C18.0802 25.6472 17.3688 25.3523 16.7236 24.9218C16.4757 24.7564 16.1456 24.789 15.9348 24.9998L15.4645 25.4701L14.531 24.5366L15.0013 24.0662C15.2121 23.8555 15.2446 23.5252 15.0792 23.2773C14.6489 22.6327 14.3539 21.9212 14.2028 21.1627C14.1445 20.8705 13.8878 20.6599 13.5898 20.6599H12.9253V19.3398H13.5898C13.8878 19.3398 14.1445 19.1293 14.2028 18.837C14.3539 18.079 14.6488 17.3675 15.0792 16.7224C15.2447 16.4745 15.2121 16.1443 15.0013 15.9336L14.5309 15.4632L15.4644 14.5297L15.9348 15.0001C16.1456 15.2109 16.4758 15.2434 16.7237 15.078C17.3684 14.6477 18.0799 14.3527 18.8382 14.2016C19.1305 14.1433 19.341 13.8866 19.341 13.5886V12.924H20.6612V13.5886C20.6612 13.8866 20.8717 14.1433 21.164 14.2016C21.922 14.3527 22.6334 14.6475 23.2785 15.078C23.5264 15.2435 23.8567 15.2109 24.0674 15.0001L24.5378 14.5297L25.4713 15.4632L25.0009 15.9336C24.7901 16.1443 24.7575 16.4746 24.923 16.7225C25.3533 17.3671 25.6482 18.0785 25.7995 18.837C25.8578 19.1292 26.1143 19.3397 26.4124 19.3397H27.077V20.6598H26.4124C26.1144 20.6601 25.8578 20.8705 25.7995 21.1629ZM20.0013 15.0455C17.2693 15.0455 15.0467 17.268 15.0467 20C15.0467 22.7319 17.2693 24.9545 20.0013 24.9545C22.7332 24.9545 24.9558 22.7319 24.9558 20C24.9558 17.268 22.7332 15.0455 20.0013 15.0455ZM20.0013 23.7045C17.9586 23.7045 16.2967 22.0427 16.2967 20.0001C16.2967 17.9574 17.9585 16.2955 20.0013 16.2955C22.044 16.2955 23.7058 17.9573 23.7058 20.0001C23.7058 22.0427 22.0439 23.7045 20.0013 23.7045Z" fill="url(#paint0_linear_1_11051)"/>
</g>
<defs>
<linearGradient id="paint0_linear_1_11051" x1="20.0012" y1="0.078125" x2="20.0012" y2="39.9218" gradientUnits="userSpaceOnUse">
<stop stop-color="#FFF422"/>
<stop offset="1" stop-color="#AF99FF"/>
</linearGradient>
<clipPath id="clip0_1_11051">
<rect width="40" height="40" fill="white"/>
</clipPath>
</defs>
</svg>
