<svg width="40" height="40" viewBox="0 0 40 40" fill="none" xmlns="http://www.w3.org/2000/svg">
<g clip-path="url(#clip0_1_11030)">
<path d="M39.3359 26.9172H27.0703V16.5639C27.0703 16.2187 26.7905 15.9389 26.4453 15.9389H21.7493V9.79918H30.2282C30.4624 9.79918 30.677 9.66824 30.7841 9.45996C30.8912 9.25168 30.8728 9.00098 30.7366 8.81051L28.2726 5.3666L31.3235 1.89191C31.4855 1.70754 31.5245 1.44535 31.4232 1.22176C31.322 0.998164 31.0993 0.854492 30.8538 0.854492H21.1243H19.093C18.7479 0.854492 18.468 1.13434 18.468 1.47949V15.9387H13.5547C13.2095 15.9387 12.9297 16.2186 12.9297 16.5637V22.5562H0.664062C0.318906 22.5562 0.0390625 22.8361 0.0390625 23.1812V38.5205C0.0390625 38.8657 0.318906 39.1455 0.664062 39.1455H39.3359C39.6811 39.1455 39.9609 38.8657 39.9609 38.5205V27.5422C39.9609 27.1971 39.6811 26.9172 39.3359 26.9172ZM1.28906 23.8064H12.9297V37.8957H1.28906V23.8064ZM27.006 4.91457C26.8144 5.13285 26.7984 5.45441 26.9673 5.69059L29.0126 8.5491H21.7493V2.10457H29.4734L27.006 4.91457ZM19.718 2.10465H20.4993V15.9389H19.718V2.10465ZM25.8203 37.8957H14.1797V17.1889H25.8203V37.8957ZM38.7109 37.8957H27.0703V28.1672H38.7109V37.8957ZM29.9674 17.8666C29.9674 18.6964 30.3155 19.4461 30.8727 19.9786C29.1878 20.7477 28.0133 22.4473 28.0133 24.4171C28.0133 24.7623 28.2931 25.0421 28.6383 25.0421H37.143C37.4881 25.0421 37.768 24.7623 37.768 24.4171C37.768 22.4473 36.5934 20.7477 34.9084 19.9786C35.4657 19.4461 35.8138 18.6964 35.8138 17.8666C35.8138 16.2547 34.5024 14.9433 32.8905 14.9433C31.2787 14.9433 29.9674 16.2547 29.9674 17.8666ZM36.4641 23.7922H29.3172C29.6142 22.0888 31.1036 20.7899 32.8906 20.7899C34.6777 20.7899 36.1671 22.0888 36.4641 23.7922ZM32.8906 16.1933C33.8133 16.1933 34.5639 16.9439 34.5639 17.8666C34.5639 18.7893 33.8133 19.5399 32.8906 19.5399C31.968 19.5399 31.2174 18.7893 31.2174 17.8666C31.2174 16.9439 31.968 16.1933 32.8906 16.1933ZM2.85703 20.6813H11.3617C11.7069 20.6813 11.9867 20.4014 11.9867 20.0563C11.9867 18.0864 10.8122 16.3868 9.12727 15.6178C9.68445 15.0852 10.0326 14.3356 10.0326 13.5057C10.0326 11.8939 8.72125 10.5826 7.10938 10.5826C5.4975 10.5826 4.18609 11.8939 4.18609 13.5057C4.18609 14.3356 4.53422 15.0852 5.09148 15.6178C3.40656 16.3869 2.23195 18.0865 2.23195 20.0563C2.23203 20.4014 2.51187 20.6813 2.85703 20.6813ZM5.43617 13.5057C5.43617 12.5831 6.1868 11.8325 7.10945 11.8325C8.03211 11.8325 8.78266 12.5831 8.78266 13.5057C8.78266 14.4283 8.03211 15.1789 7.10945 15.1789C6.1868 15.1789 5.43617 14.4283 5.43617 13.5057ZM7.10945 16.4289C8.89656 16.4289 10.3859 17.7278 10.6829 19.4313H3.53594C3.83297 17.7278 5.32234 16.4289 7.10945 16.4289Z" fill="url(#paint0_linear_1_11030)"/>
</g>
<defs>
<linearGradient id="paint0_linear_1_11030" x1="20" y1="0.854492" x2="20" y2="39.1455" gradientUnits="userSpaceOnUse">
<stop stop-color="#FFF422"/>
<stop offset="1" stop-color="#AF99FF"/>
</linearGradient>
<clipPath id="clip0_1_11030">
<rect width="40" height="40" fill="white"/>
</clipPath>
</defs>
</svg>
