<svg width="40" height="40" viewBox="0 0 40 40" fill="none" xmlns="http://www.w3.org/2000/svg">
<g clip-path="url(#clip0_1_11037)">
<path d="M38.8965 2.41547H29.9302V1.91352C29.9302 1.56836 29.6504 1.28852 29.3052 1.28852C28.9601 1.28852 28.6802 1.56836 28.6802 1.91352V22.869H21.3277C20.9826 22.869 20.7027 23.1488 20.7027 23.494V28.0767H16.76L16.8248 22.6398C16.8326 21.988 16.5472 21.417 16.0212 21.0319L13.6801 19.3179L13.2505 12.217L17.8788 14.0588C18.3505 14.2466 18.8304 14.2502 19.3048 14.0691L23.8153 12.3486C24.6107 12.0451 25.0317 11.1719 24.7739 10.3608L24.7138 10.1716C24.4513 9.34594 23.5761 8.88352 22.7212 9.11945L18.7248 10.2213L13.4222 7.93852C13.1091 7.80375 12.8047 7.74602 12.4645 7.75789L6.71092 7.95234C6.04311 7.97484 5.46842 8.2618 5.04905 8.78203L0.911393 13.9147C0.619283 14.2771 0.473033 14.6969 0.476627 15.1623L0.520768 20.8749C0.527408 21.7436 1.23952 22.4588 2.10803 22.4691L2.39702 22.4727C3.246 22.4835 3.96131 21.8253 4.01936 20.9755L4.36991 15.8402L5.40631 14.8051L5.62991 20.9832C5.63131 21.0212 5.63616 21.0591 5.64444 21.0963L6.78928 26.2436L4.69077 33.8233H2.29249C1.94733 33.8233 1.66749 34.1031 1.66749 34.4483V39.2969C1.66749 39.642 1.94733 39.9219 2.29249 39.9219C2.63764 39.9219 2.91749 39.642 2.91749 39.2969V35.0733H11.0918C11.4369 35.0733 11.7168 34.7934 11.7168 34.4483V29.3268H21.3277C21.6729 29.3268 21.9527 29.047 21.9527 28.7018V24.1191H34.6035C34.9487 24.1191 35.2285 23.8392 35.2285 23.4941C35.2285 23.1489 34.9487 22.8691 34.6035 22.8691H29.9302V9.10969H38.8965C39.2416 9.10969 39.5215 8.82984 39.5215 8.48469V3.04047C39.5215 2.69531 39.2416 2.41547 38.8965 2.41547ZM8.03545 26.4269C8.0628 26.3282 8.06546 26.2243 8.04319 26.1244L6.87694 20.8809L6.60358 13.3272C6.5946 13.0787 6.43921 12.8592 6.20788 12.7682C5.97671 12.6773 5.71327 12.7318 5.53733 12.9076L3.32061 15.1215C3.21366 15.2283 3.14905 15.3703 3.13874 15.5211L2.77217 20.8904C2.75936 21.0776 2.6035 21.2229 2.41639 21.2229H2.41202L2.12303 21.2194C1.93022 21.217 1.7721 21.0583 1.77061 20.8654L1.72647 15.1527C1.72506 14.9741 1.77241 14.8384 1.88452 14.6992L6.02217 9.56664C6.21194 9.33133 6.451 9.21195 6.75311 9.20172L12.5068 9.00727C12.6625 9.00219 12.7846 9.02508 12.928 9.0868L18.4322 11.4563C18.5626 11.5125 18.7084 11.5225 18.8454 11.4847L23.0535 10.3245C23.2583 10.2683 23.4644 10.3673 23.5226 10.5504L23.5827 10.7395C23.64 10.9196 23.5465 11.1134 23.3698 11.1808L18.8595 12.9013C18.6798 12.9698 18.5199 12.9686 18.3412 12.8976L12.7985 10.6919C12.5998 10.6127 12.3744 10.6409 12.2011 10.7662C12.0278 10.8915 11.9306 11.0967 11.9436 11.3103L12.4502 19.6866C12.4615 19.8722 12.5548 20.0432 12.7048 20.1531L15.283 22.0406C15.4797 22.1847 15.578 22.3813 15.5751 22.625L15.51 28.0768H14.2552L14.0273 23.7818C14.0165 23.578 13.9068 23.3922 13.7334 23.2843L10.4908 21.2663C10.2929 21.143 10.043 21.1402 9.84241 21.259C9.64178 21.3777 9.52389 21.5981 9.53655 21.8308L9.77233 26.1641C9.77905 26.2876 9.76577 26.3903 9.72655 26.5185L7.48725 33.8232H5.98788L8.03561 26.4268L8.03545 26.4269ZM11.0918 28.0768C10.7466 28.0768 10.4668 28.3566 10.4668 28.7018V33.8233H8.79452L10.9216 26.8848C11.0037 26.6167 11.0351 26.3662 11.0205 26.0963L10.8499 22.9621L12.7963 24.1735L13.0034 28.0769H11.0919L11.0918 28.0768ZM38.2715 7.85969H29.9302V3.66547H38.2715V7.85969ZM9.14944 7.36461C11.1583 7.36461 12.7926 5.73031 12.7926 3.72141C12.7926 1.7125 11.1583 0.078125 9.14944 0.078125C7.14053 0.078125 5.50624 1.7125 5.50624 3.72141C5.50624 5.73031 7.14053 7.36461 9.14944 7.36461ZM9.14944 1.32812C10.469 1.32812 11.5426 2.40172 11.5426 3.72141C11.5426 5.04109 10.469 6.11461 9.14944 6.11461C7.82983 6.11461 6.75624 5.04102 6.75624 3.72141C6.75624 2.4018 7.82983 1.32812 9.14944 1.32812Z" fill="url(#paint0_linear_1_11037)"/>
</g>
<defs>
<linearGradient id="paint0_linear_1_11037" x1="19.999" y1="0.078125" x2="19.999" y2="39.9219" gradientUnits="userSpaceOnUse">
<stop stop-color="#FFF422"/>
<stop offset="1" stop-color="#AF99FF"/>
</linearGradient>
<clipPath id="clip0_1_11037">
<rect width="40" height="40" fill="white"/>
</clipPath>
</defs>
</svg>
