<svg width="26" height="26" viewBox="0 0 26 26" fill="none" xmlns="http://www.w3.org/2000/svg">
<path d="M24.96 15.5616L24.4608 15.4752C24.2784 14.688 23.9616 13.9296 23.5392 13.2384L23.8368 12.8352C24.0864 12.4992 24.0768 12.0384 23.8176 11.7024C23.6448 11.4912 23.4624 11.2896 23.2704 11.1072C23.0784 10.9152 22.8768 10.7328 22.6656 10.5504C22.3392 10.3008 21.8784 10.2912 21.5424 10.5408L21.1296 10.8384C20.4384 10.4064 19.6896 10.0992 18.8928 9.9168L18.8064 9.4176C18.7392 9.024 18.432 8.7168 18.0384 8.6496V1.7184C18.0384 0.768001 17.2704 0 16.32 0H1.7184C0.768001 0 0 0.768001 0 1.7184V14.6112C0 15.5616 0.768001 16.3296 1.7184 16.3296H8.6496C8.6496 16.3488 8.64 16.3584 8.64 16.3776C8.6112 16.6464 8.592 16.9152 8.592 17.1936C8.592 17.4624 8.6112 17.7408 8.64 18.0096C8.688 18.4224 9.0048 18.7488 9.4176 18.816L9.9168 18.9024C10.0992 19.6896 10.416 20.448 10.8384 21.1392L10.5504 21.5424C10.3008 21.8784 10.3104 22.3488 10.5696 22.6752C10.7424 22.8864 10.9248 23.088 11.1168 23.2704C11.2896 23.4432 11.4912 23.6256 11.7216 23.8272C12.048 24.0768 12.5088 24.0864 12.8448 23.8368L13.2576 23.5392C13.9488 23.9712 14.6976 24.2784 15.4944 24.4608L15.5808 24.96C15.648 25.3728 15.9744 25.6896 16.3872 25.7376C16.9248 25.7952 17.472 25.7952 18.0192 25.7376C18.432 25.6896 18.7584 25.3728 18.8256 24.96L18.912 24.4608C19.6992 24.2784 20.4576 23.9616 21.1488 23.5392L21.552 23.8368C21.8976 24.0864 22.3584 24.0768 22.6848 23.808C22.9056 23.6256 23.0976 23.4432 23.28 23.2704C23.472 23.0784 23.6544 22.8768 23.8368 22.6656C24.0864 22.3392 24.096 21.8784 23.8464 21.5424L23.5488 21.1296C23.9808 20.4384 24.288 19.6896 24.4704 18.8928L24.9696 18.8064C25.3824 18.7392 25.6992 18.4128 25.7472 18C25.8048 17.4624 25.8048 16.9152 25.7472 16.368C25.6896 15.9648 25.3728 15.6288 24.96 15.5616ZM17.1936 1.7184V8.592C16.9248 8.592 16.6464 8.6112 16.3776 8.6304C15.9648 8.6784 15.6384 9.0048 15.5712 9.408L15.4848 9.9168C15.0336 10.0224 14.6016 10.1664 14.1792 10.3584V0.864H16.3296C16.8 0.864 17.1936 1.248 17.1936 1.7184ZM10.5504 12.8448L10.848 13.2576C10.4256 13.9392 10.1088 14.688 9.9264 15.4752H4.7328V12.4704H10.3968C10.416 12.5952 10.4736 12.7296 10.5504 12.8448ZM13.3248 3.8688H4.7328V0.864H13.3248V3.8688ZM10.6656 11.6064H4.7328V4.7328H13.3248V10.8096C13.3056 10.8192 13.2768 10.8384 13.2576 10.848L12.8544 10.5504C12.5184 10.3008 12.0576 10.3104 11.7216 10.5696C11.5104 10.7424 11.3184 10.9152 11.1264 11.1072C10.9632 11.2704 10.8096 11.4336 10.6656 11.6064ZM0.864 14.6112V1.7184C0.864 1.248 1.248 0.8544 1.728 0.8544H3.8688V15.4656H1.7184C1.248 15.4656 0.864 15.0816 0.864 14.6112ZM24.8832 17.904C24.8736 17.9328 24.8448 17.9616 24.816 17.9616L24.0288 18.0864C23.8464 18.1152 23.712 18.2496 23.6736 18.432C23.5104 19.3152 23.1648 20.1504 22.656 20.8896C22.56 21.0432 22.56 21.2352 22.6656 21.3792L23.136 22.032C23.1552 22.0512 23.1552 22.0896 23.1456 22.1088C22.992 22.2912 22.8288 22.4736 22.656 22.6464C22.4928 22.8096 22.32 22.9632 22.1376 23.1264C22.1088 23.1456 22.0704 23.1456 22.0416 23.1264L21.3984 22.656C21.2544 22.5504 21.0528 22.5504 20.9088 22.6464C20.1696 23.1552 19.3344 23.5008 18.4512 23.664C18.2784 23.7024 18.1344 23.8368 18.1056 24.0192L17.9808 24.8064C17.9808 24.8352 17.952 24.864 17.9232 24.8736C17.4432 24.9312 16.9632 24.9312 16.4832 24.8736C16.4544 24.864 16.4256 24.8448 16.4256 24.8064L16.3008 24.0192C16.272 23.8368 16.1376 23.7024 15.9552 23.664C15.072 23.5008 14.2368 23.1552 13.4976 22.6464C13.344 22.5504 13.152 22.5504 13.008 22.656L12.3552 23.1168C12.336 23.136 12.3072 23.136 12.2784 23.1264C12.0768 22.9536 11.904 22.8 11.7408 22.6368C11.5776 22.4736 11.4144 22.3008 11.2608 22.1184C11.2416 22.0896 11.2416 22.0512 11.2608 22.0224L11.7216 21.3792C11.8272 21.2352 11.8272 21.0336 11.7312 20.8896C11.2224 20.1504 10.8768 19.3152 10.7136 18.432C10.6752 18.2592 10.5408 18.1152 10.3584 18.0864L9.5712 17.9616C9.5424 17.952 9.5136 17.9328 9.504 17.904C9.4464 17.424 9.4464 16.944 9.504 16.464C9.5136 16.4352 9.5328 16.4064 9.5712 16.4064L10.3584 16.2816C10.5408 16.2528 10.6752 16.1184 10.7136 15.936C10.8768 15.0528 11.2224 14.2176 11.7312 13.4784C11.8272 13.3248 11.8272 13.1328 11.7216 12.9888L11.2608 12.336C11.2416 12.3072 11.2416 12.2784 11.2512 12.2496C11.4048 12.0672 11.568 11.8848 11.7408 11.712C11.904 11.5488 12.0768 11.3856 12.2592 11.232C12.288 11.2128 12.3264 11.2128 12.3552 11.232L12.9984 11.6928C13.1424 11.7984 13.344 11.7984 13.488 11.7024C14.2272 11.2032 15.0624 10.8576 15.9456 10.6848C16.1184 10.6464 16.2624 10.512 16.2912 10.3296L16.416 9.5424C16.4256 9.5136 16.4448 9.4752 16.464 9.4752C16.944 9.4272 17.424 9.4272 17.904 9.4752C17.9328 9.4848 17.9616 9.5136 17.9712 9.5424L18.096 10.3296C18.1248 10.512 18.2592 10.6464 18.4416 10.6848C19.3248 10.848 20.16 11.1936 20.8992 11.7024C21.0528 11.7984 21.2448 11.7984 21.3888 11.6928L22.0416 11.232C22.0704 11.2128 22.0992 11.2032 22.128 11.2224C22.32 11.376 22.4928 11.5392 22.6656 11.712C22.8384 11.8752 22.992 12.048 23.1456 12.24C23.1648 12.2688 23.1648 12.3072 23.136 12.3264L22.6752 12.9696C22.5696 13.1136 22.5696 13.3152 22.6656 13.4592C23.1744 14.1984 23.52 15.0336 23.6832 15.9168C23.7216 16.0896 23.856 16.2336 24.0384 16.2624L24.8256 16.3872C24.8544 16.3872 24.8832 16.416 24.8928 16.4448C24.9312 16.944 24.9312 17.424 24.8832 17.904Z" fill="url(#paint0_linear_1_10124)"/>
<path d="M2.58275 3.43652H2.15075C1.91075 3.43652 1.71875 3.62852 1.71875 3.86852C1.71875 4.10852 1.91075 4.30052 2.15075 4.30052H2.58275C2.82275 4.30052 3.01475 4.10852 3.01475 3.86852C3.00515 3.62852 2.81315 3.43652 2.58275 3.43652Z" fill="url(#paint1_linear_1_10124)"/>
<path d="M2.58275 5.15527H2.15075C1.91075 5.15527 1.71875 5.34727 1.71875 5.58727C1.71875 5.82727 1.91075 6.01927 2.15075 6.01927H2.58275C2.82275 6.01927 3.01475 5.82727 3.01475 5.58727C3.01475 5.34727 2.81315 5.15527 2.58275 5.15527Z" fill="url(#paint2_linear_1_10124)"/>
<path d="M2.58275 6.87402H2.15075C1.91075 6.87402 1.71875 7.06602 1.71875 7.30602C1.71875 7.54602 1.91075 7.73802 2.15075 7.73802H2.58275C2.82275 7.73802 3.01475 7.54602 3.01475 7.30602C3.00515 7.06602 2.81315 6.87402 2.58275 6.87402Z" fill="url(#paint3_linear_1_10124)"/>
<path d="M2.58275 8.5918H2.15075C1.91075 8.5918 1.71875 8.7838 1.71875 9.0238C1.71875 9.2638 1.91075 9.4558 2.15075 9.4558H2.58275C2.82275 9.4558 3.01475 9.2638 3.01475 9.0238C3.00515 8.7838 2.81315 8.5918 2.58275 8.5918Z" fill="url(#paint4_linear_1_10124)"/>
<path d="M2.58275 10.3105H2.15075C1.91075 10.3105 1.71875 10.5025 1.71875 10.7425C1.71875 10.9825 1.91075 11.1745 2.15075 11.1745H2.58275C2.82275 11.1745 3.01475 10.9825 3.01475 10.7425C3.01475 10.5025 2.81315 10.3105 2.58275 10.3105Z" fill="url(#paint5_linear_1_10124)"/>
<path d="M2.58275 12.0283H2.15075C1.91075 12.0283 1.71875 12.2203 1.71875 12.4603C1.71875 12.7003 1.91075 12.8923 2.15075 12.8923H2.58275C2.82275 12.8923 3.01475 12.7003 3.01475 12.4603C3.00515 12.2203 2.81315 12.0283 2.58275 12.0283Z" fill="url(#paint6_linear_1_10124)"/>
<path d="M2.58275 13.7471H2.15075C1.91075 13.7471 1.71875 13.9391 1.71875 14.1791C1.71875 14.4191 1.91075 14.6111 2.15075 14.6111H2.58275C2.82275 14.6111 3.01475 14.4191 3.01475 14.1791C3.00515 13.9391 2.81315 13.7471 2.58275 13.7471Z" fill="url(#paint7_linear_1_10124)"/>
<path d="M15.4652 4.30052H15.8972C16.1372 4.30052 16.3292 4.10852 16.3292 3.86852C16.3292 3.62852 16.1372 3.43652 15.8972 3.43652H15.4652C15.2252 3.43652 15.0332 3.62852 15.0332 3.86852C15.0428 4.10852 15.2348 4.30052 15.4652 4.30052Z" fill="url(#paint8_linear_1_10124)"/>
<path d="M2.15075 2.58275H2.58275C2.82275 2.58275 3.01475 2.39075 3.01475 2.15075C3.01475 1.91075 2.82275 1.71875 2.58275 1.71875H2.15075C1.91075 1.71875 1.71875 1.91075 1.71875 2.15075C1.71875 2.39075 1.91075 2.58275 2.15075 2.58275Z" fill="url(#paint9_linear_1_10124)"/>
<path d="M15.4652 2.58275H15.8972C16.1372 2.58275 16.3292 2.39075 16.3292 2.15075C16.3292 1.91075 16.1372 1.71875 15.8972 1.71875H15.4652C15.2252 1.71875 15.0332 1.91075 15.0332 2.15075C15.0332 2.39075 15.2348 2.58275 15.4652 2.58275Z" fill="url(#paint10_linear_1_10124)"/>
<path d="M15.4652 6.01927H15.8972C16.1372 6.01927 16.3292 5.82727 16.3292 5.58727C16.3292 5.34727 16.1372 5.15527 15.8972 5.15527H15.4652C15.2252 5.15527 15.0332 5.34727 15.0332 5.58727C15.0332 5.82727 15.2348 6.01927 15.4652 6.01927Z" fill="url(#paint11_linear_1_10124)"/>
<path d="M15.8972 6.87402H15.4652C15.2252 6.87402 15.0332 7.06602 15.0332 7.30602C15.0332 7.54602 15.2252 7.73802 15.4652 7.73802H15.8972C16.1372 7.73802 16.3292 7.54602 16.3292 7.30602C16.3292 7.06602 16.1372 6.87402 15.8972 6.87402Z" fill="url(#paint12_linear_1_10124)"/>
<path d="M11.6055 8.16986C11.6055 7.85306 11.4519 7.54586 11.1831 7.37306L8.79269 5.76026C8.50469 5.55866 8.13029 5.53946 7.81349 5.71226C7.49669 5.87546 7.30469 6.21146 7.30469 6.56666V9.79226C7.30469 10.1475 7.49669 10.4739 7.81349 10.6467C8.12069 10.8099 8.49509 10.7907 8.79269 10.5987L11.1831 8.98586C11.4423 8.78426 11.6055 8.48666 11.6055 8.16986ZM10.6935 8.25626L8.30309 9.86906C8.27429 9.88826 8.23589 9.88826 8.20709 9.87866C8.16869 9.85946 8.14949 9.82106 8.14949 9.78266V6.55706C8.14949 6.51866 8.16869 6.48026 8.20709 6.46106C8.21669 6.45146 8.23589 6.45146 8.24549 6.45146C8.26469 6.45146 8.28389 6.46106 8.29349 6.47066L10.6839 8.08346C10.7127 8.10266 10.7319 8.14106 10.7319 8.16986C10.7415 8.19866 10.7319 8.23706 10.6935 8.25626Z" fill="url(#paint13_linear_1_10124)"/>
<path d="M17.1943 12.0283C14.3431 12.0283 12.0391 14.3323 12.0391 17.1835C12.0391 20.0347 14.3431 22.3387 17.1943 22.3387C20.0455 22.3387 22.3495 20.0347 22.3495 17.1835C22.3399 14.3419 20.0359 12.0379 17.1943 12.0283ZM17.1943 21.4843C14.8231 21.4843 12.8935 19.5643 12.8935 17.1835C12.8935 14.8027 14.8135 12.8827 17.1943 12.8827C19.5655 12.8827 21.4951 14.8027 21.4951 17.1835C21.4855 19.5643 19.5655 21.4843 17.1943 21.4843Z" fill="url(#paint14_linear_1_10124)"/>
<path d="M17.1943 14.1797C15.5335 14.1797 14.1895 15.5237 14.1895 17.1845C14.1895 18.8453 15.5335 20.1893 17.1943 20.1893C18.8551 20.1893 20.1991 18.8453 20.1991 17.1845C20.1991 15.5333 18.8455 14.1797 17.1943 14.1797ZM17.1943 19.3349C16.0039 19.3349 15.0439 18.3749 15.0439 17.1845C15.0439 15.9941 16.0039 15.0341 17.1943 15.0341C18.3847 15.0341 19.3447 15.9941 19.3447 17.1845C19.3351 18.3749 18.3751 19.3349 17.1943 19.3349Z" fill="url(#paint15_linear_1_10124)"/>
<defs>
<linearGradient id="paint0_linear_1_10124" x1="12.8952" y1="0" x2="12.8952" y2="25.7808" gradientUnits="userSpaceOnUse">
<stop stop-color="#FFF422"/>
<stop offset="1" stop-color="#AF99FF"/>
</linearGradient>
<linearGradient id="paint1_linear_1_10124" x1="2.36675" y1="3.43652" x2="2.36675" y2="4.30052" gradientUnits="userSpaceOnUse">
<stop stop-color="#FFF422"/>
<stop offset="1" stop-color="#AF99FF"/>
</linearGradient>
<linearGradient id="paint2_linear_1_10124" x1="2.36675" y1="5.15527" x2="2.36675" y2="6.01927" gradientUnits="userSpaceOnUse">
<stop stop-color="#FFF422"/>
<stop offset="1" stop-color="#AF99FF"/>
</linearGradient>
<linearGradient id="paint3_linear_1_10124" x1="2.36675" y1="6.87402" x2="2.36675" y2="7.73802" gradientUnits="userSpaceOnUse">
<stop stop-color="#FFF422"/>
<stop offset="1" stop-color="#AF99FF"/>
</linearGradient>
<linearGradient id="paint4_linear_1_10124" x1="2.36675" y1="8.5918" x2="2.36675" y2="9.4558" gradientUnits="userSpaceOnUse">
<stop stop-color="#FFF422"/>
<stop offset="1" stop-color="#AF99FF"/>
</linearGradient>
<linearGradient id="paint5_linear_1_10124" x1="2.36675" y1="10.3105" x2="2.36675" y2="11.1745" gradientUnits="userSpaceOnUse">
<stop stop-color="#FFF422"/>
<stop offset="1" stop-color="#AF99FF"/>
</linearGradient>
<linearGradient id="paint6_linear_1_10124" x1="2.36675" y1="12.0283" x2="2.36675" y2="12.8923" gradientUnits="userSpaceOnUse">
<stop stop-color="#FFF422"/>
<stop offset="1" stop-color="#AF99FF"/>
</linearGradient>
<linearGradient id="paint7_linear_1_10124" x1="2.36675" y1="13.7471" x2="2.36675" y2="14.6111" gradientUnits="userSpaceOnUse">
<stop stop-color="#FFF422"/>
<stop offset="1" stop-color="#AF99FF"/>
</linearGradient>
<linearGradient id="paint8_linear_1_10124" x1="15.6812" y1="3.43652" x2="15.6812" y2="4.30052" gradientUnits="userSpaceOnUse">
<stop stop-color="#FFF422"/>
<stop offset="1" stop-color="#AF99FF"/>
</linearGradient>
<linearGradient id="paint9_linear_1_10124" x1="2.36675" y1="1.71875" x2="2.36675" y2="2.58275" gradientUnits="userSpaceOnUse">
<stop stop-color="#FFF422"/>
<stop offset="1" stop-color="#AF99FF"/>
</linearGradient>
<linearGradient id="paint10_linear_1_10124" x1="15.6812" y1="1.71875" x2="15.6812" y2="2.58275" gradientUnits="userSpaceOnUse">
<stop stop-color="#FFF422"/>
<stop offset="1" stop-color="#AF99FF"/>
</linearGradient>
<linearGradient id="paint11_linear_1_10124" x1="15.6812" y1="5.15527" x2="15.6812" y2="6.01927" gradientUnits="userSpaceOnUse">
<stop stop-color="#FFF422"/>
<stop offset="1" stop-color="#AF99FF"/>
</linearGradient>
<linearGradient id="paint12_linear_1_10124" x1="15.6812" y1="6.87402" x2="15.6812" y2="7.73802" gradientUnits="userSpaceOnUse">
<stop stop-color="#FFF422"/>
<stop offset="1" stop-color="#AF99FF"/>
</linearGradient>
<linearGradient id="paint13_linear_1_10124" x1="9.45509" y1="5.59473" x2="9.45509" y2="10.757" gradientUnits="userSpaceOnUse">
<stop stop-color="#FFF422"/>
<stop offset="1" stop-color="#AF99FF"/>
</linearGradient>
<linearGradient id="paint14_linear_1_10124" x1="17.1943" y1="12.0283" x2="17.1943" y2="22.3387" gradientUnits="userSpaceOnUse">
<stop stop-color="#FFF422"/>
<stop offset="1" stop-color="#AF99FF"/>
</linearGradient>
<linearGradient id="paint15_linear_1_10124" x1="17.1943" y1="14.1797" x2="17.1943" y2="20.1893" gradientUnits="userSpaceOnUse">
<stop stop-color="#FFF422"/>
<stop offset="1" stop-color="#AF99FF"/>
</linearGradient>
</defs>
</svg>
