<svg width="20" height="27" viewBox="0 0 20 27" fill="none" xmlns="http://www.w3.org/2000/svg">
<path d="M18.0576 9.4056L16.08 7.8696L19.0176 4.932C20.1408 3.8088 20.1408 1.9656 19.0176 0.8424C17.8944 -0.2808 16.0512 -0.2808 14.928 0.8424L11.328 4.4328C9.84 3.8376 8.1312 4.02 6.7872 4.9896C6.7776 4.9896 6.7776 4.9992 6.7776 4.9992L1.0848 9.4056C0.403199 9.8952 0 10.692 0 11.5272V24.2952C0 25.7448 1.1808 26.916 2.6304 26.916H16.512C17.9616 26.916 19.1424 25.7352 19.1424 24.2952V11.5272C19.1328 10.692 18.7296 9.8952 18.0576 9.4056ZM15.6672 1.5816C16.0128 1.236 16.4736 1.044 16.9728 1.044C17.4624 1.044 17.9232 1.236 18.2784 1.5816C18.624 1.9272 18.816 2.388 18.816 2.8872C18.816 3.3768 18.624 3.8376 18.2784 4.1928L15.2448 7.2264L12.3648 4.9992L12.3552 4.9896C12.336 4.98 12.3264 4.9704 12.3072 4.9512L15.6672 1.5816ZM18.0864 24.2952C18.0864 25.1592 17.376 25.8696 16.512 25.8696H2.6208C1.7472 25.8696 1.0464 25.1688 1.0464 24.2952V11.5272C1.0464 11.028 1.2864 10.548 1.6992 10.2504C1.7088 10.2504 1.7088 10.2408 1.7088 10.2408L7.4016 5.8344C8.3136 5.1816 9.4464 4.9896 10.4928 5.2584L9.792 5.9592C9.6096 6.1416 9.456 6.3528 9.3312 6.564C7.8432 6.6888 6.672 7.9272 6.672 9.444C6.672 11.0376 7.968 12.3336 9.5616 12.3336C11.1552 12.3336 12.4512 11.0376 12.4512 9.444C12.4512 8.1864 11.6448 7.1112 10.512 6.7176C10.5216 6.708 10.5216 6.708 10.5312 6.6984L11.5296 5.7C11.5968 5.7384 17.4144 10.2312 17.4144 10.2312L17.424 10.2408C17.8368 10.5384 18.0768 11.0088 18.0768 11.5176L18.0864 24.2952ZM9.792 10.0584C10.0992 10.3656 10.4736 10.596 10.8768 10.74C10.5408 11.0856 10.08 11.2968 9.5616 11.2968C8.544 11.2968 7.7184 10.4712 7.7184 9.4536C7.7184 8.6472 8.2368 7.9656 8.9568 7.716C8.88 8.5512 9.1584 9.4248 9.792 10.0584ZM10.5408 9.3192C10.1376 8.916 9.9264 8.244 10.032 7.6776C10.8192 7.8792 11.4048 8.6088 11.4048 9.4632C11.4048 9.5784 11.3952 9.6936 11.376 9.7992C11.0592 9.7128 10.7712 9.5496 10.5408 9.3192Z" fill="url(#paint0_linear_1_10092)"/>
<path d="M3.93695 21.1367C2.91935 21.1367 2.09375 21.9623 2.09375 22.9799C2.09375 23.9975 2.91935 24.8231 3.93695 24.8231C4.95455 24.8231 5.78015 23.9975 5.78015 22.9799C5.78015 21.9623 4.95455 21.1367 3.93695 21.1367ZM3.93695 23.7671C3.50495 23.7671 3.14975 23.4119 3.14975 22.9799C3.14975 22.5479 3.50495 22.1927 3.93695 22.1927C4.36895 22.1927 4.72415 22.5479 4.72415 22.9799C4.72415 23.4119 4.36895 23.7671 3.93695 23.7671Z" fill="url(#paint1_linear_1_10092)"/>
<path d="M12.2502 23.2393H8.15105C7.86305 23.2393 7.62305 23.4793 7.62305 23.7673C7.62305 24.0553 7.86305 24.2953 8.15105 24.2953H12.2502C12.5382 24.2953 12.7782 24.0553 12.7782 23.7673C12.7782 23.4793 12.5382 23.2393 12.2502 23.2393Z" fill="url(#paint2_linear_1_10092)"/>
<path d="M14.3522 23.2393C14.0642 23.2393 13.8242 23.4793 13.8242 23.7673C13.8242 24.0553 14.0642 24.2953 14.3522 24.2953C14.6402 24.2953 14.8802 24.0553 14.8802 23.7673C14.8802 23.4793 14.6402 23.2393 14.3522 23.2393Z" fill="url(#paint3_linear_1_10092)"/>
<path d="M16.5126 21.1367H8.15105C7.86305 21.1367 7.62305 21.3767 7.62305 21.6647C7.62305 21.9527 7.86305 22.1927 8.15105 22.1927H16.5126C16.8006 22.1927 17.0406 21.9527 17.0406 21.6647C17.0406 21.3767 16.8006 21.1367 16.5126 21.1367Z" fill="url(#paint4_linear_1_10092)"/>
<path d="M14.401 17.3447H2.62175C2.33375 17.3447 2.09375 17.5847 2.09375 17.8727C2.09375 18.1607 2.33375 18.4007 2.62175 18.4007H14.401C14.689 18.4007 14.929 18.1607 14.929 17.8727C14.929 17.5847 14.6986 17.3447 14.401 17.3447Z" fill="url(#paint5_linear_1_10092)"/>
<path d="M8.09245 15.2422C7.80445 15.2422 7.56445 15.4822 7.56445 15.7702C7.56445 16.0582 7.80445 16.2982 8.09245 16.2982C8.38045 16.2982 8.62045 16.0582 8.62045 15.7702C8.62045 15.4822 8.38045 15.2422 8.09245 15.2422Z" fill="url(#paint6_linear_1_10092)"/>
<path d="M5.99135 15.2422H2.62175C2.33375 15.2422 2.09375 15.4822 2.09375 15.7702C2.09375 16.0582 2.33375 16.2982 2.62175 16.2982H5.99135C6.27935 16.2982 6.51935 16.0582 6.51935 15.7702C6.51935 15.4822 6.27935 15.2422 5.99135 15.2422Z" fill="url(#paint7_linear_1_10092)"/>
<path d="M16.5129 15.2422H10.2057C9.91773 15.2422 9.67773 15.4822 9.67773 15.7702C9.67773 16.0582 9.91773 16.2982 10.2057 16.2982H16.5129C16.8009 16.2982 17.0409 16.0582 17.0409 15.7702C17.0313 15.4822 16.8009 15.2422 16.5129 15.2422Z" fill="url(#paint8_linear_1_10092)"/>
<defs>
<linearGradient id="paint0_linear_1_10092" x1="9.93" y1="0" x2="9.93" y2="26.916" gradientUnits="userSpaceOnUse">
<stop stop-color="#FFF422"/>
<stop offset="1" stop-color="#AF99FF"/>
</linearGradient>
<linearGradient id="paint1_linear_1_10092" x1="3.93695" y1="21.1367" x2="3.93695" y2="24.8231" gradientUnits="userSpaceOnUse">
<stop stop-color="#FFF422"/>
<stop offset="1" stop-color="#AF99FF"/>
</linearGradient>
<linearGradient id="paint2_linear_1_10092" x1="10.2006" y1="23.2393" x2="10.2006" y2="24.2953" gradientUnits="userSpaceOnUse">
<stop stop-color="#FFF422"/>
<stop offset="1" stop-color="#AF99FF"/>
</linearGradient>
<linearGradient id="paint3_linear_1_10092" x1="14.3522" y1="23.2393" x2="14.3522" y2="24.2953" gradientUnits="userSpaceOnUse">
<stop stop-color="#FFF422"/>
<stop offset="1" stop-color="#AF99FF"/>
</linearGradient>
<linearGradient id="paint4_linear_1_10092" x1="12.3318" y1="21.1367" x2="12.3318" y2="22.1927" gradientUnits="userSpaceOnUse">
<stop stop-color="#FFF422"/>
<stop offset="1" stop-color="#AF99FF"/>
</linearGradient>
<linearGradient id="paint5_linear_1_10092" x1="8.51135" y1="17.3447" x2="8.51135" y2="18.4007" gradientUnits="userSpaceOnUse">
<stop stop-color="#FFF422"/>
<stop offset="1" stop-color="#AF99FF"/>
</linearGradient>
<linearGradient id="paint6_linear_1_10092" x1="8.09245" y1="15.2422" x2="8.09245" y2="16.2982" gradientUnits="userSpaceOnUse">
<stop stop-color="#FFF422"/>
<stop offset="1" stop-color="#AF99FF"/>
</linearGradient>
<linearGradient id="paint7_linear_1_10092" x1="4.30655" y1="15.2422" x2="4.30655" y2="16.2982" gradientUnits="userSpaceOnUse">
<stop stop-color="#FFF422"/>
<stop offset="1" stop-color="#AF99FF"/>
</linearGradient>
<linearGradient id="paint8_linear_1_10092" x1="13.3593" y1="15.2422" x2="13.3593" y2="16.2982" gradientUnits="userSpaceOnUse">
<stop stop-color="#FFF422"/>
<stop offset="1" stop-color="#AF99FF"/>
</linearGradient>
</defs>
</svg>
