<svg width="25" height="24" viewBox="0 0 25 24" fill="none" xmlns="http://www.w3.org/2000/svg">
<path d="M15.7613 2.39562C15.5597 2.39562 15.3965 2.23241 15.3965 2.03081C15.3965 1.82921 15.5597 1.66602 15.7613 1.66602C15.9629 1.66602 16.1261 1.82921 16.1261 2.03081C16.1261 2.23241 15.9629 2.39562 15.7613 2.39562Z" fill="url(#paint0_linear_1_10044)"/>
<path d="M17.689 2.39562C17.4874 2.39562 17.3242 2.23241 17.3242 2.03081C17.3242 1.82921 17.4874 1.66602 17.689 1.66602C17.8906 1.66602 18.0538 1.82921 18.0538 2.03081C18.0538 2.23241 17.8906 2.39562 17.689 2.39562Z" fill="url(#paint1_linear_1_10044)"/>
<path d="M19.6168 2.39562C19.4152 2.39562 19.252 2.23241 19.252 2.03081C19.252 1.82921 19.4152 1.66602 19.6168 1.66602C19.8184 1.66602 19.9816 1.82921 19.9816 2.03081C19.9816 2.23241 19.8184 2.39562 19.6168 2.39562Z" fill="url(#paint2_linear_1_10044)"/>
<path d="M19.7486 14.5665H4.97417C4.77257 14.5665 4.60938 14.4033 4.60938 14.2017C4.60938 14.0001 4.77257 13.8369 4.97417 13.8369H19.7486C19.9502 13.8369 20.1134 14.0001 20.1134 14.2017C20.1134 14.4033 19.9502 14.5665 19.7486 14.5665Z" fill="url(#paint3_linear_1_10044)"/>
<path d="M11.0211 14.9829C10.8195 14.9829 10.6562 14.8197 10.6562 14.6181V13.7925C10.6562 13.5909 10.8195 13.4277 11.0211 13.4277C11.2226 13.4277 11.3859 13.5909 11.3859 13.7925V14.6181C11.3859 14.8197 11.2226 14.9829 11.0211 14.9829Z" fill="url(#paint4_linear_1_10044)"/>
<path d="M17.7973 21.1415H7.52534C7.38134 21.1415 7.25654 21.0551 7.19894 20.9303C7.14134 20.8055 7.16054 20.6519 7.24694 20.5463L9.27254 18.1463C9.33974 18.0695 9.44534 18.0215 9.55094 18.0215H15.7717C15.8773 18.0215 15.9829 18.0695 16.0501 18.1463L18.0757 20.5463C18.1621 20.6519 18.1909 20.8055 18.1237 20.9303C18.0661 21.0647 17.9413 21.1415 17.7973 21.1415ZM8.30294 20.4215H17.0197L15.6085 18.7415H9.72374L8.30294 20.4215Z" fill="url(#paint5_linear_1_10044)"/>
<path d="M19.6069 23.4965H5.72533C5.24533 23.4965 4.86133 23.1125 4.86133 22.6325V21.9509C4.86133 21.0965 5.55253 20.4053 6.40693 20.4053H18.9445C19.7989 20.4053 20.4901 21.0965 20.4901 21.9509V22.6325C20.4709 23.1125 20.0869 23.4965 19.6069 23.4965ZM6.39733 21.1445C5.94613 21.1445 5.58133 21.5093 5.58133 21.9605V22.6421C5.58133 22.7189 5.64853 22.7861 5.72533 22.7861H19.6165C19.6933 22.7861 19.7605 22.7189 19.7605 22.6421V21.9605C19.7605 21.5093 19.3957 21.1445 18.9445 21.1445H6.39733Z" fill="url(#paint6_linear_1_10044)"/>
<path d="M24.3554 16.4376H0.374565C0.172965 16.4376 0.00976562 16.2744 0.00976562 16.0728C0.00976562 15.8712 0.172965 15.708 0.374565 15.708H24.365C24.5666 15.708 24.7298 15.8712 24.7298 16.0728C24.7202 16.284 24.557 16.4376 24.3554 16.4376Z" fill="url(#paint7_linear_1_10044)"/>
<path d="M10.7416 10.6442C10.7224 10.6442 10.7128 10.6442 10.6936 10.6442C10.5592 10.625 10.4344 10.529 10.396 10.4042C9.69523 8.34016 7.41043 7.25536 6.00883 7.25536C5.99923 7.25536 5.98963 7.25536 5.98003 7.25536C5.77843 7.25536 5.62483 7.09216 5.61523 6.90016C5.61523 6.69856 5.76883 6.53536 5.97043 6.53536C6.85363 6.52576 7.92883 6.86176 8.84083 7.43776C9.47443 7.84096 10.2712 8.50336 10.7992 9.51136C11.2984 8.80096 12.2104 7.75456 13.5256 7.32256C13.7176 7.25536 13.9192 7.36096 13.9864 7.55296C14.0536 7.74496 13.948 7.94656 13.756 8.01376C12.2488 8.51296 11.3176 10.001 11.0776 10.4426C10.972 10.6058 10.8376 10.6442 10.7416 10.6442Z" fill="url(#paint8_linear_1_10044)"/>
<path d="M18.8591 12.2669H5.87029C5.28469 12.2669 4.80469 11.7869 4.80469 11.2013C4.80469 10.6157 5.28469 10.1357 5.87029 10.1357H18.8591C19.4447 10.1357 19.9247 10.6157 19.9247 11.2013C19.9247 11.7965 19.4447 12.2669 18.8591 12.2669ZM5.87029 10.8557C5.68789 10.8557 5.52469 11.0093 5.52469 11.2013C5.52469 11.3837 5.67829 11.5469 5.87029 11.5469H18.8591C19.0511 11.5469 19.2047 11.3933 19.2047 11.2013C19.2047 11.0093 19.0511 10.8557 18.8591 10.8557H5.87029Z" fill="url(#paint9_linear_1_10044)"/>
<path d="M16.1816 8.52994C16.1336 8.52994 16.0952 8.52994 16.0472 8.52034C15.26 8.44354 14.684 7.75234 14.7608 6.96514C14.8376 6.17794 15.5288 5.60194 16.316 5.67874C17.1032 5.75554 17.6792 6.44674 17.6024 7.23394C17.5352 7.97314 16.9112 8.52994 16.1816 8.52994ZM16.1144 7.80994C16.4984 7.84834 16.844 7.56034 16.8824 7.17634C16.9208 6.79234 16.6328 6.44674 16.2488 6.40834C15.8648 6.36994 15.5192 6.65794 15.4808 7.04194C15.4424 7.42594 15.7304 7.77154 16.1144 7.80994Z" fill="url(#paint10_linear_1_10044)"/>
<path d="M21.8878 4.07433H13.1998C12.9982 4.07433 12.835 3.91113 12.835 3.70953C12.835 3.50793 12.9982 3.34473 13.1998 3.34473H21.8878C22.0894 3.34473 22.2526 3.50793 22.2526 3.70953C22.2526 3.91113 22.0894 4.07433 21.8878 4.07433ZM11.5294 4.07433H2.84136C2.63976 4.07433 2.47656 3.91113 2.47656 3.70953C2.47656 3.50793 2.63976 3.34473 2.84136 3.34473H11.5294C11.731 3.34473 11.8942 3.50793 11.8942 3.70953C11.8846 3.91113 11.7214 4.07433 11.5294 4.07433Z" fill="url(#paint11_linear_1_10044)"/>
<path d="M23.5872 18.7392H1.1424C0.5184 18.7392 0.00960059 18.2112 0.00960059 17.568V10.2048C0.00960059 10.0032 0.1728 9.84 0.3744 9.84C0.576 9.84 0.7392 10.0032 0.7392 10.2048V17.568C0.7392 17.8176 0.9216 18.0192 1.152 18.0192H23.5968C23.8176 18.0192 24.0096 17.8176 24.0096 17.568V1.1712C24.0096 0.931201 23.8176 0.72 23.5968 0.72H1.1424C0.912 0.72 0.729601 0.921601 0.729601 1.1712V8.5344C0.729601 8.736 0.5664 8.8992 0.3648 8.8992C0.1632 8.8992 0 8.736 0 8.5344V1.1712C0 0.528001 0.5088 0 1.1328 0H23.5776C24.2016 0 24.7104 0.528001 24.7104 1.1712V17.568C24.72 18.2112 24.2112 18.7392 23.5872 18.7392Z" fill="url(#paint12_linear_1_10044)"/>
<defs>
<linearGradient id="paint0_linear_1_10044" x1="15.7613" y1="1.66602" x2="15.7613" y2="2.39562" gradientUnits="userSpaceOnUse">
<stop stop-color="#FFF422"/>
<stop offset="1" stop-color="#AF99FF"/>
</linearGradient>
<linearGradient id="paint1_linear_1_10044" x1="17.689" y1="1.66602" x2="17.689" y2="2.39562" gradientUnits="userSpaceOnUse">
<stop stop-color="#FFF422"/>
<stop offset="1" stop-color="#AF99FF"/>
</linearGradient>
<linearGradient id="paint2_linear_1_10044" x1="19.6168" y1="1.66602" x2="19.6168" y2="2.39562" gradientUnits="userSpaceOnUse">
<stop stop-color="#FFF422"/>
<stop offset="1" stop-color="#AF99FF"/>
</linearGradient>
<linearGradient id="paint3_linear_1_10044" x1="12.3614" y1="13.8369" x2="12.3614" y2="14.5665" gradientUnits="userSpaceOnUse">
<stop stop-color="#FFF422"/>
<stop offset="1" stop-color="#AF99FF"/>
</linearGradient>
<linearGradient id="paint4_linear_1_10044" x1="11.0211" y1="13.4277" x2="11.0211" y2="14.9829" gradientUnits="userSpaceOnUse">
<stop stop-color="#FFF422"/>
<stop offset="1" stop-color="#AF99FF"/>
</linearGradient>
<linearGradient id="paint5_linear_1_10044" x1="12.6634" y1="18.0215" x2="12.6634" y2="21.1415" gradientUnits="userSpaceOnUse">
<stop stop-color="#FFF422"/>
<stop offset="1" stop-color="#AF99FF"/>
</linearGradient>
<linearGradient id="paint6_linear_1_10044" x1="12.6757" y1="20.4053" x2="12.6757" y2="23.4965" gradientUnits="userSpaceOnUse">
<stop stop-color="#FFF422"/>
<stop offset="1" stop-color="#AF99FF"/>
</linearGradient>
<linearGradient id="paint7_linear_1_10044" x1="12.3698" y1="15.708" x2="12.3698" y2="16.4376" gradientUnits="userSpaceOnUse">
<stop stop-color="#FFF422"/>
<stop offset="1" stop-color="#AF99FF"/>
</linearGradient>
<linearGradient id="paint8_linear_1_10044" x1="9.81098" y1="6.53516" x2="9.81098" y2="10.6442" gradientUnits="userSpaceOnUse">
<stop stop-color="#FFF422"/>
<stop offset="1" stop-color="#AF99FF"/>
</linearGradient>
<linearGradient id="paint9_linear_1_10044" x1="12.3647" y1="10.1357" x2="12.3647" y2="12.2669" gradientUnits="userSpaceOnUse">
<stop stop-color="#FFF422"/>
<stop offset="1" stop-color="#AF99FF"/>
</linearGradient>
<linearGradient id="paint10_linear_1_10044" x1="16.1816" y1="5.67188" x2="16.1816" y2="8.52994" gradientUnits="userSpaceOnUse">
<stop stop-color="#FFF422"/>
<stop offset="1" stop-color="#AF99FF"/>
</linearGradient>
<linearGradient id="paint11_linear_1_10044" x1="12.3646" y1="3.34473" x2="12.3646" y2="4.07433" gradientUnits="userSpaceOnUse">
<stop stop-color="#FFF422"/>
<stop offset="1" stop-color="#AF99FF"/>
</linearGradient>
<linearGradient id="paint12_linear_1_10044" x1="12.3553" y1="0" x2="12.3553" y2="18.7392" gradientUnits="userSpaceOnUse">
<stop stop-color="#FFF422"/>
<stop offset="1" stop-color="#AF99FF"/>
</linearGradient>
</defs>
</svg>
