<svg width="15" height="25" viewBox="0 0 15 25" fill="none" xmlns="http://www.w3.org/2000/svg">
<path d="M14.352 8.5152C14.0544 8.5152 13.824 8.7552 13.824 9.0432V10.1088H12.7584V5.3184C12.7584 5.1264 12.7488 4.9248 12.7296 4.7424C12.7296 4.7328 12.7296 4.7328 12.7296 4.7232C12.432 2.0736 10.176 0 7.44 0C4.704 0 2.448 2.0736 2.1504 4.7232C2.1504 4.7328 2.1504 4.7328 2.1504 4.7424C2.1312 4.9344 2.1216 5.1264 2.1216 5.3184V10.1088H1.056V9.0528C1.056 8.7552 0.816 8.5248 0.528 8.5248C0.24 8.5248 0 8.7648 0 9.0528V12.7776C0 16.704 3.0624 19.9392 6.9216 20.208V22.992H3.1968C2.8992 22.992 2.6688 23.232 2.6688 23.52C2.6688 23.8176 2.9088 24.048 3.1968 24.048H11.712C12.0096 24.048 12.24 23.808 12.24 23.52C12.24 23.2224 12 22.992 11.712 22.992H7.9872V20.208C11.8464 19.9296 14.9088 16.704 14.9088 12.7776V9.0528C14.88 8.7552 14.64 8.5152 14.352 8.5152ZM3.168 9.5808H11.6832V12.7776C11.6832 15.1296 9.7728 17.04 7.4208 17.04C5.0688 17.04 3.1584 15.1296 3.1584 12.7776V9.5808H3.168ZM7.4304 1.0656C9.408 1.0656 11.0784 2.4288 11.5584 4.2624H10.6272C10.3296 4.2624 10.0992 4.5024 10.0992 4.7904C10.0992 5.0784 10.3392 5.3184 10.6272 5.3184H11.6928V6.384H10.6272C10.3296 6.384 10.0992 6.624 10.0992 6.912C10.0992 7.2 10.3392 7.44 10.6272 7.44H11.6928V8.5056H3.1776V7.44H4.2432C4.5408 7.44 4.7712 7.2 4.7712 6.912C4.7712 6.624 4.5312 6.384 4.2432 6.384H3.1776V5.3184H4.2432C4.5408 5.3184 4.7712 5.0784 4.7712 4.7904C4.7712 4.5024 4.5312 4.2624 4.2432 4.2624H3.3024C3.7824 2.4192 5.4528 1.0656 7.4304 1.0656ZM7.4304 19.1616C3.9072 19.1616 1.0464 16.3008 1.0464 12.7776V11.184H2.112V12.7776C2.112 15.7152 4.5024 18.096 7.4304 18.096C10.3584 18.096 12.7488 15.7056 12.7488 12.7776V11.184H13.8144V12.7776C13.8144 16.2912 10.9536 19.1616 7.4304 19.1616Z" fill="url(#paint0_linear_1_10086)"/>
<defs>
<linearGradient id="paint0_linear_1_10086" x1="7.4544" y1="0" x2="7.4544" y2="24.048" gradientUnits="userSpaceOnUse">
<stop stop-color="#FFF422"/>
<stop offset="1" stop-color="#AF99FF"/>
</linearGradient>
</defs>
</svg>
