<svg width="21" height="23" viewBox="0 0 21 23" fill="none" xmlns="http://www.w3.org/2000/svg">
<path d="M19.7197 0H2.6029C1.9885 0 1.4893 0.499199 1.4893 1.1136V5.8752C0.481304 6.0864 -0.171497 7.0656 0.039703 8.0736C0.116503 8.4288 0.289303 8.7552 0.548503 9.0144L1.4893 9.9552V21.1968C1.4893 21.8112 1.9885 22.3104 2.6029 22.3104H19.7101C20.3245 22.3104 20.8237 21.8112 20.8237 21.1968V1.1136C20.8333 0.499199 20.3341 0 19.7197 0ZM1.0669 6.912C1.4509 6.528 2.0461 6.4704 2.4973 6.7872L0.942104 8.3424C0.644504 7.8912 0.692504 7.296 1.0669 6.912ZM11.6365 16.944L12.0109 17.664C12.0397 17.7216 12.0205 17.7984 11.9629 17.8368C11.9245 17.856 11.8861 17.856 11.8477 17.8368L11.1277 17.4624C11.2237 17.232 11.4061 17.04 11.6365 16.944ZM10.4557 17.1168L9.1501 16.4448L10.6093 14.9856L11.2813 16.2912C10.9261 16.4544 10.6285 16.752 10.4557 17.1168ZM3.0349 9.3984L9.0829 15.4464L8.5549 15.9744L2.5069 9.9264L3.0349 9.3984ZM9.6109 14.928L3.5629 8.88L4.0909 8.352L10.1389 14.4L9.6109 14.928ZM1.9789 9.408L1.4509 8.88L3.0349 7.296L3.5629 7.824L1.9789 9.408ZM20.0845 21.1968C20.0845 21.3984 19.9213 21.5712 19.7101 21.5712H2.6029C2.4013 21.5712 2.2285 21.408 2.2285 21.1968V10.704L8.2957 16.7712C8.3725 16.848 8.4685 16.9152 8.5741 16.9728L11.4925 18.4896C11.9149 18.7104 12.4429 18.5472 12.6637 18.1152C12.7981 17.8656 12.7981 17.568 12.6637 17.3088L11.1853 14.4672C11.1373 14.3616 11.0605 14.2752 10.9837 14.1888L3.1789 6.3936C2.9197 6.1344 2.5933 5.9616 2.2285 5.8848V1.1136C2.2285 0.911999 2.3917 0.7392 2.6029 0.7392H19.7101C19.9117 0.7392 20.0845 0.902399 20.0845 1.1136V21.1968Z" fill="url(#paint0_linear_1_10023)"/>
<path d="M17.4824 2.97559H4.83924C4.63764 2.97559 4.46484 3.13879 4.46484 3.34999C4.46484 3.55159 4.62804 3.72439 4.83924 3.72439H17.4824C17.684 3.72439 17.8568 3.56119 17.8568 3.34999C17.8568 3.13879 17.6936 2.97559 17.4824 2.97559Z" fill="url(#paint1_linear_1_10023)"/>
<path d="M17.4824 5.20312H4.83924C4.63764 5.20312 4.46484 5.36632 4.46484 5.57752C4.46484 5.77912 4.62804 5.95193 4.83924 5.95193H17.4824C17.684 5.95193 17.8568 5.78872 17.8568 5.57752C17.8568 5.36632 17.6936 5.20312 17.4824 5.20312Z" fill="url(#paint2_linear_1_10023)"/>
<path d="M17.4827 7.44043H6.32752C6.12592 7.44043 5.95312 7.60363 5.95312 7.81483C5.95312 8.01643 6.11632 8.18923 6.32752 8.18923H17.4827C17.6843 8.18923 17.8571 8.02603 17.8571 7.81483C17.8571 7.60363 17.6939 7.44043 17.4827 7.44043Z" fill="url(#paint3_linear_1_10023)"/>
<path d="M17.4821 9.66699H8.55409C8.35249 9.66699 8.17969 9.83019 8.17969 10.0414C8.17969 10.243 8.34289 10.4158 8.55409 10.4158H17.4821C17.6837 10.4158 17.8565 10.2526 17.8565 10.0414C17.8565 9.83019 17.6933 9.66699 17.4821 9.66699Z" fill="url(#paint4_linear_1_10023)"/>
<path d="M17.4836 11.8945H10.7924C10.5908 11.8945 10.418 12.0577 10.418 12.2689C10.418 12.4801 10.5812 12.6433 10.7924 12.6433H17.4836C17.6852 12.6433 17.858 12.4801 17.858 12.2689C17.858 12.0577 17.6948 11.8945 17.4836 11.8945Z" fill="url(#paint5_linear_1_10023)"/>
<path d="M17.4839 14.1309H12.2806C12.079 14.1309 11.9062 14.2941 11.9062 14.5053C11.9062 14.7165 12.0694 14.8797 12.2806 14.8797H17.4839C17.6855 14.8797 17.8583 14.7165 17.8583 14.5053C17.8583 14.2941 17.6951 14.1309 17.4839 14.1309Z" fill="url(#paint6_linear_1_10023)"/>
<path d="M4.83924 17.1072H6.70164C6.90324 17.1072 7.07604 16.944 7.07604 16.7328C7.07604 16.5216 6.91284 16.3584 6.70164 16.3584H4.83924C4.63764 16.3584 4.46484 16.5216 4.46484 16.7328C4.46484 16.944 4.62804 17.1072 4.83924 17.1072Z" fill="url(#paint7_linear_1_10023)"/>
<path d="M17.4822 16.3584H13.767C13.5654 16.3584 13.3926 16.5216 13.3926 16.7328C13.3926 16.944 13.5558 17.1072 13.767 17.1072H17.4822C17.6838 17.1072 17.8566 16.944 17.8566 16.7328C17.8566 16.5216 17.6934 16.3584 17.4822 16.3584Z" fill="url(#paint8_linear_1_10023)"/>
<path d="M10.0424 18.5947H4.83924C4.63764 18.5947 4.46484 18.7579 4.46484 18.9691C4.46484 19.1803 4.62804 19.3435 4.83924 19.3435H10.0424C10.244 19.3435 10.4168 19.1803 10.4168 18.9691C10.4168 18.7579 10.2536 18.5947 10.0424 18.5947Z" fill="url(#paint9_linear_1_10023)"/>
<defs>
<linearGradient id="paint0_linear_1_10023" x1="10.4119" y1="0" x2="10.4119" y2="22.3104" gradientUnits="userSpaceOnUse">
<stop stop-color="#FFF422"/>
<stop offset="1" stop-color="#AF99FF"/>
</linearGradient>
<linearGradient id="paint1_linear_1_10023" x1="11.1608" y1="2.97559" x2="11.1608" y2="3.72439" gradientUnits="userSpaceOnUse">
<stop stop-color="#FFF422"/>
<stop offset="1" stop-color="#AF99FF"/>
</linearGradient>
<linearGradient id="paint2_linear_1_10023" x1="11.1608" y1="5.20312" x2="11.1608" y2="5.95193" gradientUnits="userSpaceOnUse">
<stop stop-color="#FFF422"/>
<stop offset="1" stop-color="#AF99FF"/>
</linearGradient>
<linearGradient id="paint3_linear_1_10023" x1="11.9051" y1="7.44043" x2="11.9051" y2="8.18923" gradientUnits="userSpaceOnUse">
<stop stop-color="#FFF422"/>
<stop offset="1" stop-color="#AF99FF"/>
</linearGradient>
<linearGradient id="paint4_linear_1_10023" x1="13.0181" y1="9.66699" x2="13.0181" y2="10.4158" gradientUnits="userSpaceOnUse">
<stop stop-color="#FFF422"/>
<stop offset="1" stop-color="#AF99FF"/>
</linearGradient>
<linearGradient id="paint5_linear_1_10023" x1="14.138" y1="11.8945" x2="14.138" y2="12.6433" gradientUnits="userSpaceOnUse">
<stop stop-color="#FFF422"/>
<stop offset="1" stop-color="#AF99FF"/>
</linearGradient>
<linearGradient id="paint6_linear_1_10023" x1="14.8823" y1="14.1309" x2="14.8823" y2="14.8797" gradientUnits="userSpaceOnUse">
<stop stop-color="#FFF422"/>
<stop offset="1" stop-color="#AF99FF"/>
</linearGradient>
<linearGradient id="paint7_linear_1_10023" x1="5.77044" y1="16.3584" x2="5.77044" y2="17.1072" gradientUnits="userSpaceOnUse">
<stop stop-color="#FFF422"/>
<stop offset="1" stop-color="#AF99FF"/>
</linearGradient>
<linearGradient id="paint8_linear_1_10023" x1="15.6246" y1="16.3584" x2="15.6246" y2="17.1072" gradientUnits="userSpaceOnUse">
<stop stop-color="#FFF422"/>
<stop offset="1" stop-color="#AF99FF"/>
</linearGradient>
<linearGradient id="paint9_linear_1_10023" x1="7.44084" y1="18.5947" x2="7.44084" y2="19.3435" gradientUnits="userSpaceOnUse">
<stop stop-color="#FFF422"/>
<stop offset="1" stop-color="#AF99FF"/>
</linearGradient>
</defs>
</svg>
