<svg width="25" height="25" viewBox="0 0 25 25" fill="none" xmlns="http://www.w3.org/2000/svg">
<path d="M22.6454 20.1888V4.38722C23.7014 4.24322 24.5174 3.33122 24.5174 2.23682C24.5174 1.03682 23.5382 0.0576172 22.3382 0.0576172C21.2438 0.0576172 20.3318 0.873618 20.1878 1.92962H4.38624C4.24224 0.873618 3.33024 0.0576172 2.23584 0.0576172C1.03584 0.0576172 0.0566406 1.03682 0.0566406 2.23682C0.0566406 3.33122 0.872641 4.24322 1.92864 4.38722V20.1984C0.872641 20.352 0.0566406 21.2544 0.0566406 22.3488C0.0566406 23.5488 1.03584 24.528 2.23584 24.528C3.33024 24.528 4.24224 23.712 4.38624 22.656H20.1974C20.3414 23.712 21.2534 24.528 22.3478 24.528C23.5478 24.528 24.527 23.5488 24.527 22.3488C24.5174 21.2544 23.7014 20.3424 22.6454 20.1888ZM20.1878 22.0416H4.38624C4.25184 21.0816 3.49344 20.3232 2.53344 20.1888V4.38722C3.49344 4.25282 4.25184 3.49442 4.38624 2.53442H20.1974C20.3318 3.49442 21.0902 4.25282 22.0502 4.38722V20.1984C21.0806 20.3232 20.3222 21.0816 20.1878 22.0416ZM22.3478 0.662417C23.2118 0.662417 23.9126 1.36322 23.9126 2.22722C23.9126 3.09122 23.2118 3.79202 22.3478 3.79202C21.4838 3.79202 20.783 3.09122 20.783 2.22722C20.783 1.36322 21.4838 0.662417 22.3478 0.662417ZM0.66144 2.22722C0.66144 1.36322 1.36224 0.662417 2.22624 0.662417C3.09024 0.662417 3.79104 1.36322 3.79104 2.22722C3.79104 3.09122 3.09024 3.79202 2.22624 3.79202C1.36224 3.79202 0.66144 3.09122 0.66144 2.22722ZM2.22624 23.9136C1.36224 23.9136 0.66144 23.2128 0.66144 22.3488C0.66144 21.4848 1.36224 20.784 2.22624 20.784C3.09024 20.784 3.79104 21.4848 3.79104 22.3488C3.79104 23.2128 3.09024 23.9136 2.22624 23.9136ZM22.3478 23.9136C21.4838 23.9136 20.783 23.2128 20.783 22.3488C20.783 21.4848 21.4838 20.784 22.3478 20.784C23.2118 20.784 23.9126 21.4848 23.9126 22.3488C23.9126 23.2128 23.2118 23.9136 22.3478 23.9136ZM6.53664 8.48642C8.65824 10.368 10.4918 11.2512 12.287 11.2512C14.0822 11.2512 15.9158 10.3776 18.0374 8.48642C18.1046 8.42882 18.143 8.34242 18.143 8.25602C18.143 8.16962 18.1046 8.08322 18.0374 8.02562C15.8294 6.15362 14.0534 5.31842 12.2966 5.31842C10.5398 5.31842 8.76384 6.15362 6.55584 8.02562C6.48864 8.08322 6.45024 8.16962 6.45024 8.25602C6.45024 8.34242 6.46944 8.42882 6.53664 8.48642ZM12.287 5.94242C13.5734 5.94242 14.6294 6.98882 14.6294 8.28482C14.6294 9.58082 13.583 10.6176 12.287 10.6176C11.0006 10.6176 9.94464 9.57122 9.94464 8.27522C9.94464 6.97922 11.0006 5.94242 12.287 5.94242ZM14.6006 10.1088C15.0038 9.60962 15.2342 8.97602 15.2342 8.28482C15.2342 7.59362 14.9942 6.96002 14.6006 6.46082C15.455 6.84482 16.3574 7.44002 17.3654 8.26562C16.3766 9.11042 15.4646 9.72482 14.6006 10.1088ZM9.97344 6.46082C9.57984 6.96002 9.33984 7.59362 9.33984 8.28482C9.33984 8.97602 9.57984 9.60962 9.97344 10.1088C9.09984 9.71522 8.18784 9.11042 7.19904 8.26562C8.21664 7.44002 9.12864 6.84482 9.97344 6.46082ZM12.287 9.81122C13.1222 9.81122 13.8134 9.12962 13.8134 8.28482C13.8134 7.44962 13.1318 6.75842 12.287 6.75842C11.4518 6.75842 10.7606 7.44002 10.7606 8.28482C10.7606 9.12962 11.4518 9.81122 12.287 9.81122ZM12.287 7.37282C12.7958 7.37282 13.199 7.78562 13.199 8.28482C13.199 8.79362 12.7862 9.19682 12.287 9.19682C11.7782 9.19682 11.375 8.78402 11.375 8.28482C11.375 7.77602 11.7782 7.37282 12.287 7.37282ZM11.9798 4.26242V3.41762C11.9798 3.24482 12.1142 3.11042 12.287 3.11042C12.4598 3.11042 12.5942 3.24482 12.5942 3.41762V4.26242C12.5942 4.43522 12.4598 4.56962 12.287 4.56962C12.1142 4.56962 11.9798 4.43522 11.9798 4.26242ZM8.13984 4.56962C8.02464 4.45442 8.02464 4.26242 8.13984 4.13762C8.25504 4.02242 8.44704 4.02242 8.57184 4.13762L9.65664 5.22242C9.77184 5.33762 9.77184 5.52962 9.65664 5.65442C9.59904 5.71202 9.52224 5.74082 9.44544 5.74082C9.36864 5.74082 9.29184 5.71202 9.23424 5.65442L8.13984 4.56962ZM14.9174 5.65442C14.8022 5.53922 14.8022 5.34722 14.9174 5.22242L16.0022 4.13762C16.1174 4.02242 16.3094 4.02242 16.4342 4.13762C16.5494 4.25282 16.5494 4.44482 16.4342 4.56962L15.3494 5.65442C15.2918 5.71202 15.215 5.74082 15.1382 5.74082C15.0614 5.74082 14.975 5.72162 14.9174 5.65442ZM20.255 11.9808H12.287H9.48384C9.31104 11.9808 9.17664 12.1152 9.17664 12.288V20.7648C9.17664 20.9376 9.31104 21.072 9.48384 21.072H12.287H20.255C20.4278 21.072 20.5622 20.9376 20.5622 20.7648V16.4256V12.288C20.5622 12.1152 20.4182 11.9808 20.255 11.9808ZM19.9478 16.1184H12.5942V12.5952H19.9478V16.1184ZM9.79104 12.5952H11.9798V16.4256V20.4672H9.79104V12.5952ZM19.9478 20.4672H12.5942V16.7328H19.9478V20.4672ZM8.62944 12.72C8.62944 12.8928 8.49504 13.0272 8.32224 13.0272H3.81984C3.64704 13.0272 3.51264 12.8928 3.51264 12.72C3.51264 12.5472 3.64704 12.4128 3.81984 12.4128H8.32224C8.49504 12.4128 8.62944 12.5568 8.62944 12.72ZM3.51264 14.5152C3.51264 14.3424 3.64704 14.208 3.81984 14.208H7.06464C7.23744 14.208 7.37184 14.3424 7.37184 14.5152C7.37184 14.688 7.23744 14.8224 7.06464 14.8224H3.81984C3.64704 14.8224 3.51264 14.688 3.51264 14.5152ZM8.62944 16.3104C8.62944 16.4832 8.49504 16.6176 8.32224 16.6176H3.81984C3.64704 16.6176 3.51264 16.4832 3.51264 16.3104C3.51264 16.1376 3.64704 16.0032 3.81984 16.0032H8.32224C8.49504 16.0032 8.62944 16.1376 8.62944 16.3104ZM8.62944 18.1056C8.62944 18.2784 8.49504 18.4128 8.32224 18.4128H4.79904C4.62624 18.4128 4.49184 18.2784 4.49184 18.1056C4.49184 17.9328 4.62624 17.7984 4.79904 17.7984H8.32224C8.49504 17.7984 8.62944 17.9328 8.62944 18.1056ZM8.62944 19.9008C8.62944 20.0736 8.49504 20.208 8.32224 20.208H3.81984C3.64704 20.208 3.51264 20.0736 3.51264 19.9008C3.51264 19.728 3.64704 19.5936 3.81984 19.5936H8.32224C8.49504 19.5936 8.62944 19.728 8.62944 19.9008Z" fill="url(#paint0_linear_1_10016)"/>
<path d="M22.3488 24.5664C21.264 24.5664 20.3232 23.7696 20.1504 22.6944H4.4256C4.2528 23.76 3.3216 24.5664 2.2272 24.5664C0.9984 24.5664 0 23.568 0 22.3392C0 21.2544 0.7968 20.3136 1.872 20.1408V4.4256C0.8064 4.2528 0 3.3216 0 2.2272C0 0.9984 0.9984 0 2.2272 0C3.312 0 4.2528 0.7968 4.4256 1.872H20.1504C20.3232 0.8064 21.2544 0 22.3488 0C23.5776 0 24.576 0.9984 24.576 2.2272C24.576 3.312 23.7792 4.2528 22.704 4.4256V20.1504C23.7696 20.3232 24.576 21.2544 24.576 22.3488C24.5664 23.568 23.568 24.5664 22.3488 24.5664ZM4.3392 22.5984H20.2272L20.2368 22.6368C20.3808 23.6832 21.2928 24.4704 22.3392 24.4704C23.5104 24.4704 24.4704 23.52 24.4704 22.3392C24.4704 21.2832 23.6832 20.3808 22.6464 20.2368L22.608 20.2272V4.3392L22.6464 4.3296C23.6928 4.1856 24.48 3.2736 24.48 2.2272C24.48 1.056 23.5296 0.096 22.3488 0.096C21.2928 0.096 20.3904 0.883201 20.2464 1.9296L20.2368 1.968H4.3392L4.3296 1.9296C4.1856 0.883201 3.2736 0.096 2.2272 0.096C1.056 0.096 0.096 1.0464 0.096 2.2272C0.096 3.2832 0.883201 4.1856 1.9296 4.3296L1.968 4.3392V20.2272L1.9296 20.2368C0.883201 20.3808 0.096 21.2928 0.096 22.3392C0.096 23.5104 1.0464 24.4704 2.2272 24.4704C3.2832 24.4704 4.1856 23.6832 4.3296 22.6368L4.3392 22.5984ZM22.3488 23.9616C21.456 23.9616 20.736 23.2416 20.736 22.3488C20.736 21.456 21.456 20.736 22.3488 20.736C23.2416 20.736 23.9616 21.456 23.9616 22.3488C23.9616 23.232 23.232 23.9616 22.3488 23.9616ZM22.3488 20.832C21.5136 20.832 20.832 21.5136 20.832 22.3488C20.832 23.184 21.5136 23.8656 22.3488 23.8656C23.184 23.8656 23.8656 23.184 23.8656 22.3488C23.8656 21.5136 23.184 20.832 22.3488 20.832ZM2.2272 23.9616C1.3344 23.9616 0.614399 23.2416 0.614399 22.3488C0.614399 21.456 1.3344 20.736 2.2272 20.736C3.12 20.736 3.84 21.456 3.84 22.3488C3.84 22.7808 3.6768 23.184 3.3696 23.4912C3.0624 23.7888 2.6592 23.9616 2.2272 23.9616ZM2.2272 20.832C1.392 20.832 0.710399 21.5136 0.710399 22.3488C0.710399 23.184 1.392 23.8656 2.2272 23.8656C2.6304 23.8656 3.0144 23.712 3.3024 23.424C3.5904 23.136 3.744 22.752 3.744 22.3488C3.744 21.5136 3.0624 20.832 2.2272 20.832ZM20.2368 22.0896H4.3392L4.3296 22.0512C4.1952 21.12 3.456 20.3712 2.5248 20.2464L2.4864 20.2368V4.3392L2.5248 4.3296C3.456 4.1952 4.2048 3.456 4.3296 2.5248L4.3392 2.4864H20.2272L20.2368 2.5248C20.3712 3.456 21.1104 4.2048 22.0416 4.3296L22.08 4.3392V20.2272L22.0416 20.2368C21.1104 20.3712 20.3616 21.1104 20.2368 22.0416V22.0896ZM4.4256 21.9936H20.1504C20.304 21.0528 21.0528 20.304 21.9936 20.1504V4.4256C21.0528 4.272 20.304 3.5232 20.1504 2.5824H4.4256C4.272 3.5232 3.5232 4.272 2.5824 4.4256V20.1504C3.5232 20.304 4.272 21.0528 4.4256 21.9936ZM20.256 21.12H9.4848C9.2928 21.12 9.1296 20.9664 9.1296 20.7648V12.288C9.1296 12.096 9.2832 11.9328 9.4848 11.9328H20.256C20.448 11.9328 20.6112 12.0864 20.6112 12.288V20.7648C20.6112 20.9568 20.448 21.12 20.256 21.12ZM9.4848 12.0288C9.3408 12.0288 9.2256 12.144 9.2256 12.288V20.7648C9.2256 20.9088 9.3408 21.024 9.4848 21.024H20.256C20.4 21.024 20.5152 20.9088 20.5152 20.7648V12.288C20.5152 12.144 20.4 12.0288 20.256 12.0288H9.4848ZM19.9968 20.5152H12.5472V16.6848H19.9968V20.5152ZM12.6432 20.4192H19.9008V16.7808H12.6432V20.4192ZM12.0288 20.5152H9.744V12.5472H12.0288V20.5152ZM9.84 20.4192H11.9328V12.6432H9.84V20.4192ZM8.3232 20.2464H3.8208C3.6288 20.2464 3.4656 20.0928 3.4656 19.8912C3.4656 19.6992 3.6192 19.536 3.8208 19.536H8.3232C8.5152 19.536 8.6784 19.6896 8.6784 19.8912C8.6784 20.0928 8.5152 20.2464 8.3232 20.2464ZM3.8208 19.6416C3.6768 19.6416 3.5616 19.7568 3.5616 19.9008C3.5616 20.0448 3.6768 20.16 3.8208 20.16H8.3232C8.4672 20.16 8.5824 20.0448 8.5824 19.9008C8.5824 19.7568 8.4672 19.6416 8.3232 19.6416H3.8208ZM8.3232 18.4608H4.8C4.608 18.4608 4.4448 18.3072 4.4448 18.1056C4.4448 17.9136 4.5984 17.7504 4.8 17.7504H8.3232C8.5152 17.7504 8.6784 17.904 8.6784 18.1056C8.6784 18.2976 8.5152 18.4608 8.3232 18.4608ZM4.8 17.8464C4.656 17.8464 4.5408 17.9616 4.5408 18.1056C4.5408 18.2496 4.656 18.3648 4.8 18.3648H8.3232C8.4672 18.3648 8.5824 18.2496 8.5824 18.1056C8.5824 17.9616 8.4672 17.8464 8.3232 17.8464H4.8ZM8.3232 16.6656H3.8208C3.6288 16.6656 3.4656 16.512 3.4656 16.3104C3.4656 16.1184 3.6192 15.9552 3.8208 15.9552H8.3232C8.5152 15.9552 8.6784 16.1088 8.6784 16.3104C8.6784 16.5024 8.5152 16.6656 8.3232 16.6656ZM3.8208 16.0512C3.6768 16.0512 3.5616 16.1664 3.5616 16.3104C3.5616 16.4544 3.6768 16.5696 3.8208 16.5696H8.3232C8.4672 16.5696 8.5824 16.4544 8.5824 16.3104C8.5824 16.1664 8.4672 16.0512 8.3232 16.0512H3.8208ZM19.9968 16.1664H12.5472V12.5472H19.9968V16.1664ZM12.6432 16.0704H19.9008V12.6432H12.6432V16.0704ZM7.0656 14.8704H3.8208C3.6288 14.8704 3.4656 14.7168 3.4656 14.5152C3.4656 14.3136 3.6192 14.16 3.8208 14.16H7.0656C7.2576 14.16 7.4208 14.3136 7.4208 14.5152C7.4208 14.7168 7.2576 14.8704 7.0656 14.8704ZM3.8208 14.256C3.6768 14.256 3.5616 14.3712 3.5616 14.5152C3.5616 14.6592 3.6768 14.7744 3.8208 14.7744H7.0656C7.2096 14.7744 7.3248 14.6592 7.3248 14.5152C7.3248 14.3712 7.2096 14.256 7.0656 14.256H3.8208ZM8.3232 13.0752H3.8208C3.6288 13.0752 3.4656 12.9216 3.4656 12.72C3.4656 12.5184 3.6192 12.3648 3.8208 12.3648H8.3232C8.5152 12.3648 8.6784 12.5184 8.6784 12.72C8.6784 12.9216 8.5152 13.0752 8.3232 13.0752ZM3.8208 12.4608C3.6768 12.4608 3.5616 12.576 3.5616 12.72C3.5616 12.864 3.6768 12.9792 3.8208 12.9792H8.3232C8.4672 12.9792 8.5824 12.864 8.5824 12.72C8.5824 12.576 8.4672 12.4608 8.3232 12.4608H3.8208ZM12.288 11.2992C10.4736 11.2992 8.64 10.416 6.5088 8.5248C6.432 8.4576 6.3936 8.3616 6.3936 8.256C6.3936 8.1504 6.4416 8.0544 6.5184 7.9872C8.736 6.1056 10.5216 5.2608 12.2976 5.2608C14.0736 5.2608 15.8496 6.096 18.0768 7.9872C18.1536 8.0544 18.2016 8.1504 18.2016 8.256C18.2016 8.3616 18.1632 8.4576 18.0864 8.5248C15.936 10.416 14.1024 11.2992 12.288 11.2992ZM6.5664 8.448C8.6784 10.3296 10.5024 11.2032 12.288 11.2032C14.0736 11.2032 15.888 10.3296 18.0096 8.448C18.0672 8.4 18.096 8.3232 18.096 8.256C18.096 8.1792 18.0576 8.112 18.0096 8.064C15.8112 6.192 14.0448 5.3664 12.2976 5.3664C10.5504 5.3664 8.784 6.2016 6.5856 8.064C6.528 8.112 6.4992 8.1792 6.4992 8.256C6.48 8.3328 6.5184 8.4 6.5664 8.448ZM12.288 10.6656C10.9728 10.6656 9.8976 9.6 9.8976 8.2752C9.8976 6.96 10.9632 5.8944 12.288 5.8944C13.6128 5.8944 14.6784 6.96 14.6784 8.2848C14.6784 9.6 13.6032 10.6656 12.288 10.6656ZM12.288 5.9904C11.0208 5.9904 9.9936 7.0176 9.9936 8.2752C9.9936 9.5424 11.0208 10.5696 12.288 10.5696C13.5552 10.5696 14.5824 9.5424 14.5824 8.2848C14.5824 7.0176 13.5552 5.9904 12.288 5.9904ZM14.4384 10.2336L14.5632 10.08C14.976 9.5616 15.1872 8.9376 15.1872 8.2848C15.1872 7.632 14.9664 7.008 14.5632 6.4896L14.4384 6.336L14.6208 6.4128C15.4656 6.7968 16.3776 7.3824 17.3952 8.2272L17.4432 8.2656L17.3952 8.304C16.3968 9.1584 15.4848 9.7632 14.6112 10.1568L14.4384 10.2336ZM14.7552 6.5856C15.1008 7.0848 15.2832 7.6704 15.2832 8.2848C15.2832 8.8992 15.1008 9.4848 14.7456 9.9936C15.5424 9.6096 16.3776 9.0432 17.2896 8.2752C16.368 7.5072 15.5328 6.9504 14.7552 6.5856ZM10.1376 10.2336L9.9552 10.1568C9.0816 9.7632 8.1696 9.1584 7.1712 8.304L7.1232 8.2656L7.1712 8.2272C8.1984 7.392 9.1008 6.7968 9.9456 6.4128L10.128 6.336L10.0032 6.4896C9.5904 7.008 9.3792 7.632 9.3792 8.2848C9.3792 8.9472 9.6 9.5616 10.0032 10.08L10.1376 10.2336ZM7.2864 8.2656C8.1984 9.0432 9.0336 9.6096 9.8304 9.984C9.4848 9.4848 9.2928 8.8992 9.2928 8.2752C9.2928 7.6608 9.4752 7.0752 9.8208 6.576C9.0432 6.9504 8.208 7.5072 7.2864 8.2656ZM12.288 9.8592C11.424 9.8592 10.7136 9.1584 10.7136 8.2848C10.7136 7.4208 11.4144 6.7104 12.288 6.7104C13.1616 6.7104 13.8624 7.4112 13.8624 8.2848C13.8624 9.1488 13.152 9.8592 12.288 9.8592ZM12.288 6.8064C11.472 6.8064 10.8096 7.4688 10.8096 8.2848C10.8096 9.1008 11.472 9.7632 12.288 9.7632C13.104 9.7632 13.7664 9.1008 13.7664 8.2848C13.7664 7.4688 13.104 6.8064 12.288 6.8064ZM12.288 9.2448C11.76 9.2448 11.328 8.8128 11.328 8.2848C11.328 7.7568 11.76 7.3248 12.288 7.3248C12.816 7.3248 13.248 7.7568 13.248 8.2848C13.248 8.8128 12.816 9.2448 12.288 9.2448ZM12.288 7.4208C11.808 7.4208 11.424 7.8048 11.424 8.2848C11.424 8.7648 11.808 9.1488 12.288 9.1488C12.768 9.1488 13.152 8.7648 13.152 8.2848C13.152 7.8048 12.768 7.4208 12.288 7.4208ZM15.1296 5.7984C15.0336 5.7984 14.9472 5.76 14.88 5.6928C14.7456 5.5584 14.7456 5.328 14.88 5.1936L15.9648 4.1088C16.0992 3.9744 16.3296 3.9744 16.464 4.1088C16.5984 4.2432 16.5984 4.4736 16.464 4.608L15.3792 5.6928C15.312 5.76 15.2256 5.7984 15.1296 5.7984ZM16.2144 4.0992C16.1472 4.0992 16.08 4.128 16.032 4.176L14.9472 5.2608C14.8512 5.3568 14.8512 5.52 14.9472 5.6256C15.0432 5.7216 15.216 5.7216 15.312 5.6256L16.3968 4.5408C16.4928 4.4448 16.4928 4.2816 16.3968 4.176C16.3488 4.128 16.2816 4.0992 16.2144 4.0992ZM9.4464 5.7984C9.3504 5.7984 9.264 5.76 9.1968 5.6928L8.112 4.608C7.9776 4.4736 7.9776 4.2432 8.112 4.1088C8.2464 3.9744 8.4768 3.9744 8.6112 4.1088L9.696 5.1936C9.8304 5.328 9.8304 5.5584 9.696 5.6928C9.6288 5.76 9.5424 5.7984 9.4464 5.7984ZM8.3616 4.0992C8.2944 4.0992 8.2272 4.128 8.1792 4.176C8.0832 4.272 8.0832 4.4352 8.1792 4.5408L9.264 5.6256C9.36 5.7216 9.5328 5.7216 9.6288 5.6256C9.7248 5.5296 9.7248 5.3664 9.6288 5.2608L8.544 4.176C8.4864 4.128 8.4288 4.0992 8.3616 4.0992ZM12.288 4.6176C12.096 4.6176 11.9328 4.464 11.9328 4.2624V3.4176C11.9328 3.2256 12.0864 3.0624 12.288 3.0624C12.4896 3.0624 12.6432 3.216 12.6432 3.4176V4.2624C12.6432 4.464 12.48 4.6176 12.288 4.6176ZM12.288 3.1584C12.144 3.1584 12.0288 3.2736 12.0288 3.4176V4.2624C12.0288 4.4064 12.144 4.5216 12.288 4.5216C12.432 4.5216 12.5472 4.4064 12.5472 4.2624V3.4176C12.5472 3.2736 12.432 3.1584 12.288 3.1584ZM2.2272 3.84C1.3344 3.84 0.614399 3.12 0.614399 2.2272C0.614399 1.3344 1.3344 0.614399 2.2272 0.614399C3.12 0.614399 3.84 1.3344 3.84 2.2272C3.84 3.12 3.12 3.84 2.2272 3.84ZM2.2272 0.710399C1.392 0.710399 0.710399 1.392 0.710399 2.2272C0.710399 3.0624 1.392 3.744 2.2272 3.744C3.0624 3.744 3.744 3.0624 3.744 2.2272C3.744 1.392 3.0624 0.710399 2.2272 0.710399ZM22.3488 3.84C21.456 3.84 20.736 3.12 20.736 2.2272C20.736 1.3344 21.456 0.614399 22.3488 0.614399C23.2416 0.614399 23.9616 1.3344 23.9616 2.2272C23.9616 3.12 23.232 3.84 22.3488 3.84ZM22.3488 0.710399C21.5136 0.710399 20.832 1.392 20.832 2.2272C20.832 3.0624 21.5136 3.744 22.3488 3.744C23.184 3.744 23.8656 3.0624 23.8656 2.2272C23.8656 1.392 23.184 0.710399 22.3488 0.710399Z" fill="url(#paint1_linear_1_10016)"/>
<defs>
<linearGradient id="paint0_linear_1_10016" x1="12.2918" y1="0.0576172" x2="12.2918" y2="24.528" gradientUnits="userSpaceOnUse">
<stop stop-color="#FFF422"/>
<stop offset="1" stop-color="#AF99FF"/>
</linearGradient>
<linearGradient id="paint1_linear_1_10016" x1="12.288" y1="0" x2="12.288" y2="24.5664" gradientUnits="userSpaceOnUse">
<stop stop-color="#FFF422"/>
<stop offset="1" stop-color="#AF99FF"/>
</linearGradient>
</defs>
</svg>
