<svg width="24" height="24" viewBox="0 0 24 24" fill="none" xmlns="http://www.w3.org/2000/svg">
<path d="M4.95449 11.5299C5.06969 11.6547 5.23289 11.7123 5.40569 11.7123C5.78009 11.7123 6.30809 11.4531 7.04729 10.9155C7.69049 10.4355 8.30489 9.92672 8.89049 9.37952L10.6473 11.1363C10.8297 11.3187 11.0505 11.4531 11.2905 11.5299L12.4329 11.9043C12.5193 11.9331 12.6153 11.9523 12.7113 11.9523C13.1721 11.9523 13.5465 11.5683 13.5465 11.1075C13.5465 11.0211 13.5273 10.9347 13.5081 10.8483L13.1337 9.70592C13.0473 9.46592 12.9129 9.24512 12.7401 9.06272L11.0217 7.34432L11.7225 6.64352C11.8857 6.48032 11.9817 6.24992 11.9721 6.00992C12.2793 5.96192 12.5577 5.81792 12.7689 5.59712C12.9897 5.34752 13.1241 5.03072 13.1433 4.69472C13.1625 4.40672 13.2681 4.12832 13.4409 3.89792C13.5657 3.75392 13.5945 3.54272 13.5177 3.36992C13.4409 3.20672 13.2777 3.09152 13.0953 3.08192C12.5577 3.05312 11.5689 3.09152 10.9257 3.71552C10.7049 3.93632 10.5513 4.22432 10.4937 4.54112C10.2537 4.53152 10.0233 4.61792 9.86009 4.79072L9.15929 5.49152L7.28729 3.61952C6.92249 3.26432 6.33689 3.26432 5.97209 3.61952L5.21369 4.37792C4.84889 4.74272 4.84889 5.32832 5.21369 5.69312L7.12409 7.60352C4.20569 10.7715 4.71449 11.2899 4.95449 11.5299ZM12.3561 9.95552L12.7305 11.0979C12.7401 11.1171 12.7305 11.1363 12.7209 11.1459C12.7113 11.1555 12.6921 11.1651 12.6729 11.1555L11.5305 10.7811C11.4057 10.7427 11.2905 10.6755 11.2041 10.5795L9.46649 8.84192C9.77369 8.55392 10.1001 8.23712 10.4265 7.91072L12.1353 9.61952C12.2409 9.71552 12.3177 9.83072 12.3561 9.95552ZM11.4537 4.29152C11.7513 4.04192 12.1161 3.90752 12.5097 3.88832C12.4233 4.10912 12.3657 4.33952 12.3369 4.57952C12.2985 4.81952 12.2793 4.95392 12.1833 5.04032C12.0489 5.18432 11.8569 5.25152 11.6649 5.24192C11.5305 5.23232 11.4057 5.16512 11.3193 5.04992C11.1849 4.80032 11.2425 4.48352 11.4537 4.29152ZM10.4457 5.32832C10.4649 5.32832 10.4745 5.33792 10.4937 5.34752L10.8489 5.70272L10.8585 5.71232L11.1465 6.00032C11.1657 6.01952 11.1657 6.05792 11.1465 6.08672L10.6665 6.56672L9.92729 5.82752L10.4073 5.34752C10.4073 5.33792 10.4265 5.32832 10.4457 5.32832ZM5.75129 4.93472L6.50009 4.17632C6.54809 4.11872 6.63449 4.11872 6.69209 4.17632L7.54649 5.03072L6.60569 5.98112L5.76089 5.13632C5.70329 5.07872 5.70329 4.99232 5.75129 4.93472ZM7.17209 6.53792L8.12249 5.58752L8.58329 6.04832C8.24729 6.39392 7.93049 6.71072 7.65209 7.00832L7.17209 6.53792ZM9.35129 6.39392L10.0905 7.13312C7.52729 9.68672 6.16409 10.6371 5.62649 10.8579C5.84729 10.3299 6.79769 8.95712 9.35129 6.39392Z" fill="url(#paint0_linear_1_10076)"/>
<path d="M4.77055 13.9395H12.7386C12.9594 13.9395 13.1322 13.7571 13.1322 13.5459C13.1322 13.3347 12.9498 13.1523 12.7386 13.1523H4.77055C4.54975 13.1523 4.37695 13.3347 4.37695 13.5459C4.37695 13.7571 4.55935 13.9395 4.77055 13.9395Z" fill="url(#paint1_linear_1_10076)"/>
<path d="M11.1451 15.1299H6.3643C6.1435 15.1299 5.9707 15.3123 5.9707 15.5235C5.9707 15.7347 6.1531 15.9171 6.3643 15.9171H11.1451C11.3659 15.9171 11.5387 15.7347 11.5387 15.5235C11.5387 15.3123 11.3659 15.1299 11.1451 15.1299Z" fill="url(#paint2_linear_1_10076)"/>
<path d="M18.7104 13.536C18.3072 13.536 17.904 13.584 17.52 13.68V0.7968C17.52 0.3552 17.1648 0 16.7232 0H1.5936C0.7104 0 0 0.7104 0 1.5936V21.504C0 22.3872 0.7104 23.0976 1.5936 23.0976H15.9648C18.384 24.6144 21.5808 23.8848 23.0976 21.4656C24.6144 19.0464 23.8848 15.8496 21.4656 14.3328C20.64 13.8144 19.6896 13.536 18.7104 13.536ZM1.5936 0.7968H16.7232V13.9392C14.3712 14.9088 13.0848 17.4432 13.68 19.9104H1.5936C1.3152 19.9104 1.0368 19.9872 0.7968 20.1312V1.5936C0.7968 1.152 1.152 0.7968 1.5936 0.7968ZM1.0272 22.0608C0.72 21.7536 0.72 21.2448 1.0272 20.9376C1.1808 20.784 1.3824 20.7072 1.5936 20.7072H13.9392C14.1888 21.3024 14.544 21.84 14.9856 22.3008H1.5936C1.3824 22.3008 1.1712 22.2144 1.0272 22.0608ZM18.7104 23.0976C16.2912 23.0976 14.3328 21.1392 14.3328 18.72C14.3328 16.3008 16.2912 14.3424 18.7104 14.3424C21.1296 14.3424 23.088 16.3008 23.088 18.72C23.088 21.1296 21.1296 23.088 18.7104 23.0976Z" fill="url(#paint3_linear_1_10076)"/>
<path d="M20.3813 16.4931L17.8661 20.0835L17.0117 19.2291C16.8581 19.0755 16.5989 19.0851 16.4453 19.2387C16.2917 19.3923 16.2917 19.6419 16.4453 19.7955L17.6357 20.9859C17.7125 21.0627 17.8085 21.1011 17.9141 21.1011C17.9237 21.1011 17.9333 21.1011 17.9525 21.1011C18.0677 21.0915 18.1733 21.0339 18.2405 20.9283L21.0245 16.9443C21.1589 16.7715 21.1205 16.5219 20.9477 16.3875C20.7749 16.2531 20.5253 16.2915 20.3909 16.4643C20.3909 16.4835 20.3813 16.4931 20.3813 16.4931Z" fill="url(#paint4_linear_1_10076)"/>
<defs>
<linearGradient id="paint0_linear_1_10076" x1="9.16088" y1="3.0752" x2="9.16088" y2="11.9523" gradientUnits="userSpaceOnUse">
<stop stop-color="#FFF422"/>
<stop offset="1" stop-color="#AF99FF"/>
</linearGradient>
<linearGradient id="paint1_linear_1_10076" x1="8.75455" y1="13.1523" x2="8.75455" y2="13.9395" gradientUnits="userSpaceOnUse">
<stop stop-color="#FFF422"/>
<stop offset="1" stop-color="#AF99FF"/>
</linearGradient>
<linearGradient id="paint2_linear_1_10076" x1="8.7547" y1="15.1299" x2="8.7547" y2="15.9171" gradientUnits="userSpaceOnUse">
<stop stop-color="#FFF422"/>
<stop offset="1" stop-color="#AF99FF"/>
</linearGradient>
<linearGradient id="paint3_linear_1_10076" x1="11.9443" y1="0" x2="11.9443" y2="23.8886" gradientUnits="userSpaceOnUse">
<stop stop-color="#FFF422"/>
<stop offset="1" stop-color="#AF99FF"/>
</linearGradient>
<linearGradient id="paint4_linear_1_10076" x1="18.7177" y1="16.3066" x2="18.7177" y2="21.1011" gradientUnits="userSpaceOnUse">
<stop stop-color="#FFF422"/>
<stop offset="1" stop-color="#AF99FF"/>
</linearGradient>
</defs>
</svg>
