<svg width="23" height="23" viewBox="0 0 23 23" fill="none" xmlns="http://www.w3.org/2000/svg">
<path d="M20.8896 9.936C20.8896 8.208 19.6128 6.7392 17.904 6.4992V1.488C17.904 0.6624 17.2416 0 16.416 0C15.7248 0 15.1296 0.470399 14.9664 1.1424L4.3776 5.472H1.488C0.6624 5.472 0 6.144 0 6.96V12.9216C0 13.7472 0.672 14.4096 1.488 14.4096V21.3696C1.488 22.1952 2.16 22.8576 2.976 22.8576H5.9712C6.7968 22.8576 7.4592 22.1856 7.4592 21.3696V20.9088C7.4592 20.4096 7.2096 19.9488 6.7968 19.6704L6.192 19.2672C6.0576 19.1712 5.9712 19.0176 5.9712 18.8544V15.0624L14.9664 18.7392C15.1584 19.536 15.9648 20.0256 16.7616 19.8336C17.4336 19.6704 17.904 19.0752 17.904 18.384V13.3728C19.6128 13.1232 20.8896 11.664 20.8896 9.936ZM19.8912 9.936C19.8912 11.1168 19.056 12.1344 17.904 12.3744V7.5072C19.0656 7.7376 19.8912 8.7552 19.8912 9.936ZM4.9824 13.5744V6.288L6.4704 5.6736V14.1792L4.9824 13.5744ZM7.4688 5.2704L14.928 2.2176V17.6352L7.4688 14.592V5.2704ZM0.998399 12.912V6.9504C0.998399 6.672 1.2192 6.4512 1.4976 6.4512H3.984V13.4112H1.4976C1.2288 13.4112 1.008 13.1904 0.998399 12.912ZM5.6448 20.0832L6.2496 20.4864C6.384 20.5824 6.4704 20.736 6.4704 20.8992V21.36C6.4704 21.6384 6.2496 21.8592 5.9712 21.8592H2.9952C2.7168 21.8592 2.496 21.6384 2.496 21.36V14.4H4.3872L4.9824 14.64V18.8352C4.9824 19.344 5.232 19.8144 5.6448 20.0832ZM16.9152 18.384C16.9152 18.6624 16.6944 18.8832 16.416 18.8832C16.1376 18.8832 15.9168 18.6624 15.9168 18.384V1.4784C15.9168 1.2 16.1376 0.9792 16.416 0.9792C16.6944 0.9792 16.9152 1.2 16.9152 1.4784V18.384ZM19.5168 5.136L22.0032 2.1504C22.176 1.9392 22.4928 1.9104 22.704 2.0832C22.9152 2.256 22.944 2.5728 22.7712 2.784L20.2752 5.7792C20.1024 5.9904 19.7856 6.0192 19.5744 5.8464C19.3632 5.664 19.3344 5.3472 19.5168 5.136ZM22.7616 17.0688C22.9344 17.28 22.9056 17.5968 22.6944 17.7696C22.4832 17.9424 22.1664 17.9136 21.9936 17.7024L19.5072 14.7168C19.3344 14.5056 19.3728 14.1888 19.584 14.016C19.7952 13.8528 20.0928 13.8816 20.2656 14.0832L22.7616 17.0688ZM12.9312 5.4624V14.4096C12.9312 14.688 12.7104 14.9088 12.432 14.9088C12.1536 14.9088 11.9328 14.688 11.9328 14.4096V5.4624C11.9328 5.184 12.1536 4.9632 12.432 4.9632C12.7104 4.9632 12.9312 5.184 12.9312 5.4624Z" fill="url(#paint0_linear_1_10038)"/>
<defs>
<linearGradient id="paint0_linear_1_10038" x1="11.4419" y1="0" x2="11.4419" y2="22.8576" gradientUnits="userSpaceOnUse">
<stop stop-color="#FFF422"/>
<stop offset="1" stop-color="#AF99FF"/>
</linearGradient>
</defs>
</svg>
